<svg width="1911" height="302" viewBox="0 0 1911 302" fill="none" xmlns="http://www.w3.org/2000/svg">
<path d="M0.640137 0H1911V302H0.640137V0Z" fill="url(#paint0_linear_64_347)"/>
<path opacity="0.8" d="M2337.28 220.698L2321.05 197.195L2304.83 164.72L2288.6 139.141L2272.37 152.613L2256.15 137.173L2239.92 129.186L2223.69 105.129L2207.47 113.601L2191.24 95.5078L2175.01 107.437L2158.79 95.2813L2142.56 72.5396L2126.33 49.0105L2110.11 68.2415L2093.88 84.7706L2077.65 101.936L2061.43 90.1419L2045.2 122.72L2028.97 96.5917L2012.75 89.5864L1996.52 75.0634L1980.29 69.7407L1964.07 71.2399L1947.84 45.5052L1931.61 54.8618L1915.39 60.7616L1899.16 25.4707L1882.93 42.9867L1866.71 74.4379L1850.48 111.088L1834.25 107.005L1818.03 89.8453L1801.8 79.8361L1785.57 80.0734L1769.35 105.927L1753.12 82.937L1736.89 108.354L1720.67 133.085L1704.44 111.099L1688.21 137.184L1671.99 139.648L1655.76 167.238L1639.53 150.251L1623.31 157.914L1607.08 171.574L1590.85 201.267L1574.63 170.797L1558.4 199.822L1542.17 164.569L1525.95 173.062L1509.72 156.161L1493.49 190.374L1477.27 220.428L1461.04 217.882L1444.81 236.547L1428.59 224.764L1412.36 248.088L1396.13 281.184L1379.91 248.956L1363.68 215.952L1347.45 229.941L1331.23 215.58L1315 231.801L1298.77 253.173L1282.55 231.09L1266.32 238.586L1250.09 266.483L1233.87 276.568L1217.64 270.258L1201.41 290.152L1185.19 268.721L1168.96 268.117L1152.73 263.447L1136.51 260.06L1120.28 238.445L1104.05 211.567L1087.83 204.379L1071.6 167.761L1055.37 158.696L1039.15 193.183L1022.92 186.566L1006.69 161.462L990.466 156.129L974.239 147.301L958.013 121.658L941.786 85.4932L925.559 105.56L909.333 74.8261L893.106 89.9855L876.879 123.346L860.653 135.339L844.426 168.867L828.199 205.732L811.973 212.792L795.746 222.057L779.519 240.532L763.293 218.454L747.066 227.751L730.839 229.553L714.613 210.014L698.386 242.161L682.159 229.456L665.933 212.161L649.706 246.794L633.48 216.184L617.253 193.016L601.026 171.353L584.8 166.532L568.573 141.131L552.346 124.252L536.12 125.735L519.893 161.565L503.666 168.867L487.44 205.15L471.213 184.867L454.986 166.898L438.76 194.219L422.533 197.357L406.306 228.377L390.08 225.988L373.853 229.445L357.626 223.114L341.4 230.68L325.173 261.629L308.946 275.37L292.72 252.111L276.493 260.686L260.266 251.356L244.04 249.21L227.813 240.419L211.586 258.043L195.36 259.709L179.133 236.666L162.906 227.277L146.68 212.867L130.453 222.693L114.226 206.396L97.9998 179.124L81.7732 161.559L65.5465 124.829L49.3198 114.388L33.0932 150.202L16.8665 184.587L0.639866 154.193" stroke="url(#paint1_linear_64_347)" stroke-width="2"/>
<defs>
<linearGradient id="paint0_linear_64_347" x1="955.82" y1="0" x2="955.82" y2="302" gradientUnits="userSpaceOnUse">
<stop stop-color="#1A1A18" stop-opacity="0"/>
<stop offset="0.521616" stop-color="#1A1A18"/>
<stop offset="1" stop-color="#1A1A18" stop-opacity="0"/>
</linearGradient>
<linearGradient id="paint1_linear_64_347" x1="2821.04" y1="290.152" x2="-492.245" y2="290.152" gradientUnits="userSpaceOnUse">
<stop stop-color="#E81C1C" stop-opacity="0.29"/>
<stop offset="0.496818" stop-color="#E81C1C"/>
<stop offset="1" stop-color="#E81C1C" stop-opacity="0.2"/>
</linearGradient>
</defs>
</svg>
