<svg width="700" height="309" viewBox="0 0 700 309" fill="none" xmlns="http://www.w3.org/2000/svg">
<path d="M700 0H0V309H700V0Z" fill="#1A1A18"/>
<path d="M173.501 134.951H149.801V154.493H173.501V134.951Z" fill="#9D9D9D" stroke="#9D9D9D" stroke-width="0.3063" stroke-miterlimit="10"/>
<path d="M102.93 75.7892H665.202" stroke="#9D9D9D" stroke-width="2.1979" stroke-miterlimit="10"/>
<path d="M102.93 233.21H665.202" stroke="#9D9D9D" stroke-width="2.1979" stroke-miterlimit="10"/>
<path d="M72.249 153.748C71.493 153.748 70.821 153.552 70.233 153.16C69.645 152.759 69.183 152.189 68.847 151.452C68.511 150.705 68.343 149.809 68.343 148.764C68.343 147.719 68.511 146.827 68.847 146.09C69.183 145.343 69.645 144.774 70.233 144.382C70.821 143.981 71.493 143.78 72.249 143.78C73.005 143.78 73.677 143.981 74.265 144.382C74.853 144.774 75.315 145.343 75.651 146.09C75.9963 146.827 76.169 147.719 76.169 148.764C76.169 149.809 75.9963 150.705 75.651 151.452C75.315 152.189 74.853 152.759 74.265 153.16C73.677 153.552 73.005 153.748 72.249 153.748ZM72.249 152.824C72.8277 152.824 73.3317 152.67 73.761 152.362C74.1903 152.045 74.5263 151.587 74.769 150.99C75.0117 150.383 75.133 149.641 75.133 148.764C75.133 147.887 75.0117 147.149 74.769 146.552C74.5263 145.945 74.1903 145.488 73.761 145.18C73.3317 144.863 72.8277 144.704 72.249 144.704C71.689 144.704 71.1897 144.863 70.751 145.18C70.3123 145.488 69.9717 145.945 69.729 146.552C69.4863 147.149 69.365 147.887 69.365 148.764C69.365 149.641 69.4863 150.383 69.729 150.99C69.9717 151.587 70.3123 152.045 70.751 152.362C71.1897 152.67 71.689 152.824 72.249 152.824Z" fill="white"/>
<path d="M102.93 81.003C105.813 81.003 108.151 78.6689 108.151 75.7896C108.151 72.9103 105.813 70.5762 102.93 70.5762C100.046 70.5762 97.7087 72.9103 97.7087 75.7896C97.7087 78.6689 100.046 81.003 102.93 81.003Z" fill="url(#paint0_linear_17_4910)"/>
<path d="M102.93 159.708C105.813 159.708 108.151 157.374 108.151 154.495C108.151 151.615 105.813 149.281 102.93 149.281C100.046 149.281 97.7087 151.615 97.7087 154.495C97.7087 157.374 100.046 159.708 102.93 159.708Z" fill="url(#paint1_linear_17_4910)"/>
<path d="M102.93 238.425C105.813 238.425 108.151 236.091 108.151 233.212C108.151 230.332 105.813 227.998 102.93 227.998C100.046 227.998 97.7087 230.332 97.7087 233.212C97.7087 236.091 100.046 238.425 102.93 238.425Z" fill="url(#paint2_linear_17_4910)"/>
<path d="M665.201 81.003C668.085 81.003 670.422 78.6689 670.422 75.7896C670.422 72.9103 668.085 70.5762 665.201 70.5762C662.318 70.5762 659.98 72.9103 659.98 75.7896C659.98 78.6689 662.318 81.003 665.201 81.003Z" fill="url(#paint3_linear_17_4910)"/>
<path d="M665.201 159.708C668.085 159.708 670.422 157.374 670.422 154.495C670.422 151.615 668.085 149.281 665.201 149.281C662.318 149.281 659.98 151.615 659.98 154.495C659.98 157.374 662.318 159.708 665.201 159.708Z" fill="url(#paint4_linear_17_4910)"/>
<path d="M665.201 238.425C668.085 238.425 670.422 236.091 670.422 233.212C670.422 230.332 668.085 227.998 665.201 227.998C662.318 227.998 659.98 230.332 659.98 233.212C659.98 236.091 662.318 238.425 665.201 238.425Z" fill="url(#paint5_linear_17_4910)"/>
<path d="M24.2159 70.7939V67.1539L24.4539 67.7979L20.2959 60.9939H21.4019L25.0559 66.9719H24.4679L28.1219 60.9939H29.1579L24.9999 67.7979L25.2379 67.1539V70.7939H24.2159ZM29.0592 71.4659V70.7939H36.0592V71.4659H29.0592ZM39.5559 70.8639C38.9493 70.8639 38.3753 70.7799 37.8339 70.6119C37.2926 70.4346 36.8679 70.2153 36.5599 69.9539L37.0079 69.1699C37.3066 69.3939 37.6893 69.5899 38.1559 69.7579C38.6226 69.9166 39.1126 69.9959 39.6259 69.9959C40.3259 69.9959 40.8299 69.8886 41.1379 69.6739C41.4459 69.4499 41.5999 69.1559 41.5999 68.7919C41.5999 68.5213 41.5113 68.3113 41.3339 68.1619C41.1659 68.0033 40.9419 67.8866 40.6619 67.8119C40.3819 67.7279 40.0693 67.6579 39.7239 67.6019C39.3786 67.5459 39.0333 67.4806 38.6879 67.4059C38.3519 67.3313 38.0439 67.2239 37.7639 67.0839C37.4839 66.9346 37.2553 66.7339 37.0779 66.4819C36.9099 66.2299 36.8259 65.8939 36.8259 65.4739C36.8259 65.0726 36.9379 64.7133 37.1619 64.3959C37.3859 64.0786 37.7126 63.8313 38.1419 63.6539C38.5806 63.4673 39.1126 63.3739 39.7379 63.3739C40.2139 63.3739 40.6899 63.4393 41.1659 63.5699C41.6419 63.6913 42.0339 63.8546 42.3419 64.0599L41.9079 64.8579C41.5813 64.6339 41.2313 64.4753 40.8579 64.3819C40.4846 64.2793 40.1113 64.2279 39.7379 64.2279C39.0753 64.2279 38.5853 64.3446 38.2679 64.5779C37.9599 64.8019 37.8059 65.0913 37.8059 65.4459C37.8059 65.7259 37.8899 65.9453 38.0579 66.1039C38.2353 66.2626 38.4639 66.3886 38.7439 66.4819C39.0333 66.5659 39.3459 66.6359 39.6819 66.6919C40.0273 66.7479 40.3679 66.8179 40.7039 66.9019C41.0493 66.9766 41.3619 67.0839 41.6419 67.2239C41.9313 67.3546 42.1599 67.5459 42.3279 67.7979C42.5053 68.0406 42.5939 68.3626 42.5939 68.7639C42.5939 69.1933 42.4726 69.5666 42.2299 69.8839C41.9966 70.1919 41.6513 70.4346 41.1939 70.6119C40.7459 70.7799 40.1999 70.8639 39.5559 70.8639ZM48.1699 63.3739C48.7672 63.3739 49.2899 63.4906 49.7379 63.7239C50.1952 63.9479 50.5499 64.2933 50.8019 64.7599C51.0632 65.2266 51.1939 65.8146 51.1939 66.5239V70.7939H50.1999V66.6219C50.1999 65.8473 50.0039 65.2639 49.6119 64.8719C49.2292 64.4706 48.6879 64.2699 47.9879 64.2699C47.4652 64.2699 47.0079 64.3773 46.6159 64.5919C46.2332 64.7973 45.9345 65.1006 45.7199 65.5019C45.5145 65.8939 45.4119 66.3699 45.4119 66.9299V70.7939H44.4179V60.4059H45.4119V65.4599L45.2159 65.0819C45.4492 64.5499 45.8225 64.1346 46.3359 63.8359C46.8492 63.5279 47.4605 63.3739 48.1699 63.3739ZM56.2028 70.8639C55.5121 70.8639 54.9801 70.6773 54.6068 70.3039C54.2335 69.9306 54.0468 69.4033 54.0468 68.7219V61.8199H55.0408V68.6659C55.0408 69.0953 55.1481 69.4266 55.3628 69.6599C55.5868 69.8933 55.9041 70.0099 56.3148 70.0099C56.7535 70.0099 57.1175 69.8839 57.4068 69.6319L57.7568 70.3459C57.5608 70.5233 57.3228 70.6539 57.0428 70.7379C56.7721 70.8219 56.4921 70.8639 56.2028 70.8639ZM52.7308 64.2699V63.4439H57.2808V64.2699H52.7308Z" fill="white"/>
<path d="M22.483 228.215V224.575L22.721 225.219L18.563 218.415H19.669L23.323 224.393H22.735L26.389 218.415H27.425L23.267 225.219L23.505 224.575V228.215H22.483ZM27.3263 228.887V228.215H34.3263V228.887H27.3263ZM35.7123 228.215V217.827H36.7063V228.215H35.7123ZM43.2241 220.795C43.8214 220.795 44.3441 220.912 44.7921 221.145C45.2494 221.369 45.6041 221.714 45.8561 222.181C46.1174 222.648 46.2481 223.236 46.2481 223.945V228.215H45.2541V224.043C45.2541 223.268 45.0581 222.685 44.6661 222.293C44.2834 221.892 43.7421 221.691 43.0421 221.691C42.5194 221.691 42.0621 221.798 41.6701 222.013C41.2874 222.218 40.9887 222.522 40.7741 222.923C40.5687 223.315 40.4661 223.791 40.4661 224.351V228.215H39.4721V220.865H40.4241V222.881L40.2701 222.503C40.5034 221.971 40.8767 221.556 41.3901 221.257C41.9034 220.949 42.5147 220.795 43.2241 220.795ZM52.069 231.001C51.397 231.001 50.753 230.903 50.137 230.707C49.521 230.511 49.0217 230.231 48.639 229.867L49.143 229.111C49.4883 229.419 49.913 229.662 50.417 229.839C50.9303 230.026 51.4717 230.119 52.041 230.119C52.9743 230.119 53.6603 229.9 54.099 229.461C54.5377 229.032 54.757 228.36 54.757 227.445V225.611L54.897 224.351L54.799 223.091V220.865H55.751V227.319C55.751 228.588 55.4383 229.517 54.813 230.105C54.197 230.702 53.2823 231.001 52.069 231.001ZM51.887 227.935C51.187 227.935 50.557 227.786 49.997 227.487C49.437 227.179 48.9937 226.754 48.667 226.213C48.3497 225.672 48.191 225.051 48.191 224.351C48.191 223.651 48.3497 223.035 48.667 222.503C48.9937 221.962 49.437 221.542 49.997 221.243C50.557 220.944 51.187 220.795 51.887 220.795C52.5403 220.795 53.1283 220.93 53.651 221.201C54.1737 221.472 54.589 221.873 54.897 222.405C55.205 222.937 55.359 223.586 55.359 224.351C55.359 225.116 55.205 225.765 54.897 226.297C54.589 226.829 54.1737 227.235 53.651 227.515C53.1283 227.795 52.5403 227.935 51.887 227.935ZM51.985 227.053C52.5263 227.053 53.007 226.941 53.427 226.717C53.847 226.484 54.1783 226.166 54.421 225.765C54.6637 225.354 54.785 224.883 54.785 224.351C54.785 223.819 54.6637 223.352 54.421 222.951C54.1783 222.55 53.847 222.237 53.427 222.013C53.007 221.78 52.5263 221.663 51.985 221.663C51.453 221.663 50.9723 221.78 50.543 222.013C50.123 222.237 49.7917 222.55 49.549 222.951C49.3157 223.352 49.199 223.819 49.199 224.351C49.199 224.883 49.3157 225.354 49.549 225.765C49.7917 226.166 50.123 226.484 50.543 226.717C50.9723 226.941 51.453 227.053 51.985 227.053Z" fill="white"/>
<path d="M207.608 154.495H183.908V198.066H207.608V154.495Z" fill="#9D9D9D" stroke="#9D9D9D" stroke-width="0.7326" stroke-miterlimit="10"/>
<path d="M241.726 95.5061H218.026V154.494H241.726V95.5061Z" fill="#9D9D9D" stroke="#9D9D9D" stroke-width="0.5323" stroke-miterlimit="10"/>
<path d="M275.833 110.632H252.133V154.495H275.833V110.632Z" fill="#9D9D9D" stroke="#9D9D9D" stroke-width="0.459" stroke-miterlimit="10"/>
<path d="M309.951 154.495H286.251V164.137H309.951V154.495Z" fill="#9D9D9D" stroke="#9D9D9D" stroke-width="0.7326" stroke-miterlimit="10"/>
<path d="M344.058 52.7782H320.358V154.505H344.058V52.7782Z" fill="#9D9D9D" stroke="#9D9D9D" stroke-width="0.6989" stroke-miterlimit="10"/>
<path d="M378.176 125.005H354.476V154.493H378.176V125.005Z" fill="#9D9D9D" stroke="#9D9D9D" stroke-width="0.3764" stroke-miterlimit="10"/>
<path d="M412.283 81.002H388.583V154.494H412.283V81.002Z" fill="#9D9D9D" stroke="#9D9D9D" stroke-width="0.5941" stroke-miterlimit="10"/>
<path d="M446.4 154.495H422.7V220.747H446.4V154.495Z" fill="#9D9D9D" stroke="#9D9D9D" stroke-width="0.7326" stroke-miterlimit="10"/>
<path d="M480.507 134.951H456.807V154.493H480.507V134.951Z" fill="#9D9D9D" stroke="#9D9D9D" stroke-width="0.3063" stroke-miterlimit="10"/>
<path d="M514.625 154.495H490.926V288.791H514.625V154.495Z" fill="#9D9D9D"/>
<path d="M548.732 103.637H525.032V154.494H548.732V103.637Z" fill="#9D9D9D" stroke="#9D9D9D" stroke-width="0.4942" stroke-miterlimit="10"/>
<path d="M582.85 21.545H559.151V154.494H582.85V21.545Z" fill="#9D9D9D" stroke="#9D9D9D" stroke-width="0.7991" stroke-miterlimit="10"/>
<path d="M616.957 154.495H593.257V195.441H616.957V154.495Z" fill="#9D9D9D" stroke="#9D9D9D" stroke-width="0.7326" stroke-miterlimit="10"/>
<path d="M102.93 154.497H665.202" stroke="#9D9D9D" stroke-width="2.1979" stroke-miterlimit="10"/>
<path d="M320.358 75.7892H344.069" stroke="#E81C1C" stroke-width="3.6632" stroke-miterlimit="10"/>
<path d="M559.151 75.7892H582.85" stroke="#E81C1C" stroke-width="3.6632" stroke-miterlimit="10"/>
<path d="M490.926 233.21H514.625" stroke="#00FF19" stroke-width="3.6632" stroke-miterlimit="10"/>
<path d="M323.878 35.5693L332.595 45.4338L340.55 35.5693" stroke="#E81C1C" stroke-width="3.6632" stroke-miterlimit="10"/>
<path d="M562.658 4.74414L571.376 14.6088L579.342 4.74414" stroke="#E81C1C" stroke-width="3.6632" stroke-miterlimit="10"/>
<path d="M511.118 305.615L502.401 295.762L494.434 305.615" stroke="#00FF19" stroke-width="3.6632" stroke-miterlimit="10"/>
<defs>
<linearGradient id="paint0_linear_17_4910" x1="108.151" y1="75.7297" x2="97.7087" y2="75.7297" gradientUnits="userSpaceOnUse">
<stop stop-color="white" stop-opacity="0.1"/>
<stop offset="0.497093" stop-color="white"/>
<stop offset="1" stop-color="white" stop-opacity="0.14"/>
</linearGradient>
<linearGradient id="paint1_linear_17_4910" x1="108.151" y1="154.435" x2="97.7087" y2="154.435" gradientUnits="userSpaceOnUse">
<stop stop-color="white" stop-opacity="0.1"/>
<stop offset="0.497093" stop-color="white"/>
<stop offset="1" stop-color="white" stop-opacity="0.14"/>
</linearGradient>
<linearGradient id="paint2_linear_17_4910" x1="108.151" y1="233.152" x2="97.7087" y2="233.152" gradientUnits="userSpaceOnUse">
<stop stop-color="white" stop-opacity="0.1"/>
<stop offset="0.497093" stop-color="white"/>
<stop offset="1" stop-color="white" stop-opacity="0.14"/>
</linearGradient>
<linearGradient id="paint3_linear_17_4910" x1="670.422" y1="75.7297" x2="659.98" y2="75.7297" gradientUnits="userSpaceOnUse">
<stop stop-color="white" stop-opacity="0.1"/>
<stop offset="0.497093" stop-color="white"/>
<stop offset="1" stop-color="white" stop-opacity="0.14"/>
</linearGradient>
<linearGradient id="paint4_linear_17_4910" x1="670.422" y1="154.435" x2="659.98" y2="154.435" gradientUnits="userSpaceOnUse">
<stop stop-color="white" stop-opacity="0.1"/>
<stop offset="0.497093" stop-color="white"/>
<stop offset="1" stop-color="white" stop-opacity="0.14"/>
</linearGradient>
<linearGradient id="paint5_linear_17_4910" x1="670.422" y1="233.152" x2="659.98" y2="233.152" gradientUnits="userSpaceOnUse">
<stop stop-color="white" stop-opacity="0.1"/>
<stop offset="0.497093" stop-color="white"/>
<stop offset="1" stop-color="white" stop-opacity="0.14"/>
</linearGradient>
</defs>
</svg>
