<svg width="94" height="93" viewBox="0 0 94 93" fill="none" xmlns="http://www.w3.org/2000/svg">
<path d="M44.2144 13.0183C44.2086 13.0182 44.2029 13.017 44.1976 13.0147C44.1922 13.0124 44.1874 13.0091 44.1834 13.005C44.1793 13.0009 44.1762 12.9961 44.174 12.9907C44.1719 12.9854 44.1708 12.9797 44.1709 12.974L44.1754 10.2675C44.1768 9.5149 44.4763 8.79372 45.008 8.26254C45.5396 7.73137 46.2599 7.43372 47.0104 7.43506C47.382 7.43573 47.7498 7.50979 48.0929 7.653C48.436 7.79622 48.7475 8.0058 49.0098 8.26977C49.2721 8.53373 49.48 8.84692 49.6215 9.19145C49.7631 9.53597 49.8356 9.90509 49.8349 10.2777L49.8304 12.9842C49.8303 12.99 49.8291 12.9956 49.8268 13.0009C49.8245 13.0062 49.8212 13.0109 49.817 13.0149C49.8128 13.0189 49.8079 13.0221 49.8025 13.0242C49.7971 13.0263 49.7914 13.0274 49.7856 13.0273L44.2144 13.0183Z" fill="#CB9200"/>
<path d="M42.198 13.7784C40.1142 15.9018 38.2069 18.0707 36.4516 20.4689C32.5643 25.78 29.9101 31.6435 28.4888 38.0593C27.8942 40.7426 27.4935 43.4547 27.2866 46.1955C27.2801 46.2809 27.2872 46.3715 27.297 46.4736C27.3 46.5018 27.287 46.516 27.258 46.516C21.8504 46.516 16.4433 46.516 11.0365 46.516C10.4146 46.516 9.98336 46.4911 9.74273 46.4415C8.28664 46.139 7.33236 44.7626 7.56151 43.2783C8.78131 35.3964 12.5718 28.3842 18.5234 23.0534C24.9677 17.2807 33.3583 14.1439 41.9358 13.271C42.235 13.2408 42.4116 13.5607 42.198 13.7784Z" fill="#CB9200"/>
<path d="M76.3178 23.8203C81.8526 29.0862 85.364 35.961 86.4825 43.4698C86.5351 43.8198 86.4481 44.3567 86.3014 44.7093C85.9097 45.6535 85.2279 46.2287 84.2558 46.4351C84.0018 46.4891 83.571 46.5162 82.9633 46.5167C77.5661 46.5167 72.1689 46.5162 66.7717 46.5154C66.7492 46.5154 66.7371 46.5043 66.7353 46.482C66.5025 43.0352 65.973 39.7065 65.1468 36.496C63.5377 30.243 60.7489 24.5501 56.7803 19.4176C55.2496 17.4377 53.6173 15.5822 51.8836 13.8511C51.7988 13.7663 51.7469 13.6965 51.7278 13.6417C51.6545 13.4297 51.8739 13.2364 52.0907 13.275C52.2049 13.2955 52.2629 13.306 52.2647 13.3064C61.1538 14.185 69.8319 17.6501 76.3178 23.8203Z" fill="#CB9200"/>
<path d="M44.1437 46.5159H32.9935C32.9416 46.5159 32.9178 46.4904 32.9221 46.4395C33.2266 42.7811 33.8706 39.1999 34.9748 35.7072C37.2424 28.5363 41.3789 22.3417 46.7956 17.122C46.9481 16.9749 47.1052 17.0103 47.2519 17.1522C49.0809 18.9248 50.7681 20.8208 52.3135 22.8401C56.3648 28.1341 59.0234 34.0493 60.2892 40.5859C60.6666 42.5367 60.9311 44.4973 61.0825 46.4677C61.0831 46.4739 61.0823 46.4801 61.0803 46.4859C61.0783 46.4917 61.0751 46.4971 61.0709 46.5016C61.0667 46.5061 61.0615 46.5098 61.0558 46.5122C61.0501 46.5147 61.044 46.5159 61.0377 46.5159H49.8648C49.854 46.5159 49.8436 46.5201 49.8359 46.5276C49.8283 46.535 49.824 46.5452 49.824 46.5557V52.0555C49.824 52.064 49.8205 52.0721 49.8144 52.0782C49.8084 52.0842 49.8001 52.0876 49.7915 52.0876H44.2171C44.2062 52.0876 44.1958 52.0833 44.1881 52.0757C44.1805 52.0681 44.1762 52.0578 44.1762 52.0471V46.548C44.1762 46.5266 44.1653 46.5159 44.1437 46.5159Z" fill="#CB9200"/>
<path d="M44.1762 60.4042V57.6913C44.1762 57.6828 44.1796 57.6746 44.1857 57.6686C44.1918 57.6626 44.2001 57.6592 44.2087 57.6592H49.7915C49.8001 57.6592 49.8084 57.6626 49.8145 57.6686C49.8206 57.6746 49.824 57.6828 49.824 57.6913V60.4196C49.824 60.4237 49.8248 60.4277 49.8264 60.4314C49.8279 60.4352 49.8302 60.4386 49.8331 60.4414C49.836 60.4443 49.8395 60.4466 49.8432 60.4481C49.847 60.4497 49.8511 60.4505 49.8552 60.4505C50.7813 60.4526 51.712 60.458 52.6472 60.4665C55.9658 60.4967 56.5183 65.1326 53.3458 65.9508C53.1181 66.0095 52.7879 66.039 52.3551 66.0395C49.6446 66.0412 46.93 66.0414 44.2113 66.0401C44.2061 66.0401 44.2011 66.0421 44.1975 66.0457C44.1938 66.0494 44.1918 66.0543 44.1918 66.0594V68.7993C44.1918 68.8044 44.1938 68.8093 44.1973 68.8129C44.2008 68.8165 44.2056 68.8185 44.2106 68.8185C47.0176 68.8181 49.8138 68.8194 52.5992 68.8224C53.8807 68.8243 55.0492 69.6445 55.3731 70.8873C55.438 71.1356 55.4705 71.539 55.4705 72.0973C55.4714 74.7186 55.467 77.3401 55.4575 79.9618C55.453 81.2143 54.6837 82.3023 53.4704 82.66C53.2311 82.7306 52.871 82.7698 52.3902 82.7775C51.5722 82.7912 50.7352 82.7934 49.8792 82.7839C49.8424 82.7835 49.824 82.8017 49.824 82.8385V85.5335C49.824 85.542 49.8206 85.5502 49.8145 85.5562C49.8084 85.5622 49.8001 85.5656 49.7915 85.5656H44.2087C44.1999 85.5656 44.1915 85.5622 44.1853 85.5562C44.1791 85.5502 44.1756 85.542 44.1756 85.5335L44.1769 82.8045C44.1769 82.798 44.1743 82.7918 44.1696 82.7873C44.165 82.7827 44.1587 82.7801 44.1522 82.7801C43.323 82.7929 42.4925 82.7938 41.6607 82.7827C41.1777 82.7758 40.8135 82.7377 40.5681 82.6683C37.7715 81.8764 37.9305 77.8751 40.7746 77.265C41.0308 77.2102 41.4614 77.183 42.0664 77.1834C44.6099 77.1847 47.1693 77.1849 49.7448 77.184C49.7976 77.184 49.824 77.1579 49.824 77.1057V74.439C49.824 74.4303 49.8205 74.422 49.8143 74.4158C49.8081 74.4097 49.7997 74.4062 49.7909 74.4062C46.9341 74.4062 44.0726 74.4062 41.2063 74.4062C40.0046 74.4062 38.9264 73.4242 38.6323 72.3157C38.5747 72.0982 38.5457 71.7954 38.5453 71.4075C38.5444 68.829 38.5442 66.2503 38.5446 63.6714C38.5446 63.1362 38.5767 62.7491 38.6407 62.5102C38.892 61.5738 39.6619 60.8088 40.6097 60.5539C40.8503 60.4888 41.2322 60.4556 41.7555 60.4543C42.5431 60.4518 43.3332 60.4518 44.1256 60.4543C44.139 60.4543 44.1519 60.449 44.1614 60.4396C44.1709 60.4303 44.1762 60.4175 44.1762 60.4042Z" fill="#CB9200"/>
</svg>
