<svg width="49" height="79" viewBox="0 0 49 79" fill="none" xmlns="http://www.w3.org/2000/svg">
<path id="$" d="M20.9639 79V0H29.3832V79H20.9639ZM23.9948 69.9234C19.2801 69.9234 14.7617 69.3071 10.4399 68.0745C6.11798 66.7858 2.63803 65.133 0 63.116L4.63058 52.8628C7.15636 54.6557 10.1312 56.1404 13.555 57.317C17.0349 58.4376 20.543 58.9979 24.079 58.9979C26.7732 58.9979 28.9341 58.7457 30.5619 58.2415C32.2457 57.6812 33.4805 56.9248 34.2663 55.9723C35.0521 55.0199 35.445 53.9273 35.445 52.6947C35.445 51.1259 34.8276 49.8933 33.5928 48.9968C32.358 48.0443 30.7302 47.2879 28.7096 46.7277C26.689 46.1113 24.4439 45.5511 21.9742 45.0468C19.5607 44.4865 17.1191 43.8142 14.6495 43.0298C12.236 42.2454 10.0189 41.2369 7.99828 40.0043C5.97766 38.7716 4.32188 37.1468 3.03093 35.1298C1.79611 33.1128 1.17869 30.5355 1.17869 27.3979C1.17869 24.0362 2.07675 20.9826 3.87285 18.2372C5.72509 15.4358 8.47537 13.2227 12.1237 11.5979C15.8282 9.91702 20.4588 9.0766 26.0155 9.0766C29.7199 9.0766 33.3683 9.52483 36.9605 10.4213C40.5527 11.2617 43.7239 12.5504 46.4742 14.2872L42.2646 24.6245C39.5143 23.0557 36.764 21.9071 34.0137 21.1787C31.2635 20.3943 28.5693 20.0021 25.9313 20.0021C23.2932 20.0021 21.1323 20.3103 19.4485 20.9266C17.7646 21.5429 16.5578 22.3553 15.8282 23.3638C15.0985 24.3163 14.7337 25.4369 14.7337 26.7255C14.7337 28.2383 15.3511 29.4709 16.5859 30.4234C17.8207 31.3199 19.4485 32.0482 21.4691 32.6085C23.4897 33.1688 25.7068 33.7291 28.1203 34.2894C30.5899 34.8496 33.0315 35.494 35.445 36.2223C37.9147 36.9507 40.1598 37.9312 42.1804 39.1638C44.201 40.3965 45.8288 42.0213 47.0636 44.0383C48.3545 46.0553 49 48.6046 49 51.6862C49 54.9918 48.0739 58.0174 46.2217 60.7628C44.3694 63.5082 41.5911 65.7213 37.8866 67.4021C34.2383 69.083 29.6077 69.9234 23.9948 69.9234Z" fill="url(#paint0_linear_17_5034)"/>
<defs>
<linearGradient id="paint0_linear_17_5034" x1="-10.1445" y1="79" x2="59.3359" y2="79" gradientUnits="userSpaceOnUse">
<stop stop-color="#E81C1C" stop-opacity="0.4"/>
<stop offset="0.496818" stop-color="#E81C1C"/>
<stop offset="1" stop-color="#E81C1C" stop-opacity="0.4"/>
</linearGradient>
</defs>
</svg>
