<svg width="24" height="24" viewBox="0 0 24 24" fill="none" xmlns="http://www.w3.org/2000/svg">
<g clip-path="url(#clip0_1_2341)">
<path d="M18 24C19.6569 24 21 22.6569 21 21V9.31066C21 8.64248 20.1921 8.30786 19.7197 8.78033C19.579 8.92098 19.5 9.11175 19.5 9.31066V19.5C19.5 21.1569 18.1569 22.5 16.5 22.5H4.5C2.84315 22.5 1.5 21.1569 1.5 19.5V7.5C1.5 5.84315 2.84315 4.5 4.5 4.5H14.6893C14.8883 4.5 15.079 4.42098 15.2197 4.28033C15.6921 3.80786 15.3575 3 14.6893 3H3C1.34315 3 0 4.34315 0 6V21C0 22.6569 1.34315 24 3 24H18Z" fill="#9D9D9D"/>
<path d="M24 2.1L21.9 0L11.7 10.2L9 7.5V15H16.5L13.8 12.3L24 2.1Z" fill="#9D9D9D"/>
</g>
<defs>
<clipPath id="clip0_1_2341">
<rect width="24" height="24" fill="white"/>
</clipPath>
</defs>
</svg>
