<svg width="70" height="70" viewBox="0 0 70 70" fill="none" xmlns="http://www.w3.org/2000/svg">
    <g>
        <path d="M8.74984 61.25C7.14568 61.25 5.77193 60.6783 4.62859 59.535C3.48526 58.3917 2.91456 57.0189 2.91651 55.4167V18.9583H8.74984V55.4167H56.8748V61.25H8.74984ZM20.4165 49.5833C18.8123 49.5833 17.4386 49.0117 16.2953 47.8683C15.1519 46.725 14.5812 45.3522 14.5832 43.75V14.5833C14.5832 12.9792 15.1548 11.6054 16.2982 10.4621C17.4415 9.31875 18.8143 8.74806 20.4165 8.75H61.2498C62.854 8.75 64.2278 9.32167 65.3711 10.465C66.5144 11.6083 67.0851 12.9811 67.0832 14.5833V43.75C67.0832 45.3542 66.5115 46.7279 65.3682 47.8713C64.2248 49.0146 62.8521 49.5853 61.2498 49.5833H20.4165ZM40.8332 35.875L61.2498 21.6563V14.5833L40.8332 28.7292L20.4165 14.5833V21.6563L40.8332 35.875Z" fill="#2C2C2E" stroke="url(#stroke-1)"/>
    </g>
    <defs>
        <linearGradient id="stroke-1" x1="65.6213" y1="34.6078" x2="4.39892" y2="34.6078" gradientUnits="userSpaceOnUse">
            <stop stop-color="white" stop-opacity="0.1"/>
            <stop offset="0.497093" stop-color="white"/>
            <stop offset="1" stop-color="white" stop-opacity="0.14"/>
        </linearGradient>
    </defs>
</svg>
