<svg width="79" height="79" viewBox="0 0 79 79" fill="none" xmlns="http://www.w3.org/2000/svg">
<path d="M10.8849 79V0H44.8864C55.3599 0 63.6638 2.21952 69.7983 6.65857C75.9328 11.0976 79 17.7562 79 26.6343C79 35.4371 75.9328 42.0581 69.7983 46.4971C63.6638 50.9362 55.3599 53.1557 44.8864 53.1557H20.9844L29.1761 45.03V79H10.8849ZM29.1761 46.9486L20.9844 38.8229H44.7741C49.7865 38.8229 53.6766 37.8071 56.4446 35.7757C59.2126 33.669 60.5966 30.6595 60.5966 26.7471C60.5966 22.91 59.2126 19.9757 56.4446 17.9443C53.6766 15.9129 49.7865 14.8971 44.7741 14.8971H20.9844L29.1761 6.20714V46.9486ZM0 68.8429V59.4757H53.4148V68.8429H0Z" fill="url(#paint0_linear_17_4862)"/>
<defs>
<linearGradient id="paint0_linear_17_4862" x1="-16.3555" y1="79" x2="95.6641" y2="79" gradientUnits="userSpaceOnUse">
<stop stop-color="#E81C1C" stop-opacity="0.53"/>
<stop offset="0.496818" stop-color="#E81C1C"/>
<stop offset="1" stop-color="#E81C1C" stop-opacity="0.2"/>
</linearGradient>
</defs>
</svg>
