<svg width="22" height="22" viewBox="0 0 22 22" fill="none" xmlns="http://www.w3.org/2000/svg">
<g clip-path="url(#clip0_64_4034)">
<mask id="path-1-outside-1_64_4034" maskUnits="userSpaceOnUse" x="0.769226" y="0.769531" width="21" height="21" fill="black">
<rect fill="white" x="0.769226" y="0.769531" width="21" height="21"/>
<path d="M9.97384 19.5472C9.78153 19.3318 9.56307 19.0872 9.39692 19.0549C9.1284 19.0663 8.86795 19.15 8.64307 19.2972L8.64846 19.2934C8.37693 19.4531 8.07414 19.5522 7.76076 19.5841L7.75153 19.5849H7.74384C7.64696 19.585 7.55101 19.5659 7.46153 19.5288L7.46615 19.5303C7.08846 19.3734 6.93538 18.9365 6.78923 18.5134C6.73062 18.2586 6.60984 18.0224 6.43769 17.8257L6.43923 17.8272C6.3062 17.7626 6.158 17.7358 6.01076 17.7495H6.01384C5.90153 17.7495 5.78307 17.7565 5.66461 17.7634C5.53692 17.7711 5.40923 17.7772 5.28769 17.7772C5.14174 17.791 4.9945 17.7758 4.85444 17.7325C4.71438 17.6892 4.58426 17.6186 4.47153 17.5249L4.47307 17.5265C4.35205 17.3539 4.26862 17.1578 4.2282 16.951C4.18779 16.7441 4.19128 16.5311 4.23846 16.3257L4.23692 16.3357C4.28199 16.0726 4.25976 15.8025 4.1723 15.5503L4.17538 15.5618C3.98224 15.392 3.7503 15.2724 3.5 15.2134L3.48923 15.2111C3.06615 15.0641 2.62769 14.9118 2.4723 14.5341C2.42773 14.3304 2.42612 14.1197 2.46757 13.9153C2.50903 13.7109 2.59264 13.5175 2.71307 13.3472L2.71 13.3518C2.85053 13.1262 2.93177 12.8688 2.94615 12.6034V12.5995C2.91384 12.4326 2.66923 12.2149 2.45384 12.0226C2.11692 11.7241 1.76923 11.4141 1.76923 10.9995C1.76923 10.5849 2.11692 10.2749 2.45307 9.97415C2.66846 9.78184 2.91307 9.56338 2.94538 9.39722C2.92977 9.12923 2.8464 8.86959 2.70307 8.64261L2.70692 8.64876C2.58682 8.47723 2.50392 8.28248 2.46351 8.07702C2.42311 7.87156 2.4261 7.65992 2.4723 7.45569L2.47076 7.46569C2.62769 7.08799 3.06461 6.93492 3.48769 6.78876C3.75384 6.72645 3.98538 6.60415 4.17538 6.43645L4.17384 6.43799C4.26056 6.18614 4.28122 5.91626 4.23384 5.65415L4.23538 5.66338C4.19005 5.45836 4.18783 5.24615 4.22888 5.04024C4.26994 4.83432 4.35335 4.63918 4.47384 4.46722L4.47076 4.47184C4.58407 4.37847 4.7147 4.3084 4.85515 4.26563C4.9956 4.22286 5.14311 4.20824 5.28923 4.22261H5.28461C5.40769 4.22261 5.53461 4.22953 5.66153 4.23645C5.78 4.24338 5.89846 4.2503 6.01076 4.2503C6.15865 4.26385 6.30742 4.23644 6.44076 4.17107L6.43615 4.17338C6.60153 3.98415 6.72384 3.75338 6.78384 3.49799L6.78615 3.48722C6.93384 3.06415 7.08615 2.62569 7.46307 2.4703C7.55117 2.43419 7.64555 2.41589 7.74076 2.41645H7.74923H7.74846C8.08384 2.45107 8.38846 2.55492 8.65692 2.71338L8.64615 2.70799C8.86823 2.85403 9.12594 2.93674 9.39153 2.94722H9.39461C9.56153 2.91492 9.77923 2.6703 9.97153 2.45492C10.2746 2.11722 10.5854 1.76953 11 1.76953C11.4146 1.76953 11.7246 2.11722 12.0254 2.45415C12.2177 2.66953 12.4361 2.91415 12.6023 2.94645C12.8708 2.93406 13.131 2.85014 13.3561 2.70338L13.35 2.70722C13.6218 2.54758 13.9248 2.44864 14.2385 2.41722L14.2477 2.41645H14.2554C14.3554 2.41645 14.4508 2.43645 14.5377 2.47261L14.5331 2.47107C14.9108 2.62799 15.0638 3.06492 15.21 3.48799C15.2723 3.75415 15.3946 3.98492 15.5615 4.17569L15.56 4.17415C15.6933 4.23866 15.8419 4.26502 15.9892 4.2503H15.9861C16.0985 4.2503 16.2169 4.24338 16.3354 4.23722C16.4631 4.2303 16.5908 4.22338 16.7123 4.22338C16.8584 4.20972 17.0057 4.22498 17.1459 4.26827C17.286 4.31156 17.4163 4.38204 17.5292 4.47569L17.5277 4.47415C17.6483 4.64689 17.7315 4.84297 17.7717 5.04978C17.812 5.25658 17.8085 5.46953 17.7615 5.67492L17.7631 5.66492C17.7179 5.92802 17.7404 6.19829 17.8285 6.4503L17.8254 6.43953C18.0138 6.60569 18.2454 6.72799 18.5008 6.78722L18.5115 6.78953C18.9346 6.93722 19.3731 7.08953 19.5285 7.46645C19.5726 7.67014 19.574 7.88076 19.5327 8.08504C19.4914 8.28932 19.4082 8.48283 19.2885 8.65338L19.2915 8.64876C19.1506 8.87265 19.0686 9.12852 19.0531 9.39261V9.39722C19.0854 9.56415 19.33 9.78184 19.5454 9.97415C19.8846 10.2765 20.2323 10.5865 20.2323 11.0011C20.2323 11.4157 19.8846 11.7265 19.5477 12.0272C19.3323 12.2195 19.0877 12.4372 19.0554 12.6041C19.0723 12.8834 19.1592 13.1395 19.2977 13.3595L19.2938 13.3526C19.414 13.524 19.4969 13.7186 19.5373 13.9239C19.5777 14.1293 19.5747 14.3408 19.5285 14.5449L19.53 14.5349C19.3738 14.9134 18.9361 15.0657 18.5131 15.2118C18.2582 15.2704 18.0218 15.3915 17.8254 15.5641L17.8269 15.5626C17.7402 15.8145 17.7195 16.0843 17.7669 16.3465L17.7654 16.3372C17.8106 16.5421 17.8128 16.7542 17.7717 16.96C17.7307 17.1657 17.6473 17.3607 17.5269 17.5326L17.53 17.528C17.4169 17.6215 17.2865 17.6918 17.1461 17.7349C17.0058 17.7779 16.8584 17.7928 16.7123 17.7788H16.7169C16.5938 17.7788 16.4669 17.7718 16.34 17.7649C16.2237 17.757 16.1073 17.7523 15.9908 17.7511C15.8429 17.7372 15.694 17.7647 15.5608 17.8303L15.5654 17.828C15.3961 18.0214 15.2767 18.2532 15.2177 18.5034L15.2154 18.5141C15.0677 18.9372 14.9154 19.3757 14.5385 19.5311C14.4504 19.5672 14.356 19.5855 14.2608 19.5849H14.2523C13.9317 19.5529 13.6227 19.4514 13.3454 19.2872L13.3554 19.2926C13.1334 19.1465 12.8756 19.064 12.61 19.0541H12.6069C12.44 19.0865 12.2223 19.3311 12.03 19.5465C11.7261 19.8834 11.4162 20.2311 11.0008 20.2311C10.5854 20.2311 10.2754 19.8834 9.97384 19.5472ZM12.6908 7.39184L8.93692 14.2134C8.92624 14.2328 8.9208 14.2547 8.92113 14.2768C8.92146 14.299 8.92755 14.3207 8.9388 14.3398C8.95005 14.3588 8.96608 14.3747 8.98531 14.3857C9.00453 14.3967 9.0263 14.4025 9.04846 14.4026H9.7C9.72263 14.4026 9.74485 14.3966 9.76434 14.3851C9.78383 14.3736 9.79986 14.3571 9.81077 14.3372L13.5592 7.51415C13.5699 7.49473 13.5753 7.47287 13.575 7.45071C13.5747 7.42855 13.5686 7.40686 13.5573 7.38777C13.5461 7.36868 13.5301 7.35284 13.5108 7.34182C13.4916 7.3308 13.4698 7.32498 13.4477 7.32492H12.8023C12.7795 7.32498 12.7571 7.33115 12.7375 7.34278C12.7179 7.35441 12.7018 7.37186 12.6908 7.39184ZM12.1492 10.8911C12.0515 10.9719 11.9728 11.0733 11.9188 11.1881C11.8648 11.3028 11.8369 11.4281 11.8369 11.5549V13.4018C11.8369 13.6665 11.9585 13.9026 12.1485 14.058L12.15 14.0595C12.3469 14.2241 12.6023 14.3234 12.8815 14.3234C13.1608 14.3234 13.4161 14.2234 13.6146 14.058L13.6131 14.0595C13.8054 13.9034 13.9269 13.6672 13.9269 13.4026V11.5565C13.9269 11.2918 13.8077 11.0541 13.6208 10.8957L13.6192 10.8949C13.4243 10.7197 13.1713 10.623 12.9092 10.6234H12.8854H12.8869H12.8631C12.6002 10.623 12.3463 10.7188 12.1492 10.8926L12.1508 10.8918L12.1492 10.8911ZM8.88461 7.57799C8.78686 7.6588 8.70818 7.76022 8.65419 7.87498C8.6002 7.98974 8.57224 8.11501 8.5723 8.24184V10.088C8.5723 10.3534 8.69307 10.5911 8.88384 10.7472L8.88538 10.7488C9.0823 10.9157 9.33846 11.0165 9.61846 11.0165C9.89846 11.0165 10.1554 10.9149 10.3531 10.7472L10.3515 10.7488C10.5454 10.5911 10.6677 10.3534 10.6677 10.0865V8.24492C10.6677 7.97799 10.5469 7.7403 10.3561 7.58184L10.3546 7.58107C10.1492 7.40611 9.88815 7.31008 9.61832 7.31022C9.34848 7.31036 9.08754 7.40666 8.8823 7.58184L8.88384 7.5803L8.88461 7.57799ZM12.7138 13.5018C12.6973 13.4887 12.6839 13.4719 12.6748 13.4529C12.6656 13.4339 12.6608 13.413 12.6608 13.3918V11.5449C12.6608 11.5003 12.6815 11.4611 12.7131 11.4357C12.753 11.401 12.8041 11.3819 12.8569 11.3818H12.8669H12.8661H12.8754C12.9284 11.3818 12.9796 11.4006 13.02 11.4349C13.0364 11.448 13.0497 11.4646 13.0589 11.4835C13.0681 11.5024 13.0729 11.5231 13.0731 11.5441V13.3918C13.0731 13.4128 13.0684 13.4335 13.0593 13.4524C13.0503 13.4713 13.0371 13.4879 13.0208 13.5011C12.9792 13.5349 12.9254 13.5549 12.8669 13.5549C12.8085 13.5549 12.7546 13.5349 12.7123 13.5003H12.7131L12.7138 13.5018ZM9.4523 10.1895C9.43585 10.1763 9.42254 10.1595 9.41336 10.1405C9.40418 10.1215 9.39935 10.1007 9.39923 10.0795V8.23338C9.39923 8.18876 9.42 8.14953 9.45153 8.12338C9.49307 8.08953 9.54692 8.06953 9.60538 8.06953C9.66384 8.06953 9.71769 8.08953 9.75999 8.12415C9.77654 8.13732 9.78913 8.15405 9.79832 8.17309C9.8075 8.19213 9.81229 8.213 9.8123 8.23415V10.0811C9.81227 10.1021 9.80756 10.1229 9.79851 10.1419C9.78947 10.161 9.77631 10.1777 9.75999 10.1911C9.71846 10.2249 9.66461 10.2449 9.60615 10.2449C9.54769 10.2449 9.49384 10.2249 9.45153 10.1903L9.4523 10.1895Z"/>
</mask>
<path d="M9.97384 19.5472C9.78153 19.3318 9.56307 19.0872 9.39692 19.0549C9.1284 19.0663 8.86795 19.15 8.64307 19.2972L8.64846 19.2934C8.37693 19.4531 8.07414 19.5522 7.76076 19.5841L7.75153 19.5849H7.74384C7.64696 19.585 7.55101 19.5659 7.46153 19.5288L7.46615 19.5303C7.08846 19.3734 6.93538 18.9365 6.78923 18.5134C6.73062 18.2586 6.60984 18.0224 6.43769 17.8257L6.43923 17.8272C6.3062 17.7626 6.158 17.7358 6.01076 17.7495H6.01384C5.90153 17.7495 5.78307 17.7565 5.66461 17.7634C5.53692 17.7711 5.40923 17.7772 5.28769 17.7772C5.14174 17.791 4.9945 17.7758 4.85444 17.7325C4.71438 17.6892 4.58426 17.6186 4.47153 17.5249L4.47307 17.5265C4.35205 17.3539 4.26862 17.1578 4.2282 16.951C4.18779 16.7441 4.19128 16.5311 4.23846 16.3257L4.23692 16.3357C4.28199 16.0726 4.25976 15.8025 4.1723 15.5503L4.17538 15.5618C3.98224 15.392 3.7503 15.2724 3.5 15.2134L3.48923 15.2111C3.06615 15.0641 2.62769 14.9118 2.4723 14.5341C2.42773 14.3304 2.42612 14.1197 2.46757 13.9153C2.50903 13.7109 2.59264 13.5175 2.71307 13.3472L2.71 13.3518C2.85053 13.1262 2.93177 12.8688 2.94615 12.6034V12.5995C2.91384 12.4326 2.66923 12.2149 2.45384 12.0226C2.11692 11.7241 1.76923 11.4141 1.76923 10.9995C1.76923 10.5849 2.11692 10.2749 2.45307 9.97415C2.66846 9.78184 2.91307 9.56338 2.94538 9.39722C2.92977 9.12923 2.8464 8.86959 2.70307 8.64261L2.70692 8.64876C2.58682 8.47723 2.50392 8.28248 2.46351 8.07702C2.42311 7.87156 2.4261 7.65992 2.4723 7.45569L2.47076 7.46569C2.62769 7.08799 3.06461 6.93492 3.48769 6.78876C3.75384 6.72645 3.98538 6.60415 4.17538 6.43645L4.17384 6.43799C4.26056 6.18614 4.28122 5.91626 4.23384 5.65415L4.23538 5.66338C4.19005 5.45836 4.18783 5.24615 4.22888 5.04024C4.26994 4.83432 4.35335 4.63918 4.47384 4.46722L4.47076 4.47184C4.58407 4.37847 4.7147 4.3084 4.85515 4.26563C4.9956 4.22286 5.14311 4.20824 5.28923 4.22261H5.28461C5.40769 4.22261 5.53461 4.22953 5.66153 4.23645C5.78 4.24338 5.89846 4.2503 6.01076 4.2503C6.15865 4.26385 6.30742 4.23644 6.44076 4.17107L6.43615 4.17338C6.60153 3.98415 6.72384 3.75338 6.78384 3.49799L6.78615 3.48722C6.93384 3.06415 7.08615 2.62569 7.46307 2.4703C7.55117 2.43419 7.64555 2.41589 7.74076 2.41645H7.74923H7.74846C8.08384 2.45107 8.38846 2.55492 8.65692 2.71338L8.64615 2.70799C8.86823 2.85403 9.12594 2.93674 9.39153 2.94722H9.39461C9.56153 2.91492 9.77923 2.6703 9.97153 2.45492C10.2746 2.11722 10.5854 1.76953 11 1.76953C11.4146 1.76953 11.7246 2.11722 12.0254 2.45415C12.2177 2.66953 12.4361 2.91415 12.6023 2.94645C12.8708 2.93406 13.131 2.85014 13.3561 2.70338L13.35 2.70722C13.6218 2.54758 13.9248 2.44864 14.2385 2.41722L14.2477 2.41645H14.2554C14.3554 2.41645 14.4508 2.43645 14.5377 2.47261L14.5331 2.47107C14.9108 2.62799 15.0638 3.06492 15.21 3.48799C15.2723 3.75415 15.3946 3.98492 15.5615 4.17569L15.56 4.17415C15.6933 4.23866 15.8419 4.26502 15.9892 4.2503H15.9861C16.0985 4.2503 16.2169 4.24338 16.3354 4.23722C16.4631 4.2303 16.5908 4.22338 16.7123 4.22338C16.8584 4.20972 17.0057 4.22498 17.1459 4.26827C17.286 4.31156 17.4163 4.38204 17.5292 4.47569L17.5277 4.47415C17.6483 4.64689 17.7315 4.84297 17.7717 5.04978C17.812 5.25658 17.8085 5.46953 17.7615 5.67492L17.7631 5.66492C17.7179 5.92802 17.7404 6.19829 17.8285 6.4503L17.8254 6.43953C18.0138 6.60569 18.2454 6.72799 18.5008 6.78722L18.5115 6.78953C18.9346 6.93722 19.3731 7.08953 19.5285 7.46645C19.5726 7.67014 19.574 7.88076 19.5327 8.08504C19.4914 8.28932 19.4082 8.48283 19.2885 8.65338L19.2915 8.64876C19.1506 8.87265 19.0686 9.12852 19.0531 9.39261V9.39722C19.0854 9.56415 19.33 9.78184 19.5454 9.97415C19.8846 10.2765 20.2323 10.5865 20.2323 11.0011C20.2323 11.4157 19.8846 11.7265 19.5477 12.0272C19.3323 12.2195 19.0877 12.4372 19.0554 12.6041C19.0723 12.8834 19.1592 13.1395 19.2977 13.3595L19.2938 13.3526C19.414 13.524 19.4969 13.7186 19.5373 13.9239C19.5777 14.1293 19.5747 14.3408 19.5285 14.5449L19.53 14.5349C19.3738 14.9134 18.9361 15.0657 18.5131 15.2118C18.2582 15.2704 18.0218 15.3915 17.8254 15.5641L17.8269 15.5626C17.7402 15.8145 17.7195 16.0843 17.7669 16.3465L17.7654 16.3372C17.8106 16.5421 17.8128 16.7542 17.7717 16.96C17.7307 17.1657 17.6473 17.3607 17.5269 17.5326L17.53 17.528C17.4169 17.6215 17.2865 17.6918 17.1461 17.7349C17.0058 17.7779 16.8584 17.7928 16.7123 17.7788H16.7169C16.5938 17.7788 16.4669 17.7718 16.34 17.7649C16.2237 17.757 16.1073 17.7523 15.9908 17.7511C15.8429 17.7372 15.694 17.7647 15.5608 17.8303L15.5654 17.828C15.3961 18.0214 15.2767 18.2532 15.2177 18.5034L15.2154 18.5141C15.0677 18.9372 14.9154 19.3757 14.5385 19.5311C14.4504 19.5672 14.356 19.5855 14.2608 19.5849H14.2523C13.9317 19.5529 13.6227 19.4514 13.3454 19.2872L13.3554 19.2926C13.1334 19.1465 12.8756 19.064 12.61 19.0541H12.6069C12.44 19.0865 12.2223 19.3311 12.03 19.5465C11.7261 19.8834 11.4162 20.2311 11.0008 20.2311C10.5854 20.2311 10.2754 19.8834 9.97384 19.5472ZM12.6908 7.39184L8.93692 14.2134C8.92624 14.2328 8.9208 14.2547 8.92113 14.2768C8.92146 14.299 8.92755 14.3207 8.9388 14.3398C8.95005 14.3588 8.96608 14.3747 8.98531 14.3857C9.00453 14.3967 9.0263 14.4025 9.04846 14.4026H9.7C9.72263 14.4026 9.74485 14.3966 9.76434 14.3851C9.78383 14.3736 9.79986 14.3571 9.81077 14.3372L13.5592 7.51415C13.5699 7.49473 13.5753 7.47287 13.575 7.45071C13.5747 7.42855 13.5686 7.40686 13.5573 7.38777C13.5461 7.36868 13.5301 7.35284 13.5108 7.34182C13.4916 7.3308 13.4698 7.32498 13.4477 7.32492H12.8023C12.7795 7.32498 12.7571 7.33115 12.7375 7.34278C12.7179 7.35441 12.7018 7.37186 12.6908 7.39184ZM12.1492 10.8911C12.0515 10.9719 11.9728 11.0733 11.9188 11.1881C11.8648 11.3028 11.8369 11.4281 11.8369 11.5549V13.4018C11.8369 13.6665 11.9585 13.9026 12.1485 14.058L12.15 14.0595C12.3469 14.2241 12.6023 14.3234 12.8815 14.3234C13.1608 14.3234 13.4161 14.2234 13.6146 14.058L13.6131 14.0595C13.8054 13.9034 13.9269 13.6672 13.9269 13.4026V11.5565C13.9269 11.2918 13.8077 11.0541 13.6208 10.8957L13.6192 10.8949C13.4243 10.7197 13.1713 10.623 12.9092 10.6234H12.8854H12.8869H12.8631C12.6002 10.623 12.3463 10.7188 12.1492 10.8926L12.1508 10.8918L12.1492 10.8911ZM8.88461 7.57799C8.78686 7.6588 8.70818 7.76022 8.65419 7.87498C8.6002 7.98974 8.57224 8.11501 8.5723 8.24184V10.088C8.5723 10.3534 8.69307 10.5911 8.88384 10.7472L8.88538 10.7488C9.0823 10.9157 9.33846 11.0165 9.61846 11.0165C9.89846 11.0165 10.1554 10.9149 10.3531 10.7472L10.3515 10.7488C10.5454 10.5911 10.6677 10.3534 10.6677 10.0865V8.24492C10.6677 7.97799 10.5469 7.7403 10.3561 7.58184L10.3546 7.58107C10.1492 7.40611 9.88815 7.31008 9.61832 7.31022C9.34848 7.31036 9.08754 7.40666 8.8823 7.58184L8.88384 7.5803L8.88461 7.57799ZM12.7138 13.5018C12.6973 13.4887 12.6839 13.4719 12.6748 13.4529C12.6656 13.4339 12.6608 13.413 12.6608 13.3918V11.5449C12.6608 11.5003 12.6815 11.4611 12.7131 11.4357C12.753 11.401 12.8041 11.3819 12.8569 11.3818H12.8669H12.8661H12.8754C12.9284 11.3818 12.9796 11.4006 13.02 11.4349C13.0364 11.448 13.0497 11.4646 13.0589 11.4835C13.0681 11.5024 13.0729 11.5231 13.0731 11.5441V13.3918C13.0731 13.4128 13.0684 13.4335 13.0593 13.4524C13.0503 13.4713 13.0371 13.4879 13.0208 13.5011C12.9792 13.5349 12.9254 13.5549 12.8669 13.5549C12.8085 13.5549 12.7546 13.5349 12.7123 13.5003H12.7131L12.7138 13.5018ZM9.4523 10.1895C9.43585 10.1763 9.42254 10.1595 9.41336 10.1405C9.40418 10.1215 9.39935 10.1007 9.39923 10.0795V8.23338C9.39923 8.18876 9.42 8.14953 9.45153 8.12338C9.49307 8.08953 9.54692 8.06953 9.60538 8.06953C9.66384 8.06953 9.71769 8.08953 9.75999 8.12415C9.77654 8.13732 9.78913 8.15405 9.79832 8.17309C9.8075 8.19213 9.81229 8.213 9.8123 8.23415V10.0811C9.81227 10.1021 9.80756 10.1229 9.79851 10.1419C9.78947 10.161 9.77631 10.1777 9.75999 10.1911C9.71846 10.2249 9.66461 10.2449 9.60615 10.2449C9.54769 10.2449 9.49384 10.2249 9.45153 10.1903L9.4523 10.1895Z" fill="#2C2C2E"/>
<path d="M9.97384 19.5472C9.78153 19.3318 9.56307 19.0872 9.39692 19.0549C9.1284 19.0663 8.86795 19.15 8.64307 19.2972L8.64846 19.2934C8.37693 19.4531 8.07414 19.5522 7.76076 19.5841L7.75153 19.5849H7.74384C7.64696 19.585 7.55101 19.5659 7.46153 19.5288L7.46615 19.5303C7.08846 19.3734 6.93538 18.9365 6.78923 18.5134C6.73062 18.2586 6.60984 18.0224 6.43769 17.8257L6.43923 17.8272C6.3062 17.7626 6.158 17.7358 6.01076 17.7495H6.01384C5.90153 17.7495 5.78307 17.7565 5.66461 17.7634C5.53692 17.7711 5.40923 17.7772 5.28769 17.7772C5.14174 17.791 4.9945 17.7758 4.85444 17.7325C4.71438 17.6892 4.58426 17.6186 4.47153 17.5249L4.47307 17.5265C4.35205 17.3539 4.26862 17.1578 4.2282 16.951C4.18779 16.7441 4.19128 16.5311 4.23846 16.3257L4.23692 16.3357C4.28199 16.0726 4.25976 15.8025 4.1723 15.5503L4.17538 15.5618C3.98224 15.392 3.7503 15.2724 3.5 15.2134L3.48923 15.2111C3.06615 15.0641 2.62769 14.9118 2.4723 14.5341C2.42773 14.3304 2.42612 14.1197 2.46757 13.9153C2.50903 13.7109 2.59264 13.5175 2.71307 13.3472L2.71 13.3518C2.85053 13.1262 2.93177 12.8688 2.94615 12.6034V12.5995C2.91384 12.4326 2.66923 12.2149 2.45384 12.0226C2.11692 11.7241 1.76923 11.4141 1.76923 10.9995C1.76923 10.5849 2.11692 10.2749 2.45307 9.97415C2.66846 9.78184 2.91307 9.56338 2.94538 9.39722C2.92977 9.12923 2.8464 8.86959 2.70307 8.64261L2.70692 8.64876C2.58682 8.47723 2.50392 8.28248 2.46351 8.07702C2.42311 7.87156 2.4261 7.65992 2.4723 7.45569L2.47076 7.46569C2.62769 7.08799 3.06461 6.93492 3.48769 6.78876C3.75384 6.72645 3.98538 6.60415 4.17538 6.43645L4.17384 6.43799C4.26056 6.18614 4.28122 5.91626 4.23384 5.65415L4.23538 5.66338C4.19005 5.45836 4.18783 5.24615 4.22888 5.04024C4.26994 4.83432 4.35335 4.63918 4.47384 4.46722L4.47076 4.47184C4.58407 4.37847 4.7147 4.3084 4.85515 4.26563C4.9956 4.22286 5.14311 4.20824 5.28923 4.22261H5.28461C5.40769 4.22261 5.53461 4.22953 5.66153 4.23645C5.78 4.24338 5.89846 4.2503 6.01076 4.2503C6.15865 4.26385 6.30742 4.23644 6.44076 4.17107L6.43615 4.17338C6.60153 3.98415 6.72384 3.75338 6.78384 3.49799L6.78615 3.48722C6.93384 3.06415 7.08615 2.62569 7.46307 2.4703C7.55117 2.43419 7.64555 2.41589 7.74076 2.41645H7.74923H7.74846C8.08384 2.45107 8.38846 2.55492 8.65692 2.71338L8.64615 2.70799C8.86823 2.85403 9.12594 2.93674 9.39153 2.94722H9.39461C9.56153 2.91492 9.77923 2.6703 9.97153 2.45492C10.2746 2.11722 10.5854 1.76953 11 1.76953C11.4146 1.76953 11.7246 2.11722 12.0254 2.45415C12.2177 2.66953 12.4361 2.91415 12.6023 2.94645C12.8708 2.93406 13.131 2.85014 13.3561 2.70338L13.35 2.70722C13.6218 2.54758 13.9248 2.44864 14.2385 2.41722L14.2477 2.41645H14.2554C14.3554 2.41645 14.4508 2.43645 14.5377 2.47261L14.5331 2.47107C14.9108 2.62799 15.0638 3.06492 15.21 3.48799C15.2723 3.75415 15.3946 3.98492 15.5615 4.17569L15.56 4.17415C15.6933 4.23866 15.8419 4.26502 15.9892 4.2503H15.9861C16.0985 4.2503 16.2169 4.24338 16.3354 4.23722C16.4631 4.2303 16.5908 4.22338 16.7123 4.22338C16.8584 4.20972 17.0057 4.22498 17.1459 4.26827C17.286 4.31156 17.4163 4.38204 17.5292 4.47569L17.5277 4.47415C17.6483 4.64689 17.7315 4.84297 17.7717 5.04978C17.812 5.25658 17.8085 5.46953 17.7615 5.67492L17.7631 5.66492C17.7179 5.92802 17.7404 6.19829 17.8285 6.4503L17.8254 6.43953C18.0138 6.60569 18.2454 6.72799 18.5008 6.78722L18.5115 6.78953C18.9346 6.93722 19.3731 7.08953 19.5285 7.46645C19.5726 7.67014 19.574 7.88076 19.5327 8.08504C19.4914 8.28932 19.4082 8.48283 19.2885 8.65338L19.2915 8.64876C19.1506 8.87265 19.0686 9.12852 19.0531 9.39261V9.39722C19.0854 9.56415 19.33 9.78184 19.5454 9.97415C19.8846 10.2765 20.2323 10.5865 20.2323 11.0011C20.2323 11.4157 19.8846 11.7265 19.5477 12.0272C19.3323 12.2195 19.0877 12.4372 19.0554 12.6041C19.0723 12.8834 19.1592 13.1395 19.2977 13.3595L19.2938 13.3526C19.414 13.524 19.4969 13.7186 19.5373 13.9239C19.5777 14.1293 19.5747 14.3408 19.5285 14.5449L19.53 14.5349C19.3738 14.9134 18.9361 15.0657 18.5131 15.2118C18.2582 15.2704 18.0218 15.3915 17.8254 15.5641L17.8269 15.5626C17.7402 15.8145 17.7195 16.0843 17.7669 16.3465L17.7654 16.3372C17.8106 16.5421 17.8128 16.7542 17.7717 16.96C17.7307 17.1657 17.6473 17.3607 17.5269 17.5326L17.53 17.528C17.4169 17.6215 17.2865 17.6918 17.1461 17.7349C17.0058 17.7779 16.8584 17.7928 16.7123 17.7788H16.7169C16.5938 17.7788 16.4669 17.7718 16.34 17.7649C16.2237 17.757 16.1073 17.7523 15.9908 17.7511C15.8429 17.7372 15.694 17.7647 15.5608 17.8303L15.5654 17.828C15.3961 18.0214 15.2767 18.2532 15.2177 18.5034L15.2154 18.5141C15.0677 18.9372 14.9154 19.3757 14.5385 19.5311C14.4504 19.5672 14.356 19.5855 14.2608 19.5849H14.2523C13.9317 19.5529 13.6227 19.4514 13.3454 19.2872L13.3554 19.2926C13.1334 19.1465 12.8756 19.064 12.61 19.0541H12.6069C12.44 19.0865 12.2223 19.3311 12.03 19.5465C11.7261 19.8834 11.4162 20.2311 11.0008 20.2311C10.5854 20.2311 10.2754 19.8834 9.97384 19.5472ZM12.6908 7.39184L8.93692 14.2134C8.92624 14.2328 8.9208 14.2547 8.92113 14.2768C8.92146 14.299 8.92755 14.3207 8.9388 14.3398C8.95005 14.3588 8.96608 14.3747 8.98531 14.3857C9.00453 14.3967 9.0263 14.4025 9.04846 14.4026H9.7C9.72263 14.4026 9.74485 14.3966 9.76434 14.3851C9.78383 14.3736 9.79986 14.3571 9.81077 14.3372L13.5592 7.51415C13.5699 7.49473 13.5753 7.47287 13.575 7.45071C13.5747 7.42855 13.5686 7.40686 13.5573 7.38777C13.5461 7.36868 13.5301 7.35284 13.5108 7.34182C13.4916 7.3308 13.4698 7.32498 13.4477 7.32492H12.8023C12.7795 7.32498 12.7571 7.33115 12.7375 7.34278C12.7179 7.35441 12.7018 7.37186 12.6908 7.39184ZM12.1492 10.8911C12.0515 10.9719 11.9728 11.0733 11.9188 11.1881C11.8648 11.3028 11.8369 11.4281 11.8369 11.5549V13.4018C11.8369 13.6665 11.9585 13.9026 12.1485 14.058L12.15 14.0595C12.3469 14.2241 12.6023 14.3234 12.8815 14.3234C13.1608 14.3234 13.4161 14.2234 13.6146 14.058L13.6131 14.0595C13.8054 13.9034 13.9269 13.6672 13.9269 13.4026V11.5565C13.9269 11.2918 13.8077 11.0541 13.6208 10.8957L13.6192 10.8949C13.4243 10.7197 13.1713 10.623 12.9092 10.6234H12.8854H12.8869H12.8631C12.6002 10.623 12.3463 10.7188 12.1492 10.8926L12.1508 10.8918L12.1492 10.8911ZM8.88461 7.57799C8.78686 7.6588 8.70818 7.76022 8.65419 7.87498C8.6002 7.98974 8.57224 8.11501 8.5723 8.24184V10.088C8.5723 10.3534 8.69307 10.5911 8.88384 10.7472L8.88538 10.7488C9.0823 10.9157 9.33846 11.0165 9.61846 11.0165C9.89846 11.0165 10.1554 10.9149 10.3531 10.7472L10.3515 10.7488C10.5454 10.5911 10.6677 10.3534 10.6677 10.0865V8.24492C10.6677 7.97799 10.5469 7.7403 10.3561 7.58184L10.3546 7.58107C10.1492 7.40611 9.88815 7.31008 9.61832 7.31022C9.34848 7.31036 9.08754 7.40666 8.8823 7.58184L8.88384 7.5803L8.88461 7.57799ZM12.7138 13.5018C12.6973 13.4887 12.6839 13.4719 12.6748 13.4529C12.6656 13.4339 12.6608 13.413 12.6608 13.3918V11.5449C12.6608 11.5003 12.6815 11.4611 12.7131 11.4357C12.753 11.401 12.8041 11.3819 12.8569 11.3818H12.8669H12.8661H12.8754C12.9284 11.3818 12.9796 11.4006 13.02 11.4349C13.0364 11.448 13.0497 11.4646 13.0589 11.4835C13.0681 11.5024 13.0729 11.5231 13.0731 11.5441V13.3918C13.0731 13.4128 13.0684 13.4335 13.0593 13.4524C13.0503 13.4713 13.0371 13.4879 13.0208 13.5011C12.9792 13.5349 12.9254 13.5549 12.8669 13.5549C12.8085 13.5549 12.7546 13.5349 12.7123 13.5003H12.7131L12.7138 13.5018ZM9.4523 10.1895C9.43585 10.1763 9.42254 10.1595 9.41336 10.1405C9.40418 10.1215 9.39935 10.1007 9.39923 10.0795V8.23338C9.39923 8.18876 9.42 8.14953 9.45153 8.12338C9.49307 8.08953 9.54692 8.06953 9.60538 8.06953C9.66384 8.06953 9.71769 8.08953 9.75999 8.12415C9.77654 8.13732 9.78913 8.15405 9.79832 8.17309C9.8075 8.19213 9.81229 8.213 9.8123 8.23415V10.0811C9.81227 10.1021 9.80756 10.1229 9.79851 10.1419C9.78947 10.161 9.77631 10.1777 9.75999 10.1911C9.71846 10.2249 9.66461 10.2449 9.60615 10.2449C9.54769 10.2449 9.49384 10.2249 9.45153 10.1903L9.4523 10.1895Z" stroke="url(#paint0_linear_64_4034)" stroke-width="2" mask="url(#path-1-outside-1_64_4034)"/>
</g>
<defs>
<linearGradient id="paint0_linear_64_4034" x1="20.2323" y1="10.8942" x2="1.76922" y2="10.8942" gradientUnits="userSpaceOnUse">
<stop stop-color="white" stop-opacity="0.1"/>
<stop offset="0.497093" stop-color="white"/>
<stop offset="1" stop-color="white" stop-opacity="0.14"/>
</linearGradient>
<clipPath id="clip0_64_4034">
<rect width="22" height="22" fill="white"/>
</clipPath>
</defs>
</svg>
