<svg width="30" height="30" viewBox="0 0 30 30" fill="none" xmlns="http://www.w3.org/2000/svg">
<path d="M4.08587 3.07941C3.95668 3.0147 3.81154 2.98869 3.66792 3.00451C3.5243 3.02032 3.3883 3.07728 3.27628 3.16854C3.16426 3.25981 3.08099 3.38149 3.03648 3.51895C2.99196 3.65641 2.98811 3.80381 3.02537 3.94341L5.27237 12.3704C5.30949 12.5094 5.38579 12.6347 5.49217 12.7315C5.59856 12.8283 5.73053 12.8925 5.87237 12.9164L16.1549 14.6294C16.5734 14.6999 16.5734 15.2999 16.1549 15.3704L5.87387 17.0834C5.73176 17.107 5.59946 17.1711 5.49279 17.2679C5.38613 17.3647 5.3096 17.4902 5.27237 17.6294L3.02537 26.0564C2.98811 26.196 2.99196 26.3434 3.03648 26.4809C3.08099 26.6183 3.16426 26.74 3.27628 26.8313C3.3883 26.9225 3.5243 26.9795 3.66792 26.9953C3.81154 27.0111 3.95668 26.9851 4.08587 26.9204L26.5859 15.6704C26.7103 15.6081 26.8149 15.5123 26.888 15.3939C26.9611 15.2755 26.9998 15.1391 26.9998 14.9999C26.9998 14.8607 26.9611 14.7243 26.888 14.6059C26.8149 14.4875 26.7103 14.3918 26.5859 14.3294L4.08587 3.07941Z" fill="white"/>
</svg>
