<svg width="72" height="72" viewBox="-0.6 -0.6 72 72" fill="none" xmlns="http://www.w3.org/2000/svg">
    <g>
        <path d="M34.8367 9.52779e-05C25.5824 0.0432822 16.7219 3.74983 10.1934 10.3089C3.66496 16.868 -0.000100768 25.7457 2.07794e-09 35.0001C2.07795e-09 44.2827 3.68749 53.1851 10.2513 59.7488C16.815 66.3126 25.7174 70.0001 35 70.0001C44.2826 70.0001 53.185 66.3126 59.7487 59.7488C66.3125 53.1851 70 44.2827 70 35.0001C70 25.7175 66.3125 16.8151 59.7487 10.2514C53.185 3.68758 44.2826 9.52779e-05 35 9.52779e-05C34.9456 -3.17593e-05 34.8911 -3.17593e-05 34.8367 9.52779e-05ZM49.3092 21.0701C49.6008 21.0643 50.2454 21.1372 50.6654 21.4784C50.9445 21.7208 51.1225 22.0591 51.1642 22.4263C51.2108 22.6976 51.2692 23.3188 51.2225 23.803C50.6975 29.3388 48.4167 42.7672 47.2558 48.9651C46.7658 51.5901 45.8004 52.468 44.8642 52.5526C42.8342 52.7422 41.2913 51.2109 39.3225 49.9218C36.2425 47.9005 34.5013 46.6434 31.5117 44.6718C28.0554 42.3968 30.2954 41.1426 32.2642 39.1009C32.7804 38.5643 41.7346 30.418 41.9096 29.6801C41.93 29.5868 41.9504 29.2426 41.7463 29.0618C41.5421 28.8809 41.2388 28.9422 41.02 28.9918C40.7108 29.0618 35.7904 32.3168 26.2588 38.748C24.8588 39.7105 23.5958 40.1772 22.4613 40.148C21.2129 40.1247 18.8096 39.4451 17.0217 38.8647C14.8283 38.1501 13.0871 37.7738 13.2388 36.5634C13.3175 35.9334 14.1867 35.2888 15.8433 34.6297C26.0458 30.1847 32.8475 27.2534 36.2542 25.8388C45.9725 21.7963 47.9938 21.0934 49.3092 21.0701Z" fill="#2C2C2E" stroke="url(#stroke-1)"/>
    </g>
    <defs>
        <linearGradient id="stroke-1" x1="65.6213" y1="34.6078" x2="4.39892" y2="34.6078" gradientUnits="userSpaceOnUse">
            <stop stop-color="white" stop-opacity="0.1"/>
            <stop offset="0.497093" stop-color="white"/>
            <stop offset="1" stop-color="white" stop-opacity="0.14"/>
        </linearGradient>
    </defs>
</svg>
