<svg width="70" height="70" viewBox="0 0 70 70" fill="none" xmlns="http://www.w3.org/2000/svg">
    <path d="M60.6113 18.8211L61.1362 19.6349C69.0794 33.7951 64.8297 51.6738 51.2259 60.5217C46.3666 63.5306 40.7293 65.0376 35.0877 65.0376C29.8519 65.0376 24.5584 63.537 19.6812 60.9075L18.5613 60.1753L18.3744 60.0531L18.1587 60.1108L7.53144 62.9501L10.3708 52.3229L10.4284 52.1071L10.3062 51.9202L9.56375 50.7847C9.56353 50.7843 9.5633 50.784 9.56308 50.7836C0.575786 36.8929 5.04665 18.0443 18.9433 9.39477C33.196 0.741461 51.617 4.8777 60.6113 18.8211ZM46.9002 52.7376H46.9369L46.9732 52.7322C49.7293 52.3256 51.7253 50.7746 53.2886 48.5376H53.3747L53.5238 48.3222C54.427 47.0176 54.4086 45.309 53.979 44.0678L53.9413 43.9591L53.86 43.8778C53.609 43.6268 53.2589 43.4124 52.9156 43.2242C52.7195 43.1166 52.4933 43.001 52.2707 42.8872C52.1131 42.8067 51.9573 42.7271 51.8154 42.6519L51.8155 42.6518L51.8051 42.6466L45.6801 39.5841L45.6699 39.579L45.6595 39.5744C45.2557 39.3949 44.841 39.2492 44.3939 39.3251C43.9458 39.4012 43.5688 39.6807 43.1779 40.0715C42.7819 40.4675 42.1091 41.1513 41.4844 41.8313C41.1722 42.1711 40.8686 42.5137 40.6164 42.821C40.371 43.1201 40.151 43.4133 40.0271 43.6474L40.027 43.6473L40.0218 43.6577C39.8936 43.914 39.7333 44.002 39.5659 44.0263C39.3684 44.055 39.0951 44.0011 38.7779 43.8332L38.7593 43.8233L38.74 43.8151C36.1338 42.7042 33.8623 41.2078 31.6225 39.3149C29.7729 37.4203 27.8823 35.1426 26.3771 32.9106C26.2913 32.7365 26.2604 32.6476 26.2507 32.5941C26.2455 32.5658 26.2459 32.5572 26.2603 32.5264C26.2866 32.4701 26.3465 32.3819 26.49 32.214C26.5697 32.1209 26.6586 32.0217 26.7646 31.9033C26.8475 31.8108 26.9409 31.7065 27.0486 31.5843C28.0089 30.6634 28.5207 29.419 28.746 28.3734C28.86 27.8445 28.9048 27.3481 28.8917 26.9454C28.8851 26.7449 28.8638 26.5554 28.8238 26.391C28.7998 26.2924 28.7615 26.1697 28.6937 26.0548C28.6894 26.0357 28.6851 26.0187 28.6815 26.0046C28.6636 25.9346 28.639 25.8531 28.6105 25.7649C28.5531 25.5877 28.4721 25.3606 28.3752 25.1002C28.1809 24.5782 27.9152 23.9023 27.6279 23.1826C27.4103 22.6376 27.1805 22.068 26.9588 21.5183C26.5976 20.6229 26.2578 19.7805 26.0269 19.1839C25.8102 18.3608 25.4597 17.8417 24.9648 17.5623C24.5097 17.3054 24.0108 17.3059 23.6633 17.3063C23.6504 17.3063 23.6377 17.3063 23.6252 17.3063H21.7002C20.7771 17.3063 19.8699 17.792 19.0717 18.5903C17.0497 20.6122 15.8627 23.4096 15.8627 26.6001V26.6253L15.8653 26.6504C16.2217 30.17 17.4247 33.7209 19.7689 36.4827C23.6187 42.2705 29.0606 47.3132 35.6177 50.4146L35.6322 50.4214L35.6472 50.4274C39.4774 51.9462 41.9059 52.5305 43.5878 52.7287C44.7834 52.8696 45.6391 52.8112 46.2697 52.7682C46.5106 52.7518 46.7186 52.7376 46.9002 52.7376Z" fill="#2C2C2E" stroke="url(#stroke-1)"/>
    <defs>
        <linearGradient id="stroke-1" x1="65.6213" y1="34.6078" x2="4.39892" y2="34.6078" gradientUnits="userSpaceOnUse">
            <stop stop-color="white" stop-opacity="0.1"/>
            <stop offset="0.497093" stop-color="white"/>
            <stop offset="1" stop-color="white" stop-opacity="0.14"/>
        </linearGradient>
    </defs>
</svg>