<svg width="262" height="34" viewBox="0 0 262 34" fill="none" xmlns="http://www.w3.org/2000/svg">
<path d="M23.959 17.2472L31.4672 26.3495H28.5242L22.3416 18.9108L16.1886 26.3495H13.2754L20.7786 17.2472L13.5969 8.45679H16.5151L22.4455 15.6139L28.2868 8.45679H31.2297L23.959 17.2472Z" fill="white"/>
<path d="M39.8805 21.1117L32.4959 32.3412H12.2169L2.07242 16.9613L12.2169 1.58565H32.4959L39.8656 12.7848H41.9578L33.5396 0H11.1683L0 16.9613L11.1683 33.9268H33.5396L41.9726 21.1117H39.8805Z" fill="#E81C1C"/>
<path d="M47.062 10.8311H48.6942L53.7145 16.8271L58.5271 10.8311H60.0702V22.5371H58.4529V13.0752L53.7294 18.8893H53.4771L48.6942 13.1272V22.5371H47.0769V10.8311H47.062Z" fill="white"/>
<path d="M183.5 10.8311H185.133L190.153 16.8271L194.966 10.8311H196.509V22.5371H194.891V13.0752L190.168 18.8893H189.916L185.133 13.1272V22.5371H183.515V10.8311H183.5Z" fill="white"/>
<path d="M75.1414 17.7152H79.9539L77.5551 12.7156L75.1414 17.7152ZM76.9071 10.8311H78.3068L84.0444 22.6021H82.3083L80.587 19.0582H74.4934L72.8018 22.6021H71.1548L76.9071 10.8311Z" fill="white"/>
<path d="M104.991 22.5371L96.642 13.3482V22.5371H95.1284V10.8311H96.4243L104.768 20.0633V10.8311H106.297V22.5371H104.991Z" fill="white"/>
<path d="M121.352 17.7152H126.165L123.766 12.7156L121.352 17.7152ZM123.103 10.8311H124.503L130.241 22.6021H128.505L126.783 19.0582H120.69L118.998 22.6021H117.351L123.103 10.8311Z" fill="white"/>
<path d="M146.459 16.7534H151.593V21.2504C150.416 22.2815 148.254 22.8751 146.588 22.8751C142.423 22.8751 139.816 20.5053 139.816 16.8531C139.816 13.4868 142.393 10.8311 146.38 10.8311C148.19 10.8311 149.486 11.2166 150.574 11.9661L149.867 13.1012C149.085 12.4817 147.849 12.1611 146.568 12.1611C143.595 12.1611 141.533 14.0154 141.533 16.8401C141.533 19.6778 143.595 21.519 146.627 21.519C147.893 21.519 149.352 21.0815 150.055 20.4879V18.0791H146.449V16.7534H146.459Z" fill="white"/>
<path d="M163.528 10.8311H171.061V12.1741H165.145V15.9519H170.487V17.2906H165.145V21.1984H171.254V22.5371H163.528V10.8311Z" fill="white"/>
<path d="M209.107 10.8311H216.64V12.1741H210.724V15.9519H216.066V17.2906H210.724V21.1984H216.833V22.5371H209.107V10.8311Z" fill="white"/>
<path d="M238.744 22.9702L230.399 13.7813V22.9702H228.871V11.2642H230.167L238.511 20.4965V11.2642H240.039V22.9702H238.744Z" fill="white"/>
<path d="M251.02 10.8311H262V12.1741H257.316V22.5371H255.699V12.1741H251.02V10.8311Z" fill="white"/>
</svg>
