<svg width="100" height="100" viewBox="0 0 100 100" fill="none" xmlns="http://www.w3.org/2000/svg">
<g clip-path="url(#clip0_1_2381)">
<path d="M50 0C36.7422 0 24.0156 5.27109 14.6484 14.6445C5.27158 24.0217 0.00259742 36.7389 0 50C0 63.2555 5.27344 75.982 14.6484 85.3555C24.0156 94.7289 36.7422 100 50 100C63.2578 100 75.9844 94.7289 85.3516 85.3555C94.7266 75.982 100 63.2555 100 50C100 36.7445 94.7266 24.018 85.3516 14.6445C75.9844 5.27109 63.2578 0 50 0Z" fill="url(#paint0_linear_1_2381)"/>
<path d="M22.6325 49.4722C37.2106 43.1222 46.9294 38.9355 51.7888 36.9128C65.6794 31.137 68.5622 30.1339 70.445 30.0999C70.8591 30.0933 71.781 30.1956 72.3825 30.6819C72.8825 31.0921 73.0231 31.6468 73.0935 32.0362C73.156 32.4253 73.2419 33.312 73.1716 34.0042C72.4216 41.9105 69.1638 61.0964 67.5075 69.9519C66.8122 73.6987 65.4294 74.955 64.0935 75.0776C61.1872 75.3448 58.9841 73.1589 56.1716 71.3159C51.7731 68.4308 49.2888 66.6355 45.0153 63.8206C40.0778 60.5675 43.281 58.7792 46.0935 55.8573C46.8278 55.0925 59.6247 43.4558 59.8669 42.4003C59.8981 42.2683 59.9294 41.7761 59.6325 41.5167C59.3435 41.2565 58.9138 41.3456 58.6013 41.4159C58.156 41.5159 51.1325 46.1628 37.5075 55.3558C35.5153 56.7261 33.7106 57.394 32.0856 57.3589C30.3044 57.3206 26.8669 56.3495 24.3122 55.5198C21.1872 54.5019 18.695 53.9636 18.9138 52.2347C19.0231 51.3347 20.2653 50.4136 22.6325 49.4722Z" fill="white"/>
</g>
<defs>
<linearGradient id="paint0_linear_1_2381" x1="5000" y1="0" x2="5000" y2="10000" gradientUnits="userSpaceOnUse">
<stop stop-color="#2AABEE"/>
<stop offset="1" stop-color="#229ED9"/>
</linearGradient>
<clipPath id="clip0_1_2381">
<rect width="100" height="100" fill="white"/>
</clipPath>
</defs>
</svg>
