<svg width="262" height="37" viewBox="0 0 262 37" fill="none" xmlns="http://www.w3.org/2000/svg">
<path d="M23.959 18.6202L31.4672 28.4473H28.5242L22.3416 20.4163L16.1886 28.4473H13.2754L20.7786 18.6202L13.5969 9.12988H16.5151L22.4455 16.8569L28.2868 9.12988H31.2297L23.959 18.6202Z" fill="#2C2C2E"/>
<path d="M39.8805 22.7927L32.4959 34.9163H12.2169L2.07242 18.3118L12.2169 1.71191H32.4959L39.8656 13.8028H41.9578L33.5396 0H11.1683L0 18.3118L11.1683 36.6282H33.5396L41.9726 22.7927H39.8805Z" fill="#E81C1C"/>
<path d="M47.062 11.6934H48.6942L53.7145 18.1668L58.5271 11.6934H60.0702V24.3315H58.4529V14.1162L53.7294 20.3932H53.4771L48.6942 14.1723V24.3315H47.0769V11.6934H47.062Z" fill="#2C2C2E"/>
<path d="M183.5 11.6934H185.133L190.153 18.1668L194.966 11.6934H196.509V24.3315H194.891V14.1162L190.168 20.3932H189.916L185.133 14.1723V24.3315H183.515V11.6934H183.5Z" fill="#2C2C2E"/>
<path d="M75.1414 19.1256H79.9539L77.5551 13.728L75.1414 19.1256ZM76.9071 11.6934H78.3068L84.0444 24.4017H82.3083L80.587 20.5756H74.4934L72.8018 24.4017H71.1548L76.9071 11.6934Z" fill="#2C2C2E"/>
<path d="M104.991 24.3315L96.642 14.4109V24.3315H95.1284V11.6934H96.4243L104.768 21.6608V11.6934H106.297V24.3315H104.991Z" fill="#2C2C2E"/>
<path d="M121.352 19.1256H126.165L123.766 13.728L121.352 19.1256ZM123.103 11.6934H124.503L130.241 24.4017H128.505L126.783 20.5756H120.69L118.998 24.4017H117.351L123.103 11.6934Z" fill="#2C2C2E"/>
<path d="M146.459 18.0873H151.593V22.9424C150.416 24.0556 148.254 24.6964 146.588 24.6964C142.423 24.6964 139.816 22.1379 139.816 18.1949C139.816 14.5606 142.393 11.6934 146.38 11.6934C148.19 11.6934 149.486 12.1097 150.574 12.9188L149.867 14.1443C149.085 13.4754 147.849 13.1293 146.568 13.1293C143.595 13.1293 141.533 15.1312 141.533 18.1808C141.533 21.2445 143.595 23.2324 146.627 23.2324C147.893 23.2324 149.352 22.7599 150.055 22.1192V19.5186H146.449V18.0873H146.459Z" fill="#2C2C2E"/>
<path d="M163.528 11.6934H171.061V13.1433H165.145V17.222H170.487V18.6673H165.145V22.8862H171.254V24.3315H163.528V11.6934Z" fill="#2C2C2E"/>
<path d="M209.107 11.6934H216.64V13.1433H210.724V17.222H216.066V18.6673H210.724V22.8862H216.833V24.3315H209.107V11.6934Z" fill="#2C2C2E"/>
<path d="M238.744 24.7993L230.399 14.8787V24.7993H228.871V12.1611H230.167L238.511 22.1285V12.1611H240.039V24.7993H238.744Z" fill="#2C2C2E"/>
<path d="M251.02 11.6934H262V13.1433H257.316V24.3315H255.699V13.1433H251.02V11.6934Z" fill="#2C2C2E"/>
</svg>
