<svg width="320" height="47" viewBox="0 0 320 47" fill="none" xmlns="http://www.w3.org/2000/svg">
<path d="M29.2628 23.8932L38.4331 36.503H34.8387L27.2873 26.1979L19.7723 36.503H16.2141L25.3784 23.8932L16.6068 11.7156H20.171L27.4142 21.6305L34.5486 11.7156H38.1431L29.2628 23.8932Z" fill="#2C2C2E"/>
<path d="M48.7089 29.2467L39.6896 44.8033H14.9214L2.5312 23.497L14.9214 2.19666H39.6896L48.6908 17.7113H51.2462L40.9644 0H13.6407L0 23.497L13.6407 47H40.9644L51.2643 29.2467H48.7089Z" fill="#E81C1C"/>
<path d="M57.4805 15.0046H59.474L65.6056 23.3111L71.4836 15.0046H73.3684V31.2215H71.393V18.1136L65.6238 26.168H65.3157L59.474 18.1856V31.2215H57.4986V15.0046H57.4805Z" fill="#2C2C2E"/>
<path d="M224.123 15.0046H226.116L232.248 23.3111L238.126 15.0046H240.011V31.2215H238.035V18.1136L232.266 26.168H231.958L226.116 18.1856V31.2215H224.141V15.0046H224.123Z" fill="#2C2C2E"/>
<path d="M91.7755 24.5415H97.6534L94.7235 17.6154L91.7755 24.5415ZM93.9321 15.0046H95.6417L102.649 31.3115H100.529L98.4267 26.402H90.9841L88.918 31.3115H86.9064L93.9321 15.0046Z" fill="#2C2C2E"/>
<path d="M128.233 31.2215L118.036 18.4917V31.2215H116.188V15.0046H117.77L127.961 27.7944V15.0046H129.828V31.2215H128.233Z" fill="#2C2C2E"/>
<path d="M148.217 24.5415H154.095L151.165 17.6154L148.217 24.5415ZM150.355 15.0046H152.065L159.073 31.3115H156.952L154.85 26.402H147.407L145.341 31.3115H143.33L150.355 15.0046Z" fill="#2C2C2E"/>
<path d="M178.881 23.2091H185.152V29.4389C183.714 30.8674 181.074 31.6896 179.038 31.6896C173.952 31.6896 170.768 28.4066 170.768 23.3471C170.768 18.6837 173.916 15.0046 178.785 15.0046C180.996 15.0046 182.579 15.5388 183.908 16.5771L183.044 18.1496C182.089 17.2913 180.579 16.8472 179.014 16.8472C175.384 16.8472 172.865 19.416 172.865 23.3291C172.865 27.2603 175.384 29.8111 179.087 29.8111C180.633 29.8111 182.415 29.2049 183.273 28.3826V25.0456H178.869V23.2091H178.881Z" fill="#2C2C2E"/>
<path d="M199.729 15.0046H208.93V16.8652H201.704V22.0988H208.229V23.9533H201.704V29.3669H209.165V31.2215H199.729V15.0046Z" fill="#2C2C2E"/>
<path d="M255.397 15.0046H264.598V16.8652H257.373V22.0988H263.897V23.9533H257.373V29.3669H264.833V31.2215H255.397V15.0046Z" fill="#2C2C2E"/>
<path d="M291.595 31.8216L281.404 19.0918V31.8216H279.537V15.6047H281.12L291.311 28.3945V15.6047H293.178V31.8216H291.595Z" fill="#2C2C2E"/>
<path d="M306.589 15.0046H320V16.8652H314.279V31.2215H312.304V16.8652H306.589V15.0046Z" fill="#2C2C2E"/>
</svg>
