<svg width="210" height="32" viewBox="0 0 210 32" fill="none" xmlns="http://www.w3.org/2000/svg">
<path d="M19.2038 16.1342L25.2218 24.649H22.863L17.9074 17.6904L12.9757 24.649H10.6406L16.6547 16.1342L10.8983 7.91113H13.2373L17.9907 14.6063L22.6727 7.91113H25.0315L19.2038 16.1342Z" fill="#2C2C2E"/>
<path d="M31.9653 19.7491L26.0463 30.2539H9.79217L1.6611 15.8666L9.79217 1.48331H26.0463L31.9534 11.9597H33.6303L26.8829 0H8.95171L0 15.8666L8.95171 31.7372H26.8829L33.6422 19.7491H31.9653Z" fill="#E81C1C"/>
<path d="M37.7217 10.1318H39.0299L43.0538 15.7409L46.9112 10.1318H48.1481V21.0824H46.8518V12.2312L43.0657 17.67H42.8635L39.0299 12.2798V21.0824H37.7336V10.1318H37.7217Z" fill="#2C2C2E"/>
<path d="M147.081 10.1318H148.389L152.413 15.7409L156.27 10.1318H157.507V21.0824H156.211V12.2312L152.425 17.67H152.222L148.389 12.2798V21.0824H147.092V10.1318H147.081Z" fill="#2C2C2E"/>
<path d="M60.2281 16.5717H64.0855L62.1627 11.8948L60.2281 16.5717ZM61.6434 10.1318H62.7653L67.3641 21.1432H65.9725L64.5929 17.828H59.7087L58.3529 21.1432H57.0327L61.6434 10.1318Z" fill="#2C2C2E"/>
<path d="M84.1532 21.0824L77.4612 12.4865V21.0824H76.248V10.1318H77.2867L83.9747 18.7683V10.1318H85.1998V21.0824H84.1532Z" fill="#2C2C2E"/>
<path d="M97.2673 16.5717H101.125L99.2019 11.8948L97.2673 16.5717ZM98.6707 10.1318H99.7926L104.391 21.1432H103L101.62 17.828H96.7361L95.3802 21.1432H94.0601L98.6707 10.1318Z" fill="#2C2C2E"/>
<path d="M117.391 15.672H121.506V19.8787C120.563 20.8433 118.83 21.3985 117.494 21.3985C114.156 21.3985 112.067 19.1817 112.067 15.7652C112.067 12.6162 114.132 10.1318 117.328 10.1318C118.779 10.1318 119.817 10.4925 120.69 11.1937L120.123 12.2555C119.496 11.6759 118.505 11.376 117.478 11.376C115.096 11.376 113.443 13.1106 113.443 15.753C113.443 18.4076 115.096 20.13 117.526 20.13C118.541 20.13 119.71 19.7207 120.273 19.1654V16.9121H117.383V15.672H117.391Z" fill="#2C2C2E"/>
<path d="M131.072 10.1318H137.11V11.3882H132.369V14.9222H136.65V16.1745H132.369V19.8301H137.265V21.0824H131.072V10.1318Z" fill="#2C2C2E"/>
<path d="M167.604 10.1318H173.642V11.3882H168.901V14.9222H173.182V16.1745H168.901V19.8301H173.797V21.0824H167.604V10.1318Z" fill="#2C2C2E"/>
<path d="M191.359 21.4877L184.671 12.8918V21.4877H183.446V10.5371H184.485L191.173 19.1735V10.5371H192.398V21.4877H191.359Z" fill="#2C2C2E"/>
<path d="M201.199 10.1318H210V11.3882H206.246V21.0824H204.95V11.3882H201.199V10.1318Z" fill="#2C2C2E"/>
</svg>
