<svg width="100" height="100" viewBox="0 0 100 100" fill="none" xmlns="http://www.w3.org/2000/svg">
<path d="M100 44.3506V44.837C99.6758 52.2862 93.8652 57.6514 86.4258 57.6534C62.6016 57.6638 38.778 57.6677 14.9551 57.6651C13.1595 57.6651 11.8607 57.6 11.0586 57.4698C4.82422 56.4561 0.3125 51.2588 0 44.9092V44.3741C0.222656 42.6377 1.33789 41.9073 2.99219 41.8897C8.70443 41.8311 14.4622 41.8239 20.2656 41.8682C20.3014 41.8682 20.336 41.8554 20.3633 41.8321C20.3905 41.8088 20.4085 41.7766 20.4141 41.7413C21.5951 34.4301 22.778 27.1169 23.9629 19.8018C24.2598 17.9659 24.5462 16.6989 24.8223 16.001C26.0371 12.9229 28.9688 10.8233 32.3926 10.794C33.2598 10.7862 33.987 10.863 34.5742 11.0245C42.9518 13.32 51.4049 13.7315 59.9336 12.2588C61.707 11.9522 63.7246 11.462 65.6113 11.0284C69.5684 10.1202 73.541 12.0674 75.123 15.8116C75.4147 16.5017 75.709 17.766 76.0059 19.6045C77.2077 27.0108 78.4023 34.3995 79.5898 41.7706C79.6003 41.8331 79.6374 41.8637 79.7012 41.8624C85.6309 41.8298 91.3411 41.8363 96.832 41.8819C98.5781 41.8975 99.7285 42.5108 100 44.3506ZM62.2559 17.1827C52.707 19.0342 43.1953 18.7178 33.7988 16.2686C32.2891 15.8741 30.8828 15.9659 30.0078 17.3135C29.7292 17.7432 29.4863 18.6032 29.2793 19.8936C28.7207 23.3663 28.151 26.8786 27.5703 30.4307C27.5675 30.4475 27.5683 30.4647 27.5728 30.4811C27.5773 30.4975 27.5853 30.5128 27.5963 30.5258C27.6072 30.5388 27.6209 30.5492 27.6363 30.5564C27.6517 30.5636 27.6685 30.5674 27.6855 30.5674H72.3145C72.331 30.5674 72.3474 30.5637 72.3624 30.5567C72.3774 30.5496 72.3908 30.5393 72.4015 30.5265C72.4123 30.5137 72.4202 30.4987 72.4247 30.4825C72.4292 30.4663 72.4303 30.4493 72.4277 30.4327C71.8236 26.7191 71.2409 23.126 70.6797 19.6534C70.5065 18.5818 70.3034 17.8487 70.0703 17.4542C69.2324 16.0362 67.8125 15.8975 66.2578 16.2706C64.2839 16.7445 62.9499 17.0486 62.2559 17.1827ZM25.7363 41.7725C25.7349 41.7818 25.7355 41.7912 25.7381 41.8002C25.7407 41.8092 25.7452 41.8175 25.7514 41.8245C25.7575 41.8316 25.7651 41.8372 25.7736 41.8411C25.7822 41.8449 25.7914 41.8468 25.8008 41.8467L74.1992 41.8506C74.2086 41.8507 74.2178 41.8488 74.2264 41.845C74.2349 41.8412 74.2425 41.8355 74.2486 41.8285C74.2548 41.8214 74.2593 41.8131 74.2619 41.8041C74.2645 41.7951 74.2651 41.7857 74.2637 41.7764L73.3086 35.8956C73.3063 35.8805 73.2988 35.8668 73.2873 35.8568C73.2759 35.8468 73.2613 35.8412 73.2461 35.8409H26.752C26.7368 35.8412 26.7222 35.8468 26.7107 35.8568C26.6993 35.8668 26.6918 35.8805 26.6895 35.8956L25.7363 41.7725ZM5.78711 47.2217C6.87891 50.3799 9.86719 52.3819 13.1836 52.3819C37.1562 52.3897 61.1289 52.3936 85.1016 52.3936C86.875 52.3936 88.1406 52.2953 88.8984 52.0987C91.3737 51.4555 93.1549 49.848 94.2422 47.2764C94.2865 47.1723 94.252 47.1202 94.1387 47.1202H5.85938C5.78776 47.1202 5.76367 47.154 5.78711 47.2217Z" fill="url(#paint0_linear_64_5643)"/>
<path d="M47.7461 76.7137C47.502 84.1707 41.5586 89.0282 34.375 89.2371C32.2592 89.2983 30.1433 89.284 28.0274 89.1942C21.7442 88.9266 15.9746 84.9969 14.9258 78.5848C14.6309 76.7938 14.7364 74.4051 14.752 72.3602C14.7793 69.2762 16.709 66.7039 19.668 65.8621C20.3295 65.6733 21.364 65.5783 22.7715 65.577C28.8523 65.5731 34.9336 65.5731 41.0157 65.577C44.4239 65.5789 47.0625 67.9832 47.7012 71.2489C47.7062 71.2736 47.7194 71.2959 47.7386 71.3119C47.7578 71.3279 47.7819 71.3367 47.8067 71.3368H52.1973C52.2262 71.3367 52.2542 71.3262 52.2763 71.3073C52.2985 71.2884 52.3134 71.2622 52.3184 71.2332C52.7852 68.5594 54.7344 66.3953 57.4024 65.7586C57.9063 65.6388 58.6804 65.5789 59.7247 65.5789C65.9239 65.5737 72.1224 65.5724 78.3204 65.575C82.0918 65.575 84.8711 68.3934 84.9805 72.1551C85.0469 74.4168 85.127 77.0223 84.7227 79.0555C83.5606 84.9344 78.4571 88.7254 72.6172 89.1707C72.129 89.2085 70.8275 89.2437 68.7129 89.2762C64.9082 89.3348 61.3243 89.0516 58.086 87.0203C54.459 84.745 52.3926 81.0575 52.2618 76.7235C52.2607 76.6931 52.248 76.6643 52.2261 76.6431C52.2042 76.622 52.175 76.6102 52.1446 76.6102H47.8536C47.7845 76.6102 47.7487 76.6447 47.7461 76.7137ZM40.8536 70.8153L21.5684 70.7801C21.362 70.7796 21.1576 70.8198 20.9667 70.8983C20.7759 70.9769 20.6024 71.0923 20.4562 71.238C20.31 71.3836 20.1939 71.5567 20.1146 71.7472C20.0354 71.9378 19.9944 72.1421 19.9942 72.3485L19.9883 76.5067C19.9852 78.4815 20.8669 80.377 22.4397 81.7761C24.0125 83.1753 26.1474 83.9636 28.375 83.9676L34 83.9793C35.1033 83.9813 36.1962 83.7906 37.2162 83.4181C38.2362 83.0456 39.1633 82.4986 39.9447 81.8083C40.726 81.118 41.3462 80.298 41.7699 79.395C42.1937 78.492 42.4125 77.5239 42.4141 76.5457L42.42 72.3875C42.4205 71.9714 42.2558 71.5721 41.9621 71.2773C41.6684 70.9825 41.2697 70.8163 40.8536 70.8153ZM78.1973 70.8153L58.9434 70.7801C58.7347 70.7796 58.528 70.8202 58.335 70.8997C58.142 70.9791 57.9666 71.0958 57.8188 71.2431C57.6709 71.3904 57.5536 71.5654 57.4734 71.7581C57.3933 71.9508 57.3519 72.1574 57.3516 72.366L57.3457 76.4774C57.3426 78.46 58.2223 80.3629 59.7914 81.7676C61.3605 83.1722 63.4905 83.9636 65.7129 83.9676L71.3809 83.9793C72.4816 83.9813 73.5719 83.7899 74.5896 83.4159C75.6072 83.0419 76.5322 82.4927 77.3117 81.7997C78.0912 81.1067 78.71 80.2834 79.1327 79.3769C79.5555 78.4704 79.7739 77.4984 79.7754 76.5164L79.7813 72.4051C79.7818 71.9843 79.6153 71.5805 79.3183 71.2824C79.0213 70.9843 78.6181 70.8163 78.1973 70.8153Z" fill="url(#paint1_linear_64_5643)"/>
<defs>
<linearGradient id="paint0_linear_64_5643" x1="100" y1="33.9603" x2="-6.37123e-06" y2="33.9603" gradientUnits="userSpaceOnUse">
<stop stop-color="white" stop-opacity="0.1"/>
<stop offset="0.497093" stop-color="white"/>
<stop offset="1" stop-color="white" stop-opacity="0.14"/>
</linearGradient>
<linearGradient id="paint1_linear_64_5643" x1="85.0349" y1="77.2921" x2="14.7209" y2="77.2921" gradientUnits="userSpaceOnUse">
<stop stop-color="white" stop-opacity="0.1"/>
<stop offset="0.497093" stop-color="white"/>
<stop offset="1" stop-color="white" stop-opacity="0.14"/>
</linearGradient>
</defs>
</svg>
