<svg width="100" height="100" viewBox="0 0 100 100" fill="none" xmlns="http://www.w3.org/2000/svg">
<path d="M70.5792 41.9204C69.5825 40.2862 67.4342 39.6887 65.7492 40.6637C65.4786 40.8204 65.0992 41.1429 64.6108 41.6312C62.8397 43.4012 61.0706 45.1685 59.3033 46.9329C59.2941 46.942 59.2817 46.9471 59.2688 46.9471C59.2558 46.9471 59.2434 46.942 59.2342 46.9329L53.0883 40.7871C53.0728 40.7715 53.0641 40.7503 53.0641 40.7283C53.0641 40.7063 53.0728 40.6852 53.0883 40.6696C54.9417 38.8235 56.7733 36.9907 58.5833 35.1712C58.9383 34.8146 59.1875 34.511 59.3308 34.2604C59.8733 33.3154 59.9583 32.1229 59.545 31.1271C58.7258 29.1571 56.3 28.2612 54.4192 29.3962C54.1575 29.554 53.7742 29.8851 53.2692 30.3896C51.5142 32.1418 49.767 33.8887 48.0275 35.6304C48.0149 35.6431 47.9978 35.6502 47.9798 35.6502C47.9619 35.6502 47.9446 35.6431 47.9317 35.6304L43.3808 31.0787C43.3592 31.0571 43.3589 31.0357 43.38 31.0146C46.0572 28.3151 48.7397 25.6237 51.4275 22.9404C52.0975 22.2715 52.492 21.881 52.6108 21.7687C59.1625 15.5946 69.22 15.1129 76.3358 20.7354C76.3457 20.7432 76.3581 20.7471 76.3706 20.7463C76.3831 20.7455 76.3947 20.7402 76.4033 20.7312C81.3089 15.8273 86.2128 10.924 91.115 6.02123C91.5628 5.5729 91.8964 5.29512 92.1158 5.1879C93.7808 4.37457 95.6158 6.19457 94.8025 7.87624C94.6858 8.11679 94.3908 8.47401 93.9175 8.9479C89.037 13.8285 84.1606 18.7046 79.2883 23.5762C79.2743 23.5904 79.2659 23.6093 79.2648 23.6293C79.2638 23.6493 79.2701 23.6689 79.2825 23.6846C84.8317 30.7204 84.4392 40.7729 78.2925 47.3229C78.1753 47.4473 77.785 47.8424 77.1217 48.5079C74.4183 51.2201 71.7086 53.931 68.9925 56.6404C68.9892 56.6437 68.9854 56.6464 68.9811 56.6482C68.9768 56.65 68.9722 56.6509 68.9675 56.6509C68.9629 56.6509 68.9582 56.65 68.9539 56.6482C68.9497 56.6464 68.9458 56.6437 68.9425 56.6404L64.3592 52.0579C64.3501 52.0487 64.345 52.0363 64.345 52.0233C64.345 52.0104 64.3501 51.9979 64.3592 51.9887C66.2703 50.0693 68.1839 48.1551 70.1 46.2462C71.2367 45.1137 71.3917 43.2529 70.5792 41.9204Z" fill="url(#paint0_linear_64_5669)"/>
<path d="M48.463 77.1502C47.4938 78.1169 46.6655 78.9444 45.6305 79.6927C38.9872 84.4985 30.1422 84.3344 23.6597 79.2669C23.6363 79.2485 23.6144 79.2499 23.5938 79.271C18.7022 84.1605 13.8133 89.0491 8.92715 93.9369C8.4516 94.4124 8.09465 94.7072 7.85632 94.821C6.18465 95.621 4.39799 93.7844 5.19799 92.106C5.30132 91.8899 5.52382 91.611 5.86549 91.2694C10.8177 86.3166 15.7655 81.3688 20.7088 76.426C20.724 76.4109 20.7331 76.3907 20.7343 76.3692C20.7356 76.3477 20.7289 76.3264 20.7155 76.3094C15.0363 69.1019 15.6047 58.7719 22.0797 52.2869C25.0508 49.3113 28.026 46.3355 31.0055 43.3594C31.0124 43.3526 31.0216 43.3487 31.0313 43.3487C31.041 43.3487 31.0503 43.3526 31.0572 43.3594L35.6505 47.9519C35.6574 47.9587 35.6666 47.9625 35.6763 47.9625C35.686 47.9625 35.6953 47.9587 35.7022 47.9519C37.8149 45.8424 39.9302 43.7266 42.048 41.6044C42.473 41.1783 42.8219 40.8833 43.0947 40.7194C44.4405 39.9077 46.1738 40.0535 47.3363 41.116C48.5947 42.2669 48.888 44.1335 48.0055 45.5894C47.8383 45.8655 47.4749 46.2835 46.9155 46.8435C44.8649 48.8952 42.8116 50.9485 40.7555 53.0035C40.752 53.007 40.7492 53.0112 40.7472 53.0158C40.7453 53.0203 40.7444 53.0253 40.7444 53.0302C40.7444 53.0352 40.7453 53.0401 40.7472 53.0447C40.7492 53.0492 40.752 53.0534 40.7555 53.0569L46.9305 59.2327C46.9408 59.2427 46.9545 59.2483 46.9688 59.2483C46.9831 59.2483 46.9969 59.2427 47.0072 59.2327C49.1366 57.1022 51.2499 54.988 53.3472 52.8902C53.8088 52.4285 54.1752 52.1194 54.4463 51.9627C57.5938 50.1427 61.1763 53.711 59.3097 56.8552C59.1385 57.1435 58.7777 57.5633 58.2272 58.1144C56.166 60.1772 54.1091 62.2344 52.0563 64.286C52.0468 64.2957 52.0415 64.3087 52.0415 64.3223C52.0415 64.3359 52.0468 64.3489 52.0563 64.3585L56.6197 68.921C56.6419 68.9438 56.6419 68.9663 56.6197 68.9885C53.9041 71.7158 51.1852 74.4363 48.463 77.1502Z" fill="url(#paint1_linear_64_5669)"/>
<defs>
<linearGradient id="paint0_linear_64_5669" x1="95.0016" y1="30.5225" x2="43.3644" y2="30.5225" gradientUnits="userSpaceOnUse">
<stop stop-color="white" stop-opacity="0.1"/>
<stop offset="0.497093" stop-color="white"/>
<stop offset="1" stop-color="white" stop-opacity="0.14"/>
</linearGradient>
<linearGradient id="paint1_linear_64_5669" x1="59.8239" y1="67.2922" x2="5.00097" y2="67.2922" gradientUnits="userSpaceOnUse">
<stop stop-color="white" stop-opacity="0.1"/>
<stop offset="0.497093" stop-color="white"/>
<stop offset="1" stop-color="white" stop-opacity="0.14"/>
</linearGradient>
</defs>
</svg>
