<svg width="100" height="100" viewBox="0 0 100 100" fill="none" xmlns="http://www.w3.org/2000/svg">
<path d="M93.75 75.7246C93.75 76.4502 93.6071 77.1687 93.3294 77.8391C93.0517 78.5095 92.6447 79.1186 92.1317 79.6316C91.6186 80.1447 91.0095 80.5517 90.3391 80.8294C89.6687 81.1071 88.9502 81.25 88.2246 81.25H11.7754C11.0498 81.25 10.3313 81.1071 9.66092 80.8294C8.99054 80.5517 8.38143 80.1447 7.86835 79.6316C7.35527 79.1186 6.94827 78.5095 6.67059 77.8391C6.39292 77.1687 6.25 76.4502 6.25 75.7246V24.2754C6.25 23.5498 6.39292 22.8313 6.67059 22.1609C6.94827 21.4905 7.35527 20.8814 7.86835 20.3683C8.38143 19.8553 8.99054 19.4483 9.66092 19.1706C10.3313 18.8929 11.0498 18.75 11.7754 18.75H88.2246C88.9502 18.75 89.6687 18.8929 90.3391 19.1706C91.0095 19.4483 91.6186 19.8553 92.1317 20.3683C92.6447 20.8814 93.0517 21.4905 93.3294 22.1609C93.6071 22.8313 93.75 23.5498 93.75 24.2754V75.7246ZM87.4512 31.1563C87.5938 28.8125 88.0273 25.002 84.8633 25.002C61.8424 25.0006 38.821 25 15.7988 25C14.4258 25 13.3848 25.1758 12.7852 26.4102C12.25 27.5156 12.498 29.8164 12.5 31.1523C12.5 31.1782 12.5105 31.2031 12.5292 31.2214C12.5479 31.2397 12.5732 31.25 12.5996 31.25H87.3535C87.4147 31.25 87.4473 31.2188 87.4512 31.1563ZM12.502 72.1797C12.5039 73.7305 13.4453 74.9961 15.0879 74.9961C38.1582 74.9987 61.2285 75 84.2988 75C86.6035 75 87.4941 73.9922 87.4961 71.7109C87.5013 64.4935 87.502 57.2891 87.498 50.0977C87.498 50.0718 87.4878 50.0469 87.4694 50.0286C87.4511 50.0103 87.4263 50 87.4004 50H12.5996C12.5737 50 12.5489 50.0103 12.5306 50.0286C12.5122 50.0469 12.502 50.0718 12.502 50.0977C12.498 57.4583 12.498 64.819 12.502 72.1797Z" fill="url(#paint0_linear_64_5685)"/>
<path d="M56.1328 59.375H18.8672C18.8025 59.375 18.75 59.4275 18.75 59.4922V62.3828C18.75 62.4475 18.8025 62.5 18.8672 62.5H56.1328C56.1975 62.5 56.25 62.4475 56.25 62.3828V59.4922C56.25 59.4275 56.1975 59.375 56.1328 59.375Z" fill="url(#paint1_linear_64_5685)"/>
<path d="M81.1504 59.375H68.8496C68.7946 59.375 68.75 59.4196 68.75 59.4746V68.6504C68.75 68.7054 68.7946 68.75 68.8496 68.75H81.1504C81.2054 68.75 81.25 68.7054 81.25 68.6504V59.4746C81.25 59.4196 81.2054 59.375 81.1504 59.375Z" fill="url(#paint2_linear_64_5685)"/>
<path d="M37.4043 65.625H18.8457C18.7928 65.625 18.75 65.6678 18.75 65.7207V68.6543C18.75 68.7072 18.7928 68.75 18.8457 68.75H37.4043C37.4572 68.75 37.5 68.7072 37.5 68.6543V65.7207C37.5 65.6678 37.4572 65.625 37.4043 65.625Z" fill="url(#paint3_linear_64_5685)"/>
<defs>
<linearGradient id="paint0_linear_64_5685" x1="93.75" y1="49.6408" x2="6.24999" y2="49.6408" gradientUnits="userSpaceOnUse">
<stop stop-color="white" stop-opacity="0.1"/>
<stop offset="0.497093" stop-color="white"/>
<stop offset="1" stop-color="white" stop-opacity="0.14"/>
</linearGradient>
<linearGradient id="paint1_linear_64_5685" x1="56.25" y1="60.9195" x2="18.75" y2="60.9195" gradientUnits="userSpaceOnUse">
<stop stop-color="white" stop-opacity="0.1"/>
<stop offset="0.497093" stop-color="white"/>
<stop offset="1" stop-color="white" stop-opacity="0.14"/>
</linearGradient>
<linearGradient id="paint2_linear_64_5685" x1="81.25" y1="64.0086" x2="68.75" y2="64.0086" gradientUnits="userSpaceOnUse">
<stop stop-color="white" stop-opacity="0.1"/>
<stop offset="0.497093" stop-color="white"/>
<stop offset="1" stop-color="white" stop-opacity="0.14"/>
</linearGradient>
<linearGradient id="paint3_linear_64_5685" x1="37.5" y1="67.1695" x2="18.75" y2="67.1695" gradientUnits="userSpaceOnUse">
<stop stop-color="white" stop-opacity="0.1"/>
<stop offset="0.497093" stop-color="white"/>
<stop offset="1" stop-color="white" stop-opacity="0.14"/>
</linearGradient>
</defs>
</svg>
