<svg width="100" height="100" viewBox="0 0 100 100" fill="none" xmlns="http://www.w3.org/2000/svg">
<g clip-path="url(#clip0_64_5674)">
<path d="M100 89.466V89.7531C99.7793 95.4718 95.4375 99.7511 89.7324 99.9992H89.3438C85.4668 99.8078 82.166 97.839 80.3633 94.4347C78.7266 91.341 78.7181 88.0584 80.3379 84.5871C80.3639 84.5311 80.3555 84.4809 80.3125 84.4367L66.5332 70.6574C66.4876 70.6118 66.4369 70.6053 66.3809 70.6378L53.0195 78.3585C52.9923 78.374 52.9696 78.3965 52.9538 78.4236C52.9381 78.4507 52.9297 78.4815 52.9297 78.5128V88.6242C52.9293 88.635 52.9323 88.6456 52.9382 88.6546C52.9441 88.6637 52.9526 88.6707 52.9626 88.6748C52.9726 88.6788 52.9837 88.6797 52.9942 88.6773C53.0047 88.6749 53.0142 88.6693 53.0215 88.6613L55.8691 85.7999C55.8858 85.7834 55.9083 85.7741 55.9321 85.7741C55.9558 85.7741 55.9788 85.7834 55.9961 85.7999L60.0098 89.8195C60.0579 89.8689 60.0579 89.9178 60.0098 89.966L50.0859 99.8898C50.0562 99.9188 50.0163 99.935 49.975 99.935C49.9337 99.935 49.8943 99.9188 49.8652 99.8898L39.9531 89.9777C39.8971 89.9204 39.8971 89.8631 39.9531 89.8058L43.9336 85.8253C43.9571 85.8026 43.9886 85.7898 44.0211 85.7898C44.0536 85.7898 44.0846 85.8026 44.1074 85.8253L46.9785 88.7101C46.9858 88.7181 46.9953 88.7237 47.0058 88.7261C47.0163 88.7285 47.0274 88.7276 47.0374 88.7236C47.0474 88.7196 47.0559 88.7125 47.0618 88.7035C47.0677 88.6944 47.0707 88.6838 47.0703 88.673V78.4542C47.0702 78.4226 47.0619 78.3916 47.0461 78.3642C47.0304 78.3368 47.0077 78.314 46.9805 78.298L33.7227 70.6398C33.6641 70.6059 33.6107 70.6131 33.5625 70.6613L19.7422 84.4796C19.7375 84.4844 19.7342 84.4905 19.7329 84.497C19.7315 84.5036 19.732 84.5105 19.7344 84.5167C21.4206 88.2212 21.3444 91.6541 19.5059 94.8156C17.6641 97.9796 14.5059 99.8038 10.8281 99.9992H10.2441C-0.847656 99.4855 -3.73828 84.548 6.25 80.0538C9.24479 78.7062 12.3236 78.798 15.4863 80.3292C15.5345 80.354 15.5775 80.3468 15.6152 80.3078L28.2344 67.6867C28.2507 67.6705 28.2631 67.6508 28.2707 67.629C28.2782 67.6073 28.2806 67.5841 28.2778 67.5613C28.275 67.5385 28.267 67.5166 28.2543 67.4974C28.2417 67.4781 28.2249 67.462 28.2051 67.4503L24.1113 65.0851C24.0846 65.0697 24.0624 65.0475 24.047 65.0207C24.0315 64.994 24.0234 64.9636 24.0234 64.9328V53.0265C24.0234 53.0006 24.0131 52.9758 23.9948 52.9575C23.9765 52.9391 23.9517 52.9288 23.9258 52.9288L11.3613 52.9269C11.3478 52.9268 11.3346 52.9309 11.3234 52.9385C11.3123 52.9461 11.3036 52.957 11.2986 52.9697C11.2936 52.9825 11.2924 52.9965 11.2952 53.0101C11.2981 53.0237 11.3047 53.0362 11.3145 53.046L14.1738 55.8917C14.1966 55.9146 14.2094 55.9456 14.2094 55.9781C14.2094 56.0106 14.1966 56.042 14.1738 56.0656L10.2148 60.0226C10.1852 60.0519 10.1452 60.0684 10.1035 60.0684C10.0618 60.0684 10.0218 60.0519 9.99219 60.0226L0.113281 50.0753C0.0585938 50.0206 0.0585938 49.966 0.113281 49.9113L10.0352 39.9874C10.0482 39.9743 10.0637 39.9639 10.0808 39.9568C10.0979 39.9497 10.1163 39.9461 10.1348 39.9461C10.1533 39.9461 10.1716 39.9497 10.1887 39.9568C10.2058 39.9639 10.2213 39.9743 10.2344 39.9874L14.1563 43.9308C14.2201 43.9933 14.2201 44.0564 14.1563 44.1203L11.3223 46.9542C11.3123 46.9634 11.3054 46.9754 11.3024 46.9886C11.2995 47.0018 11.3006 47.0156 11.3057 47.0281C11.3108 47.0406 11.3196 47.0513 11.331 47.0587C11.3423 47.0661 11.3556 47.0699 11.3691 47.0695H23.9258C23.9517 47.0695 23.9765 47.0592 23.9948 47.0409C24.0131 47.0226 24.0234 46.9977 24.0234 46.9718V35.1066C24.0234 35.0687 24.0333 35.0314 24.0521 34.9985C24.071 34.9656 24.0981 34.9382 24.1309 34.9191L28.2227 32.5499C28.2414 32.5391 28.2575 32.524 28.2696 32.506C28.2817 32.488 28.2894 32.4675 28.2923 32.4461C28.2951 32.4247 28.2929 32.403 28.2859 32.3828C28.279 32.3625 28.2673 32.3442 28.252 32.3292L15.6094 19.6847C15.5586 19.6339 15.5013 19.6255 15.4375 19.6593C12.8633 21.0005 10.2617 21.2778 7.63281 20.4913C0.882813 18.4718 -2.05664 10.5617 1.86719 4.6515C5.10547 -0.225448 11.8828 -1.42662 16.6172 1.98158C20.8594 5.03627 22.166 10.7472 19.7344 15.3663C19.7208 15.3931 19.716 15.4234 19.7206 15.4529C19.7251 15.4823 19.7388 15.5095 19.7598 15.5304L33.5156 29.3273C33.5467 29.3582 33.587 29.378 33.6304 29.3836C33.6739 29.3893 33.718 29.3805 33.7559 29.3585L46.9961 21.7042C47.0456 21.6756 47.0703 21.6333 47.0703 21.5773V11.3195C47.0703 11.214 47.0332 11.199 46.959 11.2746L44.1035 14.1242C44.028 14.1997 43.9531 14.1997 43.8789 14.1242L39.9414 10.1808C39.8932 10.1313 39.8932 10.0825 39.9414 10.0343L49.8418 0.131974C49.9329 0.0408278 50.0234 0.0408278 50.1133 0.131974L60.0059 10.0441C60.015 10.0532 60.0223 10.064 60.0272 10.0759C60.0322 10.0878 60.0348 10.1005 60.0348 10.1134C60.0348 10.1263 60.0322 10.1391 60.0272 10.151C60.0223 10.1629 60.015 10.1737 60.0059 10.1828L56.0176 14.171C56.0063 14.1824 55.9929 14.1914 55.9782 14.1975C55.9634 14.2037 55.9476 14.2068 55.9316 14.2068C55.9157 14.2068 55.8998 14.2037 55.8851 14.1975C55.8703 14.1914 55.857 14.1824 55.8457 14.171L53.0488 11.3683C53.039 11.3588 53.0266 11.3524 53.0132 11.3498C52.9998 11.3472 52.986 11.3486 52.9733 11.3538C52.9607 11.359 52.9498 11.3677 52.9421 11.379C52.9343 11.3902 52.93 11.4035 52.9297 11.4171V21.4777C52.9297 21.5152 52.9395 21.5519 52.958 21.5841C52.9765 21.6164 53.0031 21.643 53.0352 21.6613L66.375 29.3761C66.3973 29.389 66.4234 29.3941 66.4492 29.3906C66.475 29.3871 66.499 29.3751 66.5176 29.3566L80.3066 15.5656C80.3496 15.5239 80.3587 15.4757 80.334 15.421C78.5983 11.6762 78.7246 8.19122 80.7129 4.96596C84.8887 -1.80553 95.1113 -1.5692 98.7969 5.63002C103.471 14.7609 93.8789 24.2492 84.6602 19.7003C84.5768 19.6587 84.502 19.671 84.4356 19.7374L71.8438 32.3312C71.7565 32.4184 71.7663 32.4926 71.8731 32.5538L75.9531 34.9074C75.9905 34.9287 76.0216 34.9594 76.0432 34.9965C76.0648 35.0335 76.0762 35.0756 76.0762 35.1183L76.0703 46.9699C76.0703 47.0363 76.1035 47.0695 76.1699 47.0695H88.5645C88.5796 47.0694 88.5944 47.0648 88.6069 47.0564C88.6194 47.0479 88.6292 47.0358 88.6348 47.0218C88.6405 47.0077 88.6418 46.9923 88.6387 46.9775C88.6356 46.9627 88.6281 46.9492 88.6172 46.9386L85.7793 44.1046C85.768 44.0934 85.759 44.08 85.7528 44.0652C85.7467 44.0505 85.7435 44.0347 85.7435 44.0187C85.7435 44.0027 85.7467 43.9869 85.7528 43.9721C85.759 43.9574 85.768 43.944 85.7793 43.9328L89.7344 39.9777C89.7457 39.9665 89.7591 39.9577 89.7738 39.9516C89.7885 39.9456 89.8041 39.9425 89.8199 39.9425C89.8357 39.9425 89.8513 39.9456 89.8658 39.9516C89.8802 39.9577 89.8933 39.9665 89.9043 39.9777L99.8418 49.9132C99.8991 49.9705 99.8991 50.0278 99.8418 50.0851L89.9043 60.0206C89.893 60.0318 89.8796 60.0407 89.8649 60.0467C89.8502 60.0527 89.8345 60.0559 89.8188 60.0559C89.803 60.0559 89.7874 60.0527 89.7729 60.0467C89.7585 60.0407 89.7454 60.0318 89.7344 60.0206L85.7774 56.0636C85.748 56.034 85.7316 55.994 85.7316 55.9523C85.7316 55.9106 85.748 55.8706 85.7774 55.841L88.6152 53.0226C88.623 53.0149 88.6284 53.0051 88.6306 52.9944C88.6327 52.9837 88.6317 52.9726 88.6275 52.9625C88.6232 52.9524 88.6161 52.9438 88.607 52.9378C88.5978 52.9318 88.5871 52.9287 88.5762 52.9288H76.1348C76.1182 52.9288 76.1023 52.9354 76.0906 52.9472C76.0789 52.9589 76.0723 52.9748 76.0723 52.9913L76.0762 64.8898C76.0762 64.9874 76.0339 65.0604 75.9492 65.1085L71.8027 67.5031C71.7941 67.508 71.7868 67.5148 71.7812 67.523C71.7757 67.5312 71.7721 67.5406 71.7708 67.5505C71.7695 67.5603 71.7704 67.5703 71.7736 67.5797C71.7768 67.5891 71.7821 67.5976 71.7891 67.6046L84.3965 80.257C84.4334 80.2945 84.4812 80.3194 84.5331 80.3282C84.585 80.337 84.6384 80.3291 84.6856 80.3058C91.8066 76.7863 99.7402 81.5695 100 89.466ZM15.1035 10.464C15.1035 9.25137 14.6218 8.08839 13.7643 7.23093C12.9069 6.37346 11.7439 5.89174 10.5313 5.89174C9.31861 5.89174 8.15564 6.37346 7.29817 7.23093C6.4407 8.08839 5.95898 9.25137 5.95898 10.464C5.95898 11.6766 6.4407 12.8396 7.29817 13.6971C8.15564 14.5546 9.31861 15.0363 10.5313 15.0363C11.7439 15.0363 12.9069 14.5546 13.7643 13.6971C14.6218 12.8396 15.1035 11.6766 15.1035 10.464ZM94.127 10.464C94.127 9.25085 93.645 8.08738 92.7872 7.22954C91.9294 6.37171 90.7659 5.88979 89.5527 5.88979C88.3396 5.88979 87.1761 6.37171 86.3183 7.22954C85.4604 8.08738 84.9785 9.25085 84.9785 10.464C84.9785 11.6772 85.4604 12.8406 86.3183 13.6985C87.1761 14.5563 88.3396 15.0382 89.5527 15.0382C90.7659 15.0382 91.9294 14.5563 92.7872 13.6985C93.645 12.8406 94.127 11.6772 94.127 10.464ZM32.9609 36.5773C32.9459 36.5861 32.9335 36.5986 32.9249 36.6137C32.9162 36.6288 32.9117 36.6458 32.9117 36.6632C32.9117 36.6806 32.9162 36.6977 32.9249 36.7127C32.9335 36.7278 32.9459 36.7404 32.9609 36.7492L50 46.591C50.0154 46.6001 50.0329 46.6049 50.0508 46.6049C50.0687 46.6049 50.0862 46.6001 50.1016 46.591L67.1387 36.7511C67.1537 36.7423 67.1661 36.7298 67.1747 36.7147C67.1834 36.6996 67.1879 36.6826 67.1879 36.6652C67.1879 36.6478 67.1834 36.6307 67.1747 36.6157C67.1661 36.6006 67.1537 36.588 67.1387 36.5792L50.1016 26.7335C50.0862 26.7244 50.0687 26.7196 50.0508 26.7196C50.0329 26.7196 50.0154 26.7244 50 26.7335L32.9609 36.5773ZM47.1191 51.7316C47.1192 51.719 47.116 51.7066 47.1099 51.6957C47.1037 51.6847 47.0948 51.6755 47.084 51.6691L29.9922 41.798C29.9812 41.7914 29.9686 41.7879 29.9558 41.7877C29.943 41.7876 29.9304 41.7909 29.9192 41.7973C29.9081 41.8036 29.8989 41.8128 29.8925 41.8239C29.8861 41.8351 29.8827 41.8477 29.8828 41.8605V61.6124C29.8827 61.625 29.8859 61.6374 29.8921 61.6484C29.8983 61.6593 29.9072 61.6685 29.918 61.6749L47.0098 71.5538C47.0208 71.5604 47.0333 71.564 47.0462 71.5641C47.059 71.5642 47.0716 71.5609 47.0827 71.5546C47.0939 71.5482 47.1031 71.539 47.1095 71.5279C47.1159 71.5168 47.1192 71.5042 47.1191 71.4913V51.7316ZM53.0117 51.671C53.0016 51.6766 52.9932 51.6848 52.9874 51.6948C52.9815 51.7048 52.9785 51.7161 52.9785 51.7277V71.507C52.9786 71.5183 52.9817 71.5295 52.9875 71.5392C52.9933 71.549 53.0016 71.5571 53.0115 71.5627C53.0214 71.5682 53.0326 71.571 53.044 71.5709C53.0553 71.5707 53.0664 71.5675 53.0762 71.5617L70.1836 61.6788C70.1933 61.673 70.2014 61.6647 70.2068 61.6547C70.2123 61.6448 70.2151 61.6336 70.2149 61.6222V41.8507C70.2146 41.8396 70.2114 41.8288 70.2057 41.8193C70.2001 41.8098 70.192 41.8019 70.1824 41.7964C70.1728 41.7909 70.1619 41.788 70.1508 41.7879C70.1397 41.7879 70.1288 41.7907 70.1191 41.796L53.0117 51.671ZM15.1055 89.5499C15.1055 88.3368 14.6235 87.1733 13.7657 86.3155C12.9079 85.4576 11.7444 84.9757 10.5313 84.9757C9.31809 84.9757 8.15462 85.4576 7.29679 86.3155C6.43896 87.1733 5.95703 88.3368 5.95703 89.5499C5.95703 90.7631 6.43896 91.9266 7.29679 92.7844C8.15462 93.6422 9.31809 94.1242 10.5313 94.1242C11.7444 94.1242 12.9079 93.6422 13.7657 92.7844C14.6235 91.9266 15.1055 90.7631 15.1055 89.5499ZM94.1289 89.5499C94.1289 88.3368 93.647 87.1733 92.7892 86.3155C91.9313 85.4576 90.7679 84.9757 89.5547 84.9757C88.3415 84.9757 87.1781 85.4576 86.3202 86.3155C85.4624 87.1733 84.9805 88.3368 84.9805 89.5499C84.9805 90.7631 85.4624 91.9266 86.3202 92.7844C87.1781 93.6422 88.3415 94.1242 89.5547 94.1242C90.7679 94.1242 91.9313 93.6422 92.7892 92.7844C93.647 91.9266 94.1289 90.7631 94.1289 89.5499Z" fill="url(#paint0_linear_64_5674)"/>
</g>
<defs>
<linearGradient id="paint0_linear_64_5674" x1="100.02" y1="49.4459" x2="0.0722593" y2="49.4459" gradientUnits="userSpaceOnUse">
<stop stop-color="white" stop-opacity="0.1"/>
<stop offset="0.497093" stop-color="white"/>
<stop offset="1" stop-color="white" stop-opacity="0.14"/>
</linearGradient>
<clipPath id="clip0_64_5674">
<rect width="100" height="100" fill="white"/>
</clipPath>
</defs>
</svg>
