<svg width="100" height="100" viewBox="0 0 100 100" fill="none" xmlns="http://www.w3.org/2000/svg">
<g clip-path="url(#clip0_64_5661)">
<path d="M27.4551 0H29.1172C35.7799 0.390625 41.1881 3.14974 45.3418 8.27734C45.3626 8.30344 45.3897 8.32365 45.4206 8.33599C45.4514 8.34832 45.4848 8.35234 45.5176 8.34766C49.5977 7.79688 53.5312 9.9082 55.2637 13.5254C55.6217 14.2741 55.8971 15.2435 56.0898 16.4336C56.9922 22.0098 56.9727 27.6348 55.2207 33.0293C55.1048 33.3861 54.9629 33.9434 54.7949 34.7012C54.2181 37.3158 52.5788 39.0234 49.8769 39.8242C49.8419 39.8347 49.8104 39.8547 49.7863 39.882C49.7621 39.9093 49.7461 39.9427 49.7402 39.9785C49.4414 41.7812 49.1797 43.8789 48.7324 45.4238C47.9147 48.2428 46.3971 50.5846 44.1797 52.4492C43.7305 52.8268 42.7591 53.5332 41.2656 54.5684C39.1445 56.0371 37.0977 57.4004 34.6738 58.5059C26.709 62.1426 20.6582 58.3008 14.3613 53.8398C11.4141 51.752 9.45703 49.7148 8.24609 46.4004C7.57422 44.5645 7.26367 42.1035 6.92383 39.9668C6.91211 39.9004 6.8737 39.8574 6.80859 39.8379C4.02474 38.9993 2.35807 37.2188 1.80859 34.4961C1.66927 33.8086 1.53711 33.2715 1.41211 32.8848C0.617839 30.4186 0.147135 27.8835 0 25.2793V22.5977C0.0833333 20.1979 0.311849 17.9382 0.685547 15.8184C1.57617 10.7559 6.16211 7.86328 11.1914 8.32812C11.2578 8.33333 11.3125 8.3112 11.3555 8.26172C15.6211 3.23438 20.7656 0.408203 27.4551 0ZM10.0742 26.8984L11.8203 27.1484C11.8594 27.1545 11.8994 27.1464 11.933 27.1257C11.9667 27.1049 11.9918 27.0728 12.0039 27.0352C14.2734 20.1289 23.7852 19.7988 26.1992 26.7207C26.2175 26.7728 26.2539 26.8166 26.3017 26.8439C26.3494 26.8711 26.4053 26.8801 26.459 26.8691C27.7207 26.6178 28.9824 26.6217 30.2441 26.8809C30.2844 26.8897 30.3266 26.8832 30.3626 26.8626C30.3986 26.8421 30.4259 26.809 30.4395 26.7695C32.793 19.7637 42.4492 20.1504 44.6621 27.0586C44.6855 27.1315 44.7344 27.1628 44.8086 27.1523L46.5312 26.9219C46.5691 26.9172 46.6039 26.899 46.6294 26.8706C46.6549 26.8423 46.6693 26.8057 46.6699 26.7676C46.6921 25.0449 46.6914 23.3118 46.668 21.5684C46.5312 11.3848 38.2578 3.19531 28.0742 3.3457C19 3.48047 11.3887 10.2637 10.1758 19.2012C9.875 21.4102 10.0117 24.3145 10.0098 26.8223C10.0099 26.8408 10.0165 26.8586 10.0283 26.8725C10.0401 26.8865 10.0564 26.8957 10.0742 26.8984ZM8.99805 11.7051C6.73633 11.9727 4.49414 13.7012 4.05273 15.9668C3.25456 20.0762 3.13346 24.2012 3.68945 28.3418C3.69198 28.363 3.70033 28.383 3.71358 28.3997C3.72683 28.4165 3.74445 28.4292 3.7645 28.4365C3.78454 28.4437 3.80621 28.4453 3.8271 28.441C3.84799 28.4367 3.86727 28.4267 3.88281 28.4121C4.6276 27.7259 5.48568 27.2422 6.45703 26.9609C6.52527 26.9407 6.58515 26.899 6.62773 26.842C6.67032 26.785 6.69334 26.7157 6.69336 26.6445C6.67969 23.9609 6.54102 20.918 6.91602 18.4805C7.27279 16.1602 7.99023 13.9355 9.06836 11.8066C9.10742 11.7298 9.08398 11.696 8.99805 11.7051ZM52.1191 14.6699C51.2676 13.0391 49.4863 11.9199 47.6523 11.6816C47.6391 11.6797 47.6256 11.6815 47.6133 11.6868C47.6011 11.6921 47.5905 11.7006 47.5828 11.7116C47.5751 11.7225 47.5706 11.7353 47.5698 11.7487C47.569 11.762 47.5718 11.7753 47.5781 11.7871C49.1992 14.9368 50.0065 18.3001 50 21.877C49.9961 23.5085 49.9967 25.1536 50.0019 26.8125C50.0024 26.8384 50.0113 26.8633 50.0272 26.8834C50.0431 26.9036 50.0651 26.9178 50.0898 26.9238C51.1263 27.1947 52.0306 27.7005 52.8027 28.4414C52.8163 28.4547 52.8333 28.4639 52.8518 28.468C52.8703 28.4721 52.8896 28.4709 52.9075 28.4646C52.9254 28.4583 52.9412 28.4471 52.953 28.4323C52.9649 28.4175 52.9724 28.3997 52.9746 28.3809C53.4577 24.7806 53.4329 21.1966 52.9004 17.6289C52.696 16.2617 52.4355 15.2754 52.1191 14.6699ZM23.3184 29.1621C23.3184 28.0614 22.8811 27.0057 22.1027 26.2273C21.3244 25.449 20.2687 25.0117 19.168 25.0117C18.0672 25.0117 17.0115 25.449 16.2332 26.2273C15.4548 27.0057 15.0176 28.0614 15.0176 29.1621C15.0176 29.7071 15.1249 30.2468 15.3335 30.7504C15.5421 31.2539 15.8478 31.7115 16.2332 32.0969C16.6186 32.4823 17.0761 32.788 17.5797 32.9966C18.0832 33.2051 18.6229 33.3125 19.168 33.3125C19.713 33.3125 20.2527 33.2051 20.7563 32.9966C21.2598 32.788 21.7173 32.4823 22.1027 32.0969C22.4881 31.7115 22.7939 31.2539 23.0024 30.7504C23.211 30.2468 23.3184 29.7071 23.3184 29.1621ZM41.6523 29.1641C41.6523 28.0633 41.2151 27.0076 40.4367 26.2293C39.6584 25.4509 38.6027 25.0137 37.5019 25.0137C36.4012 25.0137 35.3455 25.4509 34.5672 26.2293C33.7888 27.0076 33.3516 28.0633 33.3516 29.1641C33.3516 30.2648 33.7888 31.3205 34.5672 32.0988C35.3455 32.8772 36.4012 33.3145 37.5019 33.3145C38.6027 33.3145 39.6584 32.8772 40.4367 32.0988C41.2151 31.3205 41.6523 30.2648 41.6523 29.1641ZM16.5293 36.1309C14.097 35.2363 12.5228 33.3945 11.8066 30.6055C11.7979 30.5715 11.7792 30.5409 11.7527 30.5175C11.7262 30.4942 11.6933 30.4793 11.6582 30.4746C10.457 30.3184 8.69336 29.8926 7.6543 30.0723C3.80469 30.7363 4.20117 36.3926 8.32226 36.6875C9.35937 36.7617 9.8418 37.2891 10.0156 38.3301C10.8125 43.1426 11.0176 47.2148 15.1719 50.3066C17.3424 51.9225 19.6009 53.4043 21.9473 54.7519C28.5664 58.5508 33.5039 55.918 39.0215 52.0762C40.7064 50.9017 41.7135 50.1751 42.043 49.8965C45.6484 46.8379 45.8379 43.0469 46.5859 38.6934C46.7598 37.6777 47.0273 36.8066 48.1055 36.6992C53.3535 36.1719 52.1836 29.4688 47.9473 30.0605C46.9616 30.1986 45.972 30.3431 44.9785 30.4941C44.9121 30.5033 44.8711 30.5404 44.8555 30.6055C44.2747 33 42.9883 34.7188 40.9961 35.7617C36.4102 38.1641 31.0195 35.4004 30.1523 30.4062C30.1441 30.3584 30.1222 30.314 30.0893 30.2783C30.0563 30.2426 30.0138 30.2172 29.9668 30.2051C28.8861 29.9199 27.806 29.918 26.7266 30.1992C26.6764 30.2121 26.6309 30.239 26.5956 30.2768C26.5603 30.3145 26.5366 30.3615 26.5273 30.4121C25.6953 35.084 20.9707 37.7637 16.5293 36.1309Z" fill="url(#paint0_linear_64_5661)"/>
<path d="M71.35 0H72.0317C73.5649 0.171875 74.4633 0.755859 75.6196 1.91406C80.6781 6.97396 85.7393 12.0345 90.8031 17.0957C90.8565 17.1491 90.906 17.1458 90.9516 17.0859C93.8696 13.2578 99.5688 15.0469 100 19.7422V28.6289C99.6632 30.9766 98.4874 32.4583 96.4731 33.0742C95.8559 33.263 94.8754 33.3555 93.5317 33.3516C91.3429 33.3464 89.1534 33.3385 86.9633 33.3281C81.9457 33.3066 79.7699 27.5273 83.6957 24.3184C83.7126 24.3048 83.7264 24.2879 83.7362 24.2686C83.7461 24.2493 83.7517 24.2281 83.7528 24.2064C83.754 24.1846 83.7505 24.1629 83.7427 24.1425C83.7348 24.122 83.7228 24.1035 83.7074 24.0879C78.6931 19.1126 73.6931 14.1029 68.7074 9.05859C67.9301 8.27344 67.421 7.63672 67.1801 7.14844C65.559 3.875 67.9106 0.398438 71.35 0ZM72.059 3.39453C70.9184 3.05273 69.7016 4.30273 70.0785 5.45508C70.171 5.74154 70.4405 6.10807 70.8871 6.55469C76.6241 12.293 82.3611 18.0306 88.0981 23.7676C89.3383 25.0078 88.35 26.6426 86.7192 26.6562C84.4906 26.6777 84.2856 29.9844 87.0238 29.9824C89.5395 29.9798 92.0557 29.9792 94.5727 29.9805C95.8266 29.9824 96.6664 29.5117 96.6762 28.1719C96.6879 26.8307 96.6873 24.1009 96.6742 19.9824C96.6684 17.9258 93.3793 17.6953 93.3695 20.0723C93.3637 21.5098 91.7074 22.6895 90.5649 21.5449C84.8188 15.7988 79.0727 10.0534 73.3266 4.30859C72.8175 3.80078 72.3949 3.49609 72.059 3.39453Z" fill="url(#paint1_linear_64_5661)"/>
<path d="M100 60.9512V73.7461C99.6016 76.9062 97.8848 78.9394 94.8496 79.8457C94.8222 79.8539 94.7977 79.8697 94.779 79.8911C94.7603 79.9126 94.7482 79.9388 94.7441 79.9668C94.4297 82.0449 94.1074 84.4258 93.4824 86.2383C92.5163 89.0443 90.8639 91.2884 88.5254 92.9707C84.0859 96.1602 79.3906 99.668 73.7168 100H72.9297C67.1895 99.5312 62.4375 96.1426 58.166 92.9512C55.2207 90.7506 53.4004 87.9518 52.7051 84.5547C52.5775 83.9284 52.3177 82.403 51.9258 79.9785C51.9141 79.9082 51.877 79.8561 51.8145 79.8223C51.6738 79.7461 51.416 79.7207 51.2988 79.6777C47.9805 78.4609 46.6758 75.9688 46.6777 72.5977C46.6803 68.8086 46.681 65.0195 46.6797 61.2305C46.6738 51.3027 52.8555 41.9004 61.9043 37.5957C73.0078 32.3125 86.3945 35.3262 94.1211 45.0059C97.7839 49.5944 99.7435 54.9095 100 60.9512ZM70.9238 55.6875C72.3301 54.8496 74.1133 54.7676 75.457 55.5449C79.4297 57.8431 83.6048 59.3398 87.9824 60.0352C91.752 60.6348 94.2109 62.8223 94.8809 66.7031C94.8913 66.7656 94.9258 66.8092 94.9844 66.834L96.5742 67.498C96.6328 67.5228 96.6628 67.5026 96.6641 67.4375C96.6992 64.8698 96.7012 62.9023 96.6699 61.5352C96.5189 54.8997 94.1504 49.3574 89.5645 44.9082C75.5117 31.2695 52.0762 40.0996 50.1191 59.4277C49.8789 61.791 50.002 64.8027 50 67.4551C49.9999 67.4642 50.0021 67.4731 50.0064 67.4812C50.0106 67.4892 50.0168 67.496 50.0243 67.5011C50.0319 67.5061 50.0406 67.5092 50.0497 67.51C50.0587 67.5109 50.0678 67.5094 50.0762 67.5059L51.6875 66.8242C51.737 66.8034 51.7663 66.7663 51.7754 66.7129C52.4551 62.8125 54.9277 60.6348 58.7109 60.0332C62.9902 59.3555 67.1914 57.9141 70.9238 55.6875ZM52.9805 70.0195C49.0039 70.543 49.0664 76.3125 53.0645 76.6562C54.3457 76.7676 54.8262 77.1621 55.0449 78.498C55.7402 82.7148 56.0215 86.9316 59.4883 89.7793C60.9714 90.9967 63.1439 92.4857 66.0059 94.2461C67.8861 95.4023 69.696 96.1504 71.4355 96.4902C75.3906 97.2598 79.1133 95.334 82.4375 93.1309C85.8086 90.8926 88.9199 89.0644 90.2852 85.2559C90.9395 83.4277 91.2539 80.6719 91.6367 78.4375C91.7949 77.5078 92.2051 76.7344 93.1758 76.6758C97.6602 76.4004 97.7637 70.4766 93.6777 70.0176C92.5449 69.8906 91.707 69.584 91.6797 68.3027C91.623 65.6426 90.3223 63.7656 87.627 63.3574C82.752 62.6165 78.1784 61.0033 73.9062 58.5176C73.5156 58.2897 73.1973 58.2487 72.9512 58.3945C68.6309 60.9531 63.9935 62.6068 59.0391 63.3555C56.5742 63.7285 55.0586 65.4805 54.9766 67.9922C54.9277 69.5273 54.4551 69.8262 52.9805 70.0195Z" fill="url(#paint2_linear_64_5661)"/>
<path d="M31.5899 38.3287C35.1914 38.3423 38.0742 41.0455 38.3086 44.6451C38.5293 48.0259 37.8848 50.0064 34.1094 50.0025C30.3073 49.9986 26.5052 49.9986 22.7031 50.0025C20.8066 50.0045 19.3984 49.7623 18.6367 48.0064C18.207 47.0181 18.3535 45.6275 18.3613 44.481C18.3789 41.9009 20.582 39.4127 23.0274 38.6509C23.6914 38.4439 24.7962 38.3371 26.3418 38.3306C28.0918 38.3241 29.8412 38.3235 31.5899 38.3287ZM35 46.5494C35.1016 44.3443 34.7734 42.1587 32.1582 41.7056C31.9941 41.677 31.3861 41.66 30.334 41.6548C28.9538 41.6496 27.5729 41.6483 26.1914 41.6509C24.0508 41.6548 22.4766 41.9498 21.8125 44.0787C21.5879 44.8033 21.7051 45.7271 21.6524 46.5416C21.651 46.5593 21.6533 46.5771 21.6592 46.5939C21.6651 46.6107 21.6744 46.6261 21.6865 46.6391C21.6986 46.6521 21.7133 46.6625 21.7296 46.6696C21.7459 46.6767 21.7635 46.6803 21.7813 46.6802H34.8633C34.8986 46.6803 34.9325 46.6667 34.958 46.6423C34.9834 46.6179 34.9985 46.5846 35 46.5494Z" fill="url(#paint3_linear_64_5661)"/>
<path d="M25.3863 85.7432C20.471 80.8669 15.5641 75.9646 10.6656 71.0362C9.72292 70.0883 9.11485 69.3383 8.84141 68.7862C7.42344 65.9268 9.20274 62.3643 12.3512 61.7647C14.1168 61.4288 15.6604 61.9216 16.982 63.2432C22.1096 68.3682 27.2789 73.5401 32.4899 78.7589C32.4988 78.7678 32.5095 78.7747 32.5214 78.7791C32.5332 78.7835 32.5459 78.7854 32.5585 78.7844C32.5711 78.7835 32.5834 78.7799 32.5944 78.7738C32.6055 78.7677 32.6151 78.7593 32.6227 78.7491C35.0543 75.4835 40.2184 76.2354 41.4371 80.2081C41.5764 80.6599 41.6461 81.3057 41.6461 82.1456C41.6461 84.5636 41.65 86.9828 41.6578 89.4034C41.6656 91.8487 40.6676 93.9366 38.2633 94.7061C37.5979 94.9184 36.3212 95.0212 34.4332 95.0147C32.2457 95.0089 30.0738 95.046 27.8883 94.9522C25.7848 94.8604 24.0582 93.21 23.5465 91.3428C22.9781 89.2706 23.693 87.2921 25.3727 85.9854C25.3906 85.9712 25.4054 85.9533 25.416 85.933C25.4265 85.9127 25.4327 85.8903 25.434 85.8674C25.4353 85.8445 25.4317 85.8216 25.4235 85.8002C25.4153 85.7788 25.4026 85.7594 25.3863 85.7432ZM27.4449 91.3487C27.6832 91.5466 27.8811 91.6456 28.0387 91.6456C30.8356 91.6508 33.6318 91.6521 36.4274 91.6495C37.8609 91.6475 38.3219 90.8761 38.3258 89.4893C38.3323 86.9633 38.3323 84.4373 38.3258 81.9112C38.3199 79.921 35.9137 79.2237 35.1461 81.0147C34.9469 81.4796 35.0836 82.4132 34.7965 82.7862C33.6637 84.2608 32.5914 83.5928 31.5094 82.5108C25.9742 76.9744 20.4391 71.4386 14.9039 65.9034C14.4274 65.4268 14.0205 65.1417 13.6832 65.0479C12.5875 64.7471 11.4371 65.9268 11.7281 67.0382C11.8141 67.3676 12.0725 67.7484 12.5035 68.1807C18.1441 73.837 23.7919 79.4867 29.4469 85.13C30.3473 86.0284 30.7652 87.2667 29.4996 88.0889C28.652 88.6417 27.7086 87.9737 26.9742 89.0811C26.4391 89.8884 26.596 90.6443 27.4449 91.3487Z" fill="url(#paint4_linear_64_5661)"/>
</g>
<defs>
<linearGradient id="paint0_linear_64_5661" x1="56.679" y1="29.6317" x2="-3.61115e-06" y2="29.6317" gradientUnits="userSpaceOnUse">
<stop stop-color="white" stop-opacity="0.1"/>
<stop offset="0.497093" stop-color="white"/>
<stop offset="1" stop-color="white" stop-opacity="0.14"/>
</linearGradient>
<linearGradient id="paint1_linear_64_5661" x1="100" y1="16.4842" x2="66.6562" y2="16.4842" gradientUnits="userSpaceOnUse">
<stop stop-color="white" stop-opacity="0.1"/>
<stop offset="0.497093" stop-color="white"/>
<stop offset="1" stop-color="white" stop-opacity="0.14"/>
</linearGradient>
<linearGradient id="paint2_linear_64_5661" x1="100" y1="67.1352" x2="46.6777" y2="67.1352" gradientUnits="userSpaceOnUse">
<stop stop-color="white" stop-opacity="0.1"/>
<stop offset="0.497093" stop-color="white"/>
<stop offset="1" stop-color="white" stop-opacity="0.14"/>
</linearGradient>
<linearGradient id="paint3_linear_64_5661" x1="38.347" y1="44.0967" x2="18.3311" y2="44.0967" gradientUnits="userSpaceOnUse">
<stop stop-color="white" stop-opacity="0.1"/>
<stop offset="0.497093" stop-color="white"/>
<stop offset="1" stop-color="white" stop-opacity="0.14"/>
</linearGradient>
<linearGradient id="paint4_linear_64_5661" x1="41.6579" y1="78.1482" x2="8.34765" y2="78.1482" gradientUnits="userSpaceOnUse">
<stop stop-color="white" stop-opacity="0.1"/>
<stop offset="0.497093" stop-color="white"/>
<stop offset="1" stop-color="white" stop-opacity="0.14"/>
</linearGradient>
<clipPath id="clip0_64_5661">
<rect width="100" height="100" fill="white"/>
</clipPath>
</defs>
</svg>
