<svg width="100" height="100" viewBox="0 0 100 100" fill="none" xmlns="http://www.w3.org/2000/svg">
<g clip-path="url(#clip0_64_5678)">
<path d="M64.4425 0H64.8175C64.9225 0.0383333 65.0517 0.0358333 65.1442 0.0591667C75.7987 2.76972 86.4537 5.48056 97.1092 8.19167C97.4931 8.28944 97.7831 8.40111 97.9792 8.52667C99.4242 9.45167 99.9167 11.8683 100 13.4217V86.5467C99.9342 88.0542 99.4084 90.6567 97.9125 91.5092C97.7342 91.6114 97.3906 91.727 96.8817 91.8558C86.3 94.5464 75.7189 97.2386 65.1384 99.9325C65.0142 99.965 64.8759 99.9733 64.745 100H64.4325C61.9442 99.615 61.4125 96.4625 61.45 94.4392C61.4556 94.1581 61.4584 94.0144 61.4584 94.0083C61.4584 64.2278 61.4584 34.4472 61.4584 4.66667C61.4584 4.00111 61.6037 3.25111 61.8942 2.41667C62.3034 1.24083 63.16 0.168333 64.4425 0ZM79.0067 49.9983C79.0067 48.6935 78.4884 47.442 77.5657 46.5194C76.643 45.5967 75.3916 45.0783 74.0867 45.0783C72.7818 45.0783 71.5304 45.5967 70.6077 46.5194C69.6851 47.442 69.1667 48.6935 69.1667 49.9983C69.1667 51.3032 69.6851 52.5546 70.6077 53.4773C71.5304 54.4 72.7818 54.9183 74.0867 54.9183C75.3916 54.9183 76.643 54.4 77.5657 53.4773C78.4884 52.5546 79.0067 51.3032 79.0067 49.9983Z" fill="url(#paint0_linear_64_5678)"/>
<path d="M51.4233 37.2654L43.65 29.502C43.6339 29.4854 43.625 29.4633 43.625 29.4404C43.6255 23.7798 43.6253 18.1195 43.6241 12.4595C43.6241 11.7001 43.6528 11.1462 43.71 10.7979C44.1516 8.09704 46.3775 6.05704 49.0516 5.63288C49.405 5.57677 49.9591 5.54788 50.7141 5.54621C53.0769 5.54121 55.4375 5.54066 57.7958 5.54454C57.8063 5.54454 57.8167 5.54661 57.8264 5.55063C57.8361 5.55465 57.845 5.56055 57.8524 5.56798C57.8598 5.5754 57.8657 5.58422 57.8697 5.59393C57.8737 5.60364 57.8758 5.61404 57.8758 5.62454L57.8741 13.2729C57.8741 13.3701 57.8255 13.4187 57.7283 13.4187L51.5841 13.417C51.5563 13.417 51.5296 13.428 51.5099 13.4476C51.4902 13.4671 51.4791 13.4936 51.4791 13.5212V37.2462C51.4791 37.2523 51.4772 37.2582 51.4736 37.2631C51.47 37.2679 51.4649 37.2716 51.459 37.2737C51.453 37.2757 51.4465 37.276 51.4401 37.2745C51.4338 37.2731 51.4279 37.2699 51.4233 37.2654Z" fill="url(#paint1_linear_64_5678)"/>
<path d="M0 50.4112V49.932C0.148333 48.2012 1.3125 46.762 2.98917 46.3479C3.30861 46.269 3.79528 46.2295 4.44917 46.2295C17.7519 46.2284 31.0539 46.2282 44.355 46.2287C44.3618 46.2287 44.3686 46.2269 44.3745 46.2235C44.3804 46.2201 44.3854 46.2152 44.3888 46.2093C44.3923 46.2034 44.3941 46.1967 44.3942 46.1899C44.3942 46.1831 44.3925 46.1763 44.3892 46.1704C44.3836 46.1604 44.3747 46.1493 44.3625 46.137C39.0614 40.8476 33.7617 35.5573 28.4633 30.2662C28.0111 29.8145 27.7006 29.449 27.5317 29.1695C25.41 25.6612 29.4042 21.6245 32.93 23.7487C33.2133 23.9193 33.5878 24.2365 34.0533 24.7004C41.59 32.2132 49.125 39.7276 56.6583 47.2437C57.0106 47.5948 57.2581 47.8812 57.4008 48.1029C58.1975 49.3379 58.19 50.977 57.4592 52.1995C57.2942 52.4745 56.9972 52.8276 56.5683 53.2587C49.0528 60.8148 41.5369 68.3704 34.0208 75.9254C33.4731 76.4759 33.0544 76.8379 32.765 77.0112C30.41 78.4229 27.3717 77.0454 26.8633 74.3387C26.6061 72.9709 26.9997 71.7615 28.0442 70.7104C33.4642 65.2554 38.9369 59.7501 44.4625 54.1945C44.4664 54.1904 44.469 54.1853 44.47 54.1797C44.471 54.1741 44.4703 54.1684 44.4681 54.1632C44.4659 54.158 44.4622 54.1535 44.4576 54.1503C44.4529 54.1472 44.4473 54.1455 44.4417 54.1454C31.1183 54.1454 17.7914 54.1454 4.46083 54.1454C3.84806 54.1454 3.38111 54.1073 3.06 54.0312C1.33583 53.622 0.159167 52.1829 0 50.4112Z" fill="url(#paint2_linear_64_5678)"/>
<path d="M43.6744 71.0047L51.4328 63.2022C51.4367 63.1983 51.4417 63.1955 51.4471 63.1942C51.4526 63.1929 51.4582 63.1931 51.4633 63.1948C51.4683 63.1965 51.4727 63.1996 51.4757 63.2037C51.4787 63.2079 51.4803 63.2129 51.4803 63.218L51.4794 87.2722C51.4794 87.2952 51.4885 87.3172 51.5046 87.3335C51.5207 87.3497 51.5425 87.3589 51.5653 87.3589L57.7828 87.3355C57.8444 87.3355 57.8753 87.3661 57.8753 87.4272V95.1464C57.8753 95.1629 57.8687 95.1788 57.857 95.1906C57.8453 95.2023 57.8294 95.2089 57.8128 95.2089C55.2817 95.2089 52.7403 95.2028 50.1886 95.1905C47.0869 95.1755 44.2978 93.1722 43.7269 90.0705C43.6597 89.7044 43.6261 89.1508 43.6261 88.4097C43.625 82.6475 43.6247 76.8855 43.6253 71.1239C43.6253 71.1017 43.6296 71.0797 43.638 71.0593C43.6465 71.0388 43.6589 71.0203 43.6744 71.0047Z" fill="url(#paint3_linear_64_5678)"/>
</g>
<defs>
<linearGradient id="paint0_linear_64_5678" x1="100" y1="49.4253" x2="61.4482" y2="49.4253" gradientUnits="userSpaceOnUse">
<stop stop-color="white" stop-opacity="0.1"/>
<stop offset="0.497093" stop-color="white"/>
<stop offset="1" stop-color="white" stop-opacity="0.14"/>
</linearGradient>
<linearGradient id="paint1_linear_64_5678" x1="57.8758" y1="21.2264" x2="43.6241" y2="21.2264" gradientUnits="userSpaceOnUse">
<stop stop-color="white" stop-opacity="0.1"/>
<stop offset="0.497093" stop-color="white"/>
<stop offset="1" stop-color="white" stop-opacity="0.14"/>
</linearGradient>
<linearGradient id="paint2_linear_64_5678" x1="58.003" y1="50.0536" x2="-3.6955e-06" y2="50.0536" gradientUnits="userSpaceOnUse">
<stop stop-color="white" stop-opacity="0.1"/>
<stop offset="0.497093" stop-color="white"/>
<stop offset="1" stop-color="white" stop-opacity="0.14"/>
</linearGradient>
<linearGradient id="paint3_linear_64_5678" x1="57.8753" y1="79.0171" x2="43.625" y2="79.0171" gradientUnits="userSpaceOnUse">
<stop stop-color="white" stop-opacity="0.1"/>
<stop offset="0.497093" stop-color="white"/>
<stop offset="1" stop-color="white" stop-opacity="0.14"/>
</linearGradient>
<clipPath id="clip0_64_5678">
<rect width="100" height="100" fill="white"/>
</clipPath>
</defs>
</svg>
