<svg width="100" height="100" viewBox="0 0 100 100" fill="none" xmlns="http://www.w3.org/2000/svg">
<g clip-path="url(#clip0_64_5648)">
<path d="M34.389 48.6673C29.6273 45.3665 26.2777 38.7434 26.2738 32.9758C26.2686 26.3131 26.2673 19.6503 26.2699 12.9876C26.2699 11.8509 26.8499 11.4466 27.8617 10.9505C34.9932 7.45437 42.1273 3.96348 49.264 0.477805C49.8109 0.210227 50.5081 0.364524 51.096 0.651633C58.2966 4.18028 65.4951 7.71153 72.6917 11.2454C73.5882 11.6868 73.7269 12.4212 73.7288 13.427C73.7327 19.9218 73.7327 26.416 73.7288 32.9094C73.7269 37.3997 71.8343 41.9446 69.0472 45.4133C67.6898 47.1028 66.2757 48.2102 64.2699 49.5833C59.8936 52.5794 55.5114 55.5663 51.1234 58.5442C50.1175 59.2258 49.4945 58.9661 48.516 58.302C41.3805 53.4596 36.6716 50.248 34.389 48.6673ZM30.2191 36.9094C31.1722 40.1594 33.3792 43.9055 36.2269 45.8548C40.5941 48.8443 45.1436 51.9472 49.8753 55.1633C49.9626 55.2219 50.0498 55.2219 50.137 55.1633C54.2399 52.3691 58.3766 49.5585 62.5472 46.7317C63.7959 45.8854 64.6455 45.2356 65.096 44.7825C68.0042 41.8508 70.3597 37.4231 70.3617 33.2024C70.363 26.787 70.363 20.371 70.3617 13.9544C70.3617 13.8788 70.3239 13.8229 70.2484 13.7864L50.1019 3.90163C50.0342 3.86778 49.9658 3.86778 49.8968 3.90163L29.7562 13.7532C29.7216 13.7703 29.6925 13.7968 29.6721 13.8295C29.6517 13.8623 29.641 13.9001 29.6409 13.9387C29.6357 20.1419 29.637 26.3359 29.6449 32.5208C29.6468 34.1594 29.7952 35.4622 30.2191 36.9094Z" fill="url(#paint0_linear_64_5648)"/>
<path d="M45.3476 24.9953C45.3724 23.2856 45.3925 21.5747 45.4082 19.8625C45.4199 18.6125 45.7402 17.5597 47.1347 17.5441C48.9655 17.5233 50.7994 17.5213 52.6367 17.5382C54.416 17.5558 54.6269 18.6886 54.6347 20.2433C54.6412 21.7811 54.6386 23.3618 54.6269 24.9855C54.6269 25.0016 54.6301 25.0175 54.6362 25.0323C54.6423 25.0471 54.6512 25.0606 54.6625 25.0718C54.6738 25.0831 54.6871 25.092 54.7018 25.0979C54.7165 25.1039 54.7322 25.1069 54.748 25.1066C56.4043 25.0923 58.08 25.0916 59.7754 25.1046C61.455 25.1164 62.1582 25.5519 62.1582 27.2628C62.1582 28.8748 62.1588 30.4862 62.1601 32.0968C62.1601 33.4679 61.8886 34.5421 60.3398 34.5578C58.4544 34.576 56.5742 34.5793 54.6992 34.5675C54.69 34.5673 54.6809 34.5688 54.6724 34.5722C54.6639 34.5755 54.6561 34.5805 54.6496 34.5869C54.643 34.5932 54.6378 34.6009 54.6343 34.6093C54.6307 34.6177 54.6289 34.6268 54.6289 34.6359C54.6406 36.5786 54.6412 38.4438 54.6308 40.2316C54.6211 41.7238 53.6289 42.0929 52.2695 42.091C50.7265 42.091 49.1842 42.091 47.6425 42.091C45.8183 42.091 45.4296 41.464 45.4004 39.7335C45.3717 38.0317 45.3763 36.3358 45.414 34.6457C45.4143 34.6348 45.4124 34.624 45.4083 34.614C45.4043 34.6039 45.3983 34.5947 45.3906 34.5871C45.3829 34.5794 45.3738 34.5734 45.3637 34.5693C45.3536 34.5653 45.3428 34.5634 45.332 34.5636C43.3151 34.5727 41.388 34.5727 39.5507 34.5636C37.7793 34.5558 37.6152 33.3293 37.6015 31.8078C37.5794 29.3429 37.582 27.7134 37.6093 26.9191C37.664 25.3898 38.7129 25.1046 40.0879 25.1027C41.8066 25.1027 43.526 25.1007 45.2461 25.0968C45.3138 25.0968 45.3476 25.063 45.3476 24.9953ZM46.3691 31.2121C47.6445 31.216 48.7421 31.5187 48.7343 32.9621C48.7226 34.8592 48.7233 36.7635 48.7363 38.675C48.7363 38.7003 48.7464 38.7247 48.7643 38.7426C48.7823 38.7606 48.8066 38.7707 48.832 38.7707H51.1191C51.1595 38.7707 51.1983 38.7546 51.2268 38.726C51.2554 38.6975 51.2714 38.6587 51.2714 38.6183C51.2662 36.8449 51.2669 35.0617 51.2734 33.2687C51.2793 31.5871 52.0664 31.2003 53.6816 31.2023C55.3561 31.2036 57.0123 31.2036 58.6504 31.2023C58.7415 31.2023 58.7871 31.1561 58.7871 31.0636L58.8046 28.5461C58.8046 28.5248 58.7962 28.5044 58.7812 28.4894C58.7662 28.4744 58.7458 28.466 58.7246 28.466C57.08 28.4712 55.4323 28.4705 53.7812 28.464C52.3242 28.4582 51.2773 28.2179 51.2754 26.5636C51.2727 24.7186 51.2701 22.8931 51.2675 21.0871C51.2675 21.0624 51.2627 21.0381 51.2533 21.0153C51.2438 20.9926 51.23 20.9719 51.2126 20.9545C51.1952 20.9371 51.1745 20.9233 51.1518 20.9138C51.129 20.9044 51.1047 20.8996 51.08 20.8996H48.8789C48.84 20.8996 48.8028 20.915 48.7753 20.9425C48.7478 20.9699 48.7324 21.0072 48.7324 21.0461C48.7298 22.852 48.7278 24.675 48.7265 26.5148C48.7265 28.3136 47.5859 28.4699 46.0351 28.4679C44.3997 28.4653 42.7571 28.466 41.1074 28.4699C41.0889 28.4699 41.0706 28.4736 41.0536 28.4807C41.0365 28.4879 41.021 28.4984 41.0079 28.5116C40.9949 28.5249 40.9845 28.5406 40.9775 28.5579C40.9704 28.5752 40.9668 28.5937 40.9668 28.6125V31.1007C40.9668 31.1141 40.9694 31.1273 40.9745 31.1396C40.9796 31.1519 40.9871 31.1631 40.9965 31.1726C41.0059 31.182 41.0171 31.1895 41.0295 31.1946C41.0418 31.1997 41.055 31.2023 41.0683 31.2023C42.8392 31.201 44.6061 31.2043 46.3691 31.2121Z" fill="url(#paint1_linear_64_5648)"/>
<path d="M0 53.6969V52.777C1.57812 42.898 3.14518 33.0211 4.70117 23.1461C4.98633 21.3355 5.56055 20.484 7.49219 20.9605C10.5013 21.704 12.4199 23.5465 13.248 26.4879C13.5391 27.525 13.4902 28.6812 13.4668 29.7848C13.3887 33.5257 13.3021 37.2613 13.207 40.9918C13.2064 41.0148 13.2144 41.0373 13.2295 41.0549C13.2446 41.0725 13.2658 41.0841 13.2891 41.0875C15.974 41.4677 18.1016 42.6461 19.6719 44.6227C20.1615 45.2385 20.7988 46.3688 21.584 48.0133C22.9264 50.8258 24.2734 53.6363 25.625 56.4449C26.748 58.775 29.1621 60.152 30.8437 61.8766C34.6901 65.8219 36.5573 70.5738 36.4453 76.1324C36.4451 76.1459 36.4483 76.1593 36.4546 76.1712C36.4609 76.1832 36.4702 76.1933 36.4815 76.2008C36.4928 76.2082 36.5058 76.2126 36.5193 76.2136C36.5328 76.2146 36.5463 76.2122 36.5586 76.2066C38.1855 75.5055 39.623 74.2887 40.748 76.6266C42.2988 79.8518 43.8385 83.0823 45.3672 86.318C46.1465 87.9684 45.1855 88.5953 43.7871 89.2613C36.5371 92.7171 29.2858 96.1702 22.0332 99.6207C20.7227 100.244 19.957 99.5543 19.3867 98.3707C17.8711 95.2288 16.3561 92.0869 14.8418 88.9449C14.1999 87.6155 14.5267 86.6617 15.8223 86.0836C16.1172 85.9527 16.0801 85.8453 16.1328 85.5777C16.748 82.4703 17.1426 80.9488 15.1523 78.5328C11.7435 74.3987 8.33333 70.2665 4.92188 66.1363C1.86719 62.4371 0.195312 58.5777 0 53.6969ZM17.7402 47.8258C16.5723 45.4215 14.0176 44.1051 11.3906 44.4684C11.2982 44.4814 11.2721 44.5302 11.3125 44.6148C13.5 49.2021 15.6816 53.7848 17.8574 58.3629C18.6152 59.9547 16.5547 61.5387 15.2441 60.3121C15.0345 60.1142 14.7858 59.7132 14.498 59.109C12.1986 54.2848 9.90234 49.4592 7.60937 44.6324C6.48242 42.2555 8.22266 42.0777 9.74219 41.359C9.80729 41.329 9.84049 41.2783 9.8418 41.2066C9.93424 37.4866 10.0234 33.7672 10.1094 30.0484C10.168 27.5445 10.0762 25.9625 7.98047 24.6754C7.90885 24.6324 7.86654 24.652 7.85351 24.734C6.43164 33.7327 5.00325 42.7431 3.56836 51.7652C3.06445 54.9254 3.8418 58.1812 5.33789 60.9527C5.76497 61.7444 6.48307 62.7509 7.49219 63.9723C10.6289 67.7731 13.7643 71.5732 16.8984 75.3727C18.1081 76.8388 18.8698 77.8896 19.1836 78.525C20.0182 80.2151 20.2318 82.0419 19.8242 84.0055C19.7969 84.1383 19.8444 84.1754 19.9668 84.1168L32.7812 78.0094C32.8097 77.9958 32.835 77.9767 32.8558 77.9532C32.8766 77.9297 32.8925 77.9023 32.9023 77.8727C32.9349 77.7776 32.9577 77.6663 32.9707 77.5387C33.4668 72.8733 32.293 68.8076 29.4492 65.3414C28.4668 64.1461 27.2812 63.191 25.9883 62.0953C23.6914 60.148 22.707 58.148 21.2187 55.0367C20.0664 52.6292 18.9069 50.2255 17.7402 47.8258ZM38.2677 79.2116C38.2575 79.1901 38.2391 79.1736 38.2167 79.1656C38.1942 79.1577 38.1695 79.159 38.148 79.1692L18.5097 88.5362C18.4882 88.5465 18.4717 88.5649 18.4637 88.5873C18.4558 88.6098 18.457 88.6345 18.4673 88.656L21.908 95.8696C21.9183 95.8911 21.9367 95.9077 21.9591 95.9156C21.9816 95.9236 22.0063 95.9223 22.0278 95.912L41.6661 86.545C41.6876 86.5348 41.7041 86.5164 41.7121 86.4939C41.72 86.4715 41.7187 86.4468 41.7085 86.4253L38.2677 79.2116Z" fill="url(#paint2_linear_64_5648)"/>
<path d="M100 52.7999V53.6222C99.8425 57.8318 98.5566 61.5681 96.1426 64.8311C96.0319 64.9822 95.2064 65.99 93.666 67.8546C90.5827 71.5863 87.5007 75.3188 84.4199 79.0518C82.7344 81.0948 83.4688 83.3468 83.8672 85.6925C83.9434 86.1397 84.1895 86.0616 84.4883 86.2432C85.4857 86.85 85.7161 87.7153 85.1797 88.839C83.6641 92.0186 82.1432 95.1964 80.6172 98.3722C80.0723 99.5069 79.2891 100.247 78.0313 99.6515C66.1458 94.0043 58.6074 90.4125 55.416 88.8761C54.127 88.253 54.2227 87.1964 54.7773 86.0167C56.2539 82.88 57.7454 79.7511 59.252 76.63C60.3301 74.3936 61.793 75.3897 63.377 76.1983C63.485 76.253 63.5384 76.2198 63.5371 76.0987C63.4863 70.0766 65.6257 65.085 69.9551 61.1241C69.9629 61.1176 70.4128 60.7485 71.3047 60.0167C72.819 58.7771 74.0443 57.1755 74.9805 55.212C76.3203 52.3995 77.6595 49.5883 78.9981 46.7784C80.5514 43.5193 83.1061 41.6254 86.6621 41.0968C86.6977 41.0916 86.7302 41.0735 86.7535 41.0458C86.7769 41.0181 86.7895 40.9828 86.7891 40.9464C86.7148 37.5935 86.6348 34.268 86.5488 30.9698C86.5039 29.2667 86.377 27.5421 86.8945 26.0206C87.7734 23.432 89.5527 21.7699 92.2324 21.0343C94.1641 20.505 94.9668 21.0479 95.2656 22.9405C96.8372 32.8923 98.4154 42.8455 100 52.7999ZM67.1777 77.9913L80.0391 84.1222C80.1615 84.1808 80.2083 84.143 80.1797 84.0089C79.7643 82.074 79.9661 80.2673 80.7852 78.589C81.1003 77.9444 81.8594 76.891 83.0625 75.4288C86.069 71.7738 89.082 68.1241 92.1016 64.4796C93.2292 63.1202 94.0052 62.0779 94.4297 61.3526C96.1406 58.4347 96.9531 55.0069 96.4121 51.6143C94.9824 42.643 93.5592 33.6781 92.1426 24.7198C92.1296 24.6417 92.0898 24.6235 92.0234 24.6651C90.5716 25.5844 89.8613 26.9008 89.8926 28.6143C89.9707 32.8123 90.0547 37.0115 90.1445 41.212C90.1458 41.281 90.179 41.3298 90.2441 41.3585C91.7617 42.0206 93.4902 42.3214 92.4375 44.5362C90.1797 49.2875 87.9193 54.0375 85.6563 58.7862C85.4746 59.1651 85.1211 60.0421 84.8086 60.2979C83.709 61.1983 81.9551 60.5401 81.9902 59.1104C81.9981 58.811 82.1478 58.3546 82.4395 57.7413C84.5254 53.3507 86.6081 48.9757 88.6875 44.6163C88.6965 44.5976 88.7007 44.577 88.6999 44.5563C88.6991 44.5356 88.6933 44.5155 88.6829 44.4975C88.6725 44.4796 88.6578 44.4645 88.6403 44.4536C88.6227 44.4426 88.6027 44.4361 88.582 44.4347C86.3307 44.2693 84.5462 44.9236 83.2285 46.3975C82.7637 46.9171 82.1198 48.0427 81.2969 49.7745C80.1823 52.1169 79.0625 54.4561 77.9375 56.7921C77.1992 58.3272 76.3366 59.6567 75.3496 60.7804C74.2441 62.0382 72.2461 63.4132 71.1426 64.6456C67.7754 68.3982 66.4186 72.7986 67.0723 77.8468C67.0764 77.8779 67.0883 77.9074 67.1067 77.9327C67.1251 77.9579 67.1495 77.9781 67.1777 77.9913ZM81.5356 88.66C81.5458 88.6385 81.5471 88.6138 81.5392 88.5914C81.5312 88.5689 81.5147 88.5505 81.4932 88.5403L61.8514 79.1716C61.8407 79.1665 61.8292 79.1636 61.8174 79.163C61.8056 79.1624 61.7938 79.1641 61.7827 79.168C61.7716 79.1719 61.7613 79.178 61.7526 79.1859C61.7438 79.1938 61.7367 79.2034 61.7316 79.214L58.2925 86.4241C58.2823 86.4456 58.281 86.4703 58.2889 86.4928C58.2969 86.5153 58.3135 86.5336 58.335 86.5439L77.9768 95.9125C77.9874 95.9176 77.999 95.9206 78.0107 95.9212C78.0225 95.9218 78.0343 95.9201 78.0454 95.9162C78.0566 95.9122 78.0668 95.9061 78.0756 95.8982C78.0843 95.8903 78.0915 95.8808 78.0965 95.8701L81.5356 88.66Z" fill="url(#paint3_linear_64_5648)"/>
</g>
<defs>
<linearGradient id="paint0_linear_64_5648" x1="73.7318" y1="29.3053" x2="26.2686" y2="29.3053" gradientUnits="userSpaceOnUse">
<stop stop-color="white" stop-opacity="0.1"/>
<stop offset="0.497093" stop-color="white"/>
<stop offset="1" stop-color="white" stop-opacity="0.14"/>
</linearGradient>
<linearGradient id="paint1_linear_64_5648" x1="62.1601" y1="29.6678" x2="37.5867" y2="29.6678" gradientUnits="userSpaceOnUse">
<stop stop-color="white" stop-opacity="0.1"/>
<stop offset="0.497093" stop-color="white"/>
<stop offset="1" stop-color="white" stop-opacity="0.14"/>
</linearGradient>
<linearGradient id="paint2_linear_64_5648" x1="45.6458" y1="59.8884" x2="-2.90819e-06" y2="59.8884" gradientUnits="userSpaceOnUse">
<stop stop-color="white" stop-opacity="0.1"/>
<stop offset="0.497093" stop-color="white"/>
<stop offset="1" stop-color="white" stop-opacity="0.14"/>
</linearGradient>
<linearGradient id="paint3_linear_64_5648" x1="100" y1="59.8983" x2="54.3899" y2="59.8983" gradientUnits="userSpaceOnUse">
<stop stop-color="white" stop-opacity="0.1"/>
<stop offset="0.497093" stop-color="white"/>
<stop offset="1" stop-color="white" stop-opacity="0.14"/>
</linearGradient>
<clipPath id="clip0_64_5648">
<rect width="100" height="100" fill="white"/>
</clipPath>
</defs>
</svg>
