<svg width="936" height="283" viewBox="0 0 936 283" fill="none" xmlns="http://www.w3.org/2000/svg">
<path d="M0.719666 -19H936V283H0.719666V-19Z" fill="url(#paint0_linear_64_3793)"/>
<path opacity="0.8" d="M936 201.462L929.507 177.931L923.014 145.417L916.521 119.807L910.028 133.295L903.535 117.837L897.042 109.84L890.549 85.7538L884.056 94.2361L877.562 76.1213L871.069 88.0647L864.576 75.8946L858.083 53.1255L851.59 29.5682L845.097 48.8222L838.604 65.3712L832.111 82.5574L825.618 70.749L819.125 103.366L812.632 77.2066L806.139 70.1928L799.646 55.6524L793.153 50.3233L786.66 51.8243L780.167 26.0586L773.674 35.4264L767.181 41.3333L760.687 6L754.194 23.5371L747.701 55.0261L741.208 91.72L734.715 87.6327L728.222 70.452L721.729 60.4308L715.236 60.6684L708.743 86.5529L702.25 63.5354L695.757 88.9826L689.264 113.744L682.771 91.7308L676.278 117.847L669.785 120.315L663.292 147.938L656.799 130.93L650.306 138.603L643.812 152.279L637.319 182.008L630.826 151.502L624.333 180.561L617.84 145.265L611.347 153.769L604.854 136.848L598.361 171.101L591.868 201.192L585.375 198.643L578.882 217.33L572.389 205.533L565.896 228.885L559.403 262.021L552.91 229.754L546.417 196.71L539.924 210.716L533.431 196.338L526.937 212.579L520.444 233.977L513.951 211.866L507.458 219.371L500.965 247.302L494.472 257.399L487.979 251.082L481.486 271L474.993 249.543L468.5 248.938L462.007 244.262L455.514 240.872L449.021 219.231L442.528 192.321L436.035 185.123L429.542 148.462L423.049 139.385L416.556 173.914L410.062 167.289L403.569 142.155L397.076 136.815L390.583 127.977L384.09 102.303L377.597 66.0947L371.104 86.1857L364.611 55.4148L358.118 70.5924L351.625 103.993L345.132 116.001L338.639 149.569L332.146 186.479L325.653 193.546L319.16 202.822L312.667 221.321L306.174 199.216L299.681 208.524L293.187 210.328L286.694 190.766L280.201 222.951L273.708 210.23L267.215 192.915L260.722 227.589L254.229 196.943L247.736 173.747L241.243 152.058L234.75 147.231L228.257 121.8L221.764 104.9L215.271 106.385L208.778 142.258L202.285 149.569L195.792 185.895L189.299 165.589L182.806 147.598L176.312 174.951L169.819 178.093L163.326 209.15L156.833 206.759L150.34 210.22L143.847 203.881L137.354 211.456L130.861 242.443L124.368 256.2L117.875 232.913L111.382 241.498L104.889 232.157L98.3958 230.008L91.9027 221.207L85.4097 238.852L78.9166 240.521L72.4236 217.449L65.9305 208.049L59.4375 193.622L52.9444 203.46L46.4514 187.143L39.9583 159.838L33.4652 142.253L26.9722 105.478L20.4791 95.0244L13.9861 130.882L7.49302 165.308L0.999962 134.877" stroke="url(#paint1_linear_64_3793)" stroke-width="2"/>
<defs>
<linearGradient id="paint0_linear_64_3793" x1="468.36" y1="-19" x2="468.36" y2="283" gradientUnits="userSpaceOnUse">
<stop stop-color="#1A1A18" stop-opacity="0"/>
<stop offset="0.521616" stop-color="#1A1A18"/>
<stop offset="1" stop-color="#1A1A18" stop-opacity="0"/>
</linearGradient>
<linearGradient id="paint1_linear_64_3793" x1="1129.57" y1="271" x2="-196.227" y2="271" gradientUnits="userSpaceOnUse">
<stop stop-color="#E81C1C" stop-opacity="0.29"/>
<stop offset="0.496818" stop-color="#E81C1C"/>
<stop offset="1" stop-color="#E81C1C" stop-opacity="0.2"/>
</linearGradient>
</defs>
</svg>
