<svg width="80" height="80" viewBox="0 0 80 80" fill="none" xmlns="http://www.w3.org/2000/svg">
<path d="M37.6293 11.1983C37.6244 11.1982 37.6195 11.1972 37.615 11.1952C37.6104 11.1932 37.6063 11.1904 37.6029 11.1869C37.5995 11.1833 37.5968 11.1792 37.5949 11.1746C37.5931 11.17 37.5922 11.1651 37.5923 11.1602L37.5962 8.83198C37.5973 8.18462 37.8522 7.56425 38.3047 7.10732C38.7571 6.6504 39.3702 6.39435 40.0089 6.39551C40.3251 6.39608 40.6382 6.45979 40.9302 6.58299C41.2221 6.70619 41.4873 6.88647 41.7105 7.11354C41.9337 7.3406 42.1106 7.61001 42.2311 7.90638C42.3516 8.20275 42.4133 8.52027 42.4127 8.84082L42.4089 11.169C42.4088 11.1739 42.4077 11.1788 42.4058 11.1833C42.4038 11.1879 42.401 11.192 42.3975 11.1954C42.3939 11.1988 42.3898 11.2015 42.3852 11.2034C42.3806 11.2052 42.3757 11.2061 42.3707 11.206L37.6293 11.1983Z" fill="white"/>
<path d="M35.913 11.8527C34.1395 13.6792 32.5163 15.545 31.0224 17.608C27.7141 22.1767 25.4552 27.2205 24.2456 32.7395C23.7395 35.0478 23.3985 37.3807 23.2224 39.7384C23.2169 39.8118 23.223 39.8897 23.2313 39.9776C23.2338 40.0019 23.2228 40.0141 23.1981 40.0141C18.5959 40.0141 13.9941 40.0141 9.39258 40.0141C8.8633 40.0141 8.49627 39.9927 8.29148 39.95C7.05225 39.6897 6.2401 38.5058 6.43512 37.229C7.47324 30.4489 10.6992 24.4168 15.7644 19.8312C21.2489 14.8654 28.3898 12.1671 35.6898 11.4163C35.9445 11.3903 36.0948 11.6654 35.913 11.8527Z" fill="white"/>
<path d="M64.9516 20.4906C69.6621 25.0204 72.6505 30.9342 73.6024 37.3933C73.6472 37.6944 73.5732 38.1563 73.4483 38.4596C73.115 39.2718 72.5347 39.7666 71.7074 39.9441C71.4912 39.9906 71.1245 40.0139 70.6074 40.0143C66.0141 40.0143 61.4207 40.0139 56.8273 40.0132C56.8082 40.0132 56.7978 40.0036 56.7964 39.9845C56.5982 37.0195 56.1476 34.1561 55.4444 31.3944C54.075 26.0154 51.7015 21.1184 48.324 16.7033C47.0212 15.0001 45.6321 13.404 44.1566 11.9149C44.0844 11.8419 44.0402 11.7819 44.024 11.7348C43.9616 11.5524 44.1483 11.3861 44.3328 11.4193C44.4301 11.437 44.4794 11.446 44.4809 11.4464C52.0461 12.2022 59.4317 15.1828 64.9516 20.4906Z" fill="white"/>
<path d="M37.5693 40.014H28.0798C28.0356 40.014 28.0153 39.9921 28.019 39.9482C28.2781 36.8013 28.8262 33.7206 29.7659 30.7162C31.6958 24.5477 35.2162 19.219 39.8262 14.7289C39.956 14.6024 40.0897 14.6328 40.2146 14.7549C41.7711 16.2797 43.207 17.9107 44.5223 19.6477C47.9702 24.2016 50.2328 29.29 51.3101 34.9129C51.6313 36.591 51.8564 38.2775 51.9853 39.9725C51.9857 39.9778 51.9851 39.9831 51.9834 39.9882C51.9817 39.9932 51.9789 39.9978 51.9754 40.0017C51.9718 40.0056 51.9674 40.0087 51.9626 40.0108C51.9577 40.0129 51.9525 40.014 51.9472 40.014H42.4383C42.4291 40.014 42.4202 40.0176 42.4137 40.024C42.4072 40.0304 42.4035 40.0391 42.4035 40.0482V44.7792C42.4035 44.7865 42.4006 44.7935 42.3954 44.7987C42.3902 44.8039 42.3832 44.8068 42.3759 44.8068H37.6317C37.6225 44.8068 37.6136 44.8031 37.6071 44.7966C37.6005 44.7901 37.5969 44.7812 37.5969 44.772V40.0416C37.5969 40.0232 37.5877 40.014 37.5693 40.014Z" fill="white"/>
<path d="M37.5967 51.9609V49.6272C37.5967 49.6199 37.5996 49.6129 37.6048 49.6077C37.61 49.6025 37.617 49.5996 37.6243 49.5996H42.3757C42.383 49.5996 42.3901 49.6025 42.3953 49.6077C42.4004 49.6129 42.4033 49.6199 42.4033 49.6272V51.9742C42.4033 51.9777 42.404 51.9811 42.4054 51.9843C42.4067 51.9876 42.4086 51.9905 42.4111 51.9929C42.4136 51.9954 42.4165 51.9974 42.4197 51.9987C42.4229 52 42.4264 52.0007 42.4299 52.0007C43.2181 52.0026 44.0102 52.0072 44.8061 52.0145C47.6304 52.0405 48.1006 56.0283 45.4006 56.7322C45.2068 56.7827 44.9258 56.8081 44.5575 56.8084C42.2507 56.8099 39.9404 56.8101 37.6265 56.809C37.6222 56.809 37.6179 56.8107 37.6148 56.8139C37.6117 56.817 37.61 56.8212 37.61 56.8256V59.1825C37.61 59.1869 37.6117 59.1911 37.6147 59.1942C37.6177 59.1973 37.6217 59.1991 37.626 59.1991C40.0149 59.1987 42.3947 59.1998 44.7652 59.2024C45.8558 59.204 46.8503 59.9096 47.126 60.9786C47.1812 61.1922 47.2089 61.5392 47.2089 62.0195C47.2096 64.2744 47.2059 66.5294 47.1978 68.7847C47.194 69.862 46.5393 70.798 45.5067 71.1057C45.303 71.1665 44.9965 71.2002 44.5873 71.2068C43.8912 71.2186 43.1788 71.2204 42.4503 71.2123C42.419 71.2119 42.4033 71.2276 42.4033 71.2593V73.5775C42.4033 73.5848 42.4004 73.5919 42.3953 73.597C42.3901 73.6022 42.383 73.6051 42.3757 73.6051H37.6243C37.6169 73.6051 37.6097 73.6022 37.6044 73.597C37.5991 73.5919 37.5962 73.5848 37.5962 73.5775L37.5973 71.23C37.5973 71.2244 37.5951 71.2191 37.5911 71.2152C37.5872 71.2112 37.5818 71.209 37.5763 71.209C36.8706 71.2201 36.1637 71.2208 35.4558 71.2112C35.0448 71.2053 34.7348 71.1725 34.526 71.1129C32.1459 70.4317 32.2812 66.9897 34.7017 66.4648C34.9197 66.4177 35.2862 66.3943 35.8011 66.3946C37.9658 66.3957 40.144 66.3959 42.3359 66.3952C42.3809 66.3952 42.4033 66.3727 42.4033 66.3278V64.0339C42.4033 64.0264 42.4004 64.0192 42.3951 64.0139C42.3898 64.0087 42.3826 64.0057 42.3752 64.0057C39.9439 64.0057 37.5085 64.0057 35.0691 64.0057C34.0464 64.0057 33.1288 63.1609 32.8785 62.2073C32.8295 62.0202 32.8048 61.7598 32.8044 61.4261C32.8037 59.2081 32.8035 56.9898 32.8039 54.7714C32.8039 54.311 32.8311 53.9781 32.8857 53.7725C33.0995 52.967 33.7547 52.309 34.5614 52.0897C34.7661 52.0337 35.0912 52.0051 35.5365 52.004C36.2068 52.0018 36.8792 52.0018 37.5536 52.004C37.565 52.004 37.576 51.9995 37.5841 51.9914C37.5922 51.9833 37.5967 51.9724 37.5967 51.9609Z" fill="white"/>
</svg>
