<svg width="360" height="87" viewBox="0 0 360 87" fill="none" xmlns="http://www.w3.org/2000/svg">
<g filter="url(#filter0_b_64_296)">
<mask id="path-1-inside-1_64_296" fill="white">
<path d="M0 0H360V67C360 78.0457 351.046 87 340 87H20C8.95432 87 0 78.0457 0 67V0Z"/>
</mask>
<path d="M0 0H360H0ZM360 67C360 78.598 350.598 88 339 88H21C9.40202 88 0 78.598 0 67C0 77.4934 8.9543 86 20 86H340C351.046 86 360 77.4934 360 67ZM0 87V0V87ZM360 0V87V0Z" fill="url(#paint1_linear_64_296)" mask="url(#path-1-inside-1_64_296)"/>
</g>
<defs>
<filter id="filter0_b_64_296" x="-20" y="-20" width="400" height="127" filterUnits="userSpaceOnUse" color-interpolation-filters="sRGB">
<feFlood flood-opacity="0" result="BackgroundImageFix"/>
<feGaussianBlur in="BackgroundImageFix" stdDeviation="10"/>
<feComposite in2="SourceAlpha" operator="in" result="effect1_backgroundBlur_64_296"/>
<feBlend mode="normal" in="SourceGraphic" in2="effect1_backgroundBlur_64_296" result="shape"/>
</filter>
<linearGradient id="paint0_linear_64_296" x1="360" y1="43" x2="-2.29364e-05" y2="43" gradientUnits="userSpaceOnUse">
<stop stop-color="white" stop-opacity="0.25"/>
<stop offset="0.460099" stop-color="white" stop-opacity="0.16"/>
<stop offset="1" stop-color="white" stop-opacity="0.16"/>
</linearGradient>
<linearGradient id="paint1_linear_64_296" x1="360" y1="43" x2="-2.29364e-05" y2="43" gradientUnits="userSpaceOnUse">
<stop stop-color="white" stop-opacity="0.1"/>
<stop offset="0.497093" stop-color="white"/>
<stop offset="1" stop-color="white" stop-opacity="0.14"/>
</linearGradient>
</defs>
</svg>
