<svg width="960" height="83" viewBox="0 0 960 83" fill="none" xmlns="http://www.w3.org/2000/svg">
<g opacity="0.8" filter="url(#filter0_b_64_3769)">
<mask id="path-1-inside-1_64_3769" fill="white">
<path d="M0 0H960V53C960 69.5685 946.569 83 930 83H30C13.4315 83 0 69.5685 0 53V0Z"/>
</mask>
<path d="M0 0H960H0ZM960 53C960 70.1208 946.121 84 929 84H31C13.8792 84 0 70.1208 0 53C0 69.0163 13.4315 82 30 82H930C946.569 82 960 69.0163 960 53ZM0 83V0V83ZM960 0V83V0Z" fill="url(#paint1_linear_64_3769)" mask="url(#path-1-inside-1_64_3769)"/>
</g>
<defs>
<filter id="filter0_b_64_3769" x="-20" y="-20" width="1000" height="123" filterUnits="userSpaceOnUse" color-interpolation-filters="sRGB">
<feFlood flood-opacity="0" result="BackgroundImageFix"/>
<feGaussianBlur in="BackgroundImageFix" stdDeviation="10"/>
<feComposite in2="SourceAlpha" operator="in" result="effect1_backgroundBlur_64_3769"/>
<feBlend mode="normal" in="SourceGraphic" in2="effect1_backgroundBlur_64_3769" result="shape"/>
</filter>
<linearGradient id="paint0_linear_64_3769" x1="960" y1="41.023" x2="-6.11638e-05" y2="41.0229" gradientUnits="userSpaceOnUse">
<stop stop-color="white" stop-opacity="0.25"/>
<stop offset="0.460099" stop-color="white" stop-opacity="0.16"/>
<stop offset="1" stop-color="white" stop-opacity="0.16"/>
</linearGradient>
<linearGradient id="paint1_linear_64_3769" x1="960" y1="41.023" x2="-6.11638e-05" y2="41.0229" gradientUnits="userSpaceOnUse">
<stop stop-color="white" stop-opacity="0.1"/>
<stop offset="0.497093" stop-color="white"/>
<stop offset="1" stop-color="white" stop-opacity="0.14"/>
</linearGradient>
</defs>
</svg>
