<svg width="1920" height="107" viewBox="0 0 1920 107" fill="none" xmlns="http://www.w3.org/2000/svg">
<g opacity="0.8" filter="url(#filter0_b_1_2490)">
<mask id="path-1-inside-1_1_2490" fill="white">
<path d="M0 0H1920V77C1920 93.5685 1906.57 107 1890 107H30C13.4315 107 0 93.5685 0 77V0Z"/>
</mask>
<path d="M0 0H1920H0ZM1920 77C1920 94.1208 1906.12 108 1889 108H31C13.8792 108 0 94.1208 0 77C0 93.0163 13.4315 106 30 106H1890C1906.57 106 1920 93.0163 1920 77ZM0 107V0V107ZM1920 0V107V0Z" fill="url(#paint0_linear_1_2490)" mask="url(#path-1-inside-1_1_2490)"/>
</g>
<defs>
<filter id="filter0_b_1_2490" x="-20" y="-20" width="1960" height="147" filterUnits="userSpaceOnUse" color-interpolation-filters="sRGB">
<feFlood flood-opacity="0" result="BackgroundImageFix"/>
<feGaussianBlur in="BackgroundImageFix" stdDeviation="10"/>
<feComposite in2="SourceAlpha" operator="in" result="effect1_backgroundBlur_1_2490"/>
<feBlend mode="normal" in="SourceGraphic" in2="effect1_backgroundBlur_1_2490" result="shape"/>
</filter>
<linearGradient id="paint0_linear_1_2490" x1="1920" y1="52.8851" x2="-0.000122328" y2="52.8848" gradientUnits="userSpaceOnUse">
<stop stop-color="white" stop-opacity="0.1"/>
<stop offset="0.497093" stop-color="white"/>
<stop offset="1" stop-color="white" stop-opacity="0.14"/>
</linearGradient>
</defs>
</svg>
