<svg width="360" height="153" viewBox="0 0 360 153" fill="none" xmlns="http://www.w3.org/2000/svg">
<path d="M-2 0H361V153H-2V0Z" fill="#1A1A18"/>
<path d="M442 111.81L438.917 99.9036L435.833 83.4506L432.75 70.4921L429.667 77.3169L426.583 69.4948L423.5 65.4485L420.417 53.2604L417.333 57.5526L414.25 48.3863L411.167 54.4298L408.083 48.2715L405 36.7501L401.917 24.8297L398.833 34.5726L395.75 42.9466L392.667 51.643L389.583 45.6678L386.5 62.1727L383.417 48.9354L380.333 45.3864L377.25 38.0287L374.167 35.3321L371.083 36.0916L368 23.0538L364.917 27.7941L361.833 30.7831L358.75 12.9039L355.667 21.7779L352.583 37.7118L349.5 56.2794L346.417 54.2112L343.333 45.5175L340.25 40.4467L337.167 40.5669L334.083 53.6648L331 42.0177L327.917 54.8942L324.833 67.4239L321.75 56.2849L318.667 69.5003L315.583 70.7489L312.5 84.7265L309.417 76.1203L306.333 80.0026L303.25 86.9232L300.167 101.966L297.083 86.5297L294 101.234L290.917 83.3741L287.833 87.6772L284.75 79.1147L281.667 96.4474L278.583 111.674L275.5 110.384L272.417 119.84L269.333 113.87L266.25 125.687L263.167 142.454L260.083 126.127L257 109.406L253.917 116.493L250.833 109.217L247.75 117.436L244.667 128.263L241.583 117.075L238.5 120.873L235.417 135.006L232.333 140.115L229.25 136.919L226.167 146.998L223.083 136.14L220 135.834L216.917 133.468L213.833 131.752L210.75 120.802L207.667 107.185L204.583 103.543L201.5 84.9915L198.417 80.3988L195.333 97.8709L192.25 94.5185L189.167 81.8004L186.083 79.0983L183 74.6258L179.917 61.6344L176.833 43.3127L173.75 53.479L170.667 37.9085L167.583 45.5886L164.5 62.4896L161.417 68.5659L158.333 85.5516L155.25 104.229L152.167 107.805L149.083 112.499L146 121.859L142.917 110.674L139.833 115.384L136.75 116.296L133.667 106.398L130.583 122.684L127.5 116.247L124.417 107.485L121.333 125.031L118.25 109.523L115.167 97.7862L112.083 86.8111L109 84.3686L105.917 71.5002L102.833 62.9486L99.75 63.6999L96.6667 81.8523L93.5833 85.5516L90.5 103.933L87.4167 93.6579L84.3333 84.5544L81.25 98.3954L78.1667 99.9855L75.0833 115.701L72 114.49L68.9167 116.242L65.8333 113.034L62.75 116.867L59.6667 132.547L56.5833 139.509L53.5 127.725L50.4167 132.069L47.3333 127.342L44.25 126.255L41.1667 121.802L38.0833 130.73L35 131.575L31.9167 119.9L28.8333 115.143L25.75 107.843L22.6667 112.821L19.5833 104.565L16.5 90.7482L13.4167 81.8496L10.3333 63.2409L7.24999 57.9515L4.16666 76.0957L1.08333 93.5158L-2.00001 78.1175" stroke="url(#paint0_linear_64_150)" stroke-width="2"/>
<defs>
<linearGradient id="paint0_linear_64_150" x1="533.922" y1="146.998" x2="-95.6562" y2="146.998" gradientUnits="userSpaceOnUse">
<stop stop-color="#E81C1C" stop-opacity="0.29"/>
<stop offset="0.496818" stop-color="#E81C1C"/>
<stop offset="1" stop-color="#E81C1C" stop-opacity="0.2"/>
</linearGradient>
</defs>
</svg>
