<svg width="320" height="153" viewBox="0 0 320 153" fill="none" xmlns="http://www.w3.org/2000/svg">
<rect opacity="0.3" x="320" width="153" height="0.999991" transform="rotate(90 320 0)" fill="url(#paint0_linear_64_158)"/>
<rect opacity="0.3" x="1" width="153" height="0.999991" transform="rotate(90 1 0)" fill="url(#paint1_linear_64_158)"/>
<rect opacity="0.1" x="319" y="44" width="318" height="0.999979" transform="rotate(-180 319 44)" fill="url(#paint2_linear_64_158)"/>
<rect opacity="0.1" x="319" y="13" width="318" height="0.999979" transform="rotate(-180 319 13)" fill="url(#paint3_linear_64_158)"/>
<rect opacity="0.1" x="319" y="75" width="318" height="0.999979" transform="rotate(-180 319 75)" fill="url(#paint4_linear_64_158)"/>
<rect opacity="0.1" x="319" y="106" width="318" height="0.999979" transform="rotate(-180 319 106)" fill="url(#paint5_linear_64_158)"/>
<rect opacity="0.1" x="319" y="137" width="318" height="0.999979" transform="rotate(-180 319 137)" fill="url(#paint6_linear_64_158)"/>
<defs>
<linearGradient id="paint0_linear_64_158" x1="473" y1="0.494249" x2="320" y2="0.494054" gradientUnits="userSpaceOnUse">
<stop stop-color="white" stop-opacity="0.1"/>
<stop offset="0.497093" stop-color="white"/>
<stop offset="1" stop-color="white" stop-opacity="0.14"/>
</linearGradient>
<linearGradient id="paint1_linear_64_158" x1="154" y1="0.494249" x2="0.99999" y2="0.494054" gradientUnits="userSpaceOnUse">
<stop stop-color="white" stop-opacity="0.1"/>
<stop offset="0.497093" stop-color="white"/>
<stop offset="1" stop-color="white" stop-opacity="0.14"/>
</linearGradient>
<linearGradient id="paint2_linear_64_158" x1="637" y1="44.4942" x2="319" y2="44.4934" gradientUnits="userSpaceOnUse">
<stop stop-color="white" stop-opacity="0.1"/>
<stop offset="0.497093" stop-color="white"/>
<stop offset="1" stop-color="white" stop-opacity="0.14"/>
</linearGradient>
<linearGradient id="paint3_linear_64_158" x1="637" y1="13.4942" x2="319" y2="13.4934" gradientUnits="userSpaceOnUse">
<stop stop-color="white" stop-opacity="0.1"/>
<stop offset="0.497093" stop-color="white"/>
<stop offset="1" stop-color="white" stop-opacity="0.14"/>
</linearGradient>
<linearGradient id="paint4_linear_64_158" x1="637" y1="75.4942" x2="319" y2="75.4934" gradientUnits="userSpaceOnUse">
<stop stop-color="white" stop-opacity="0.1"/>
<stop offset="0.497093" stop-color="white"/>
<stop offset="1" stop-color="white" stop-opacity="0.14"/>
</linearGradient>
<linearGradient id="paint5_linear_64_158" x1="637" y1="106.494" x2="319" y2="106.493" gradientUnits="userSpaceOnUse">
<stop stop-color="white" stop-opacity="0.1"/>
<stop offset="0.497093" stop-color="white"/>
<stop offset="1" stop-color="white" stop-opacity="0.14"/>
</linearGradient>
<linearGradient id="paint6_linear_64_158" x1="637" y1="137.494" x2="319" y2="137.493" gradientUnits="userSpaceOnUse">
<stop stop-color="white" stop-opacity="0.1"/>
<stop offset="0.497093" stop-color="white"/>
<stop offset="1" stop-color="white" stop-opacity="0.14"/>
</linearGradient>
</defs>
</svg>
